solid OpenSCAD_Model
  facet normal 0.998027 0.0627907 0
    outer loop
      vertex 34 0 12
      vertex 33.7319 4.26133 0
      vertex 33.7319 4.26133 12
    endloop
  endfacet
  facet normal 0.998027 0.0627907 0
    outer loop
      vertex 33.7319 4.26133 0
      vertex 34 0 12
      vertex 34 0 0
    endloop
  endfacet
  facet normal -0.998027 0.0627907 0
    outer loop
      vertex -34 0 0
      vertex -33.7319 4.26133 12
      vertex -33.7319 4.26133 0
    endloop
  endfacet
  facet normal -0.998027 0.0627907 0
    outer loop
      vertex -33.7319 4.26133 12
      vertex -34 0 0
      vertex -34 0 12
    endloop
  endfacet
  facet normal 0 1 -0
    outer loop
      vertex 2.13488 33.9329 0
      vertex -2.13488 33.9329 12
      vertex 2.13488 33.9329 12
    endloop
  endfacet
  facet normal 0 1 0
    outer loop
      vertex -2.13488 33.9329 12
      vertex 2.13488 33.9329 0
      vertex -2.13488 33.9329 0
    endloop
  endfacet
  facet normal 0 -1 0
    outer loop
      vertex -2.13488 -33.9329 0
      vertex 2.13488 -33.9329 12
      vertex -2.13488 -33.9329 12
    endloop
  endfacet
  facet normal 0 -1 -0
    outer loop
      vertex 2.13488 -33.9329 12
      vertex -2.13488 -33.9329 0
      vertex 2.13488 -33.9329 0
    endloop
  endfacet
  facet normal 0.684547 0.728969 -0
    outer loop
      vertex 24.7849 23.2746 0
      vertex 21.6724 26.1974 12
      vertex 24.7849 23.2746 12
    endloop
  endfacet
  facet normal 0.684547 0.728969 0
    outer loop
      vertex 21.6724 26.1974 12
      vertex 24.7849 23.2746 0
      vertex 21.6724 26.1974 0
    endloop
  endfacet
  facet normal -0.684547 0.728969 0
    outer loop
      vertex -21.6724 26.1974 0
      vertex -24.7849 23.2746 12
      vertex -21.6724 26.1974 12
    endloop
  endfacet
  facet normal -0.684547 0.728969 0
    outer loop
      vertex -24.7849 23.2746 12
      vertex -21.6724 26.1974 0
      vertex -24.7849 23.2746 0
    endloop
  endfacet
  facet normal -0.368125 0.929776 0
    outer loop
      vertex -10.5066 32.3359 0
      vertex -14.4765 30.7641 12
      vertex -10.5066 32.3359 12
    endloop
  endfacet
  facet normal -0.368125 0.929776 0
    outer loop
      vertex -14.4765 30.7641 12
      vertex -10.5066 32.3359 0
      vertex -14.4765 30.7641 0
    endloop
  endfacet
  facet normal 0.904827 0.42578 0
    outer loop
      vertex 31.6124 12.5162 12
      vertex 29.7944 16.3796 0
      vertex 29.7944 16.3796 12
    endloop
  endfacet
  facet normal 0.904827 0.42578 0
    outer loop
      vertex 29.7944 16.3796 0
      vertex 31.6124 12.5162 12
      vertex 31.6124 12.5162 0
    endloop
  endfacet
  facet normal 0.368125 0.929776 -0
    outer loop
      vertex 14.4765 30.7641 0
      vertex 10.5066 32.3359 12
      vertex 14.4765 30.7641 12
    endloop
  endfacet
  facet normal 0.368125 0.929776 0
    outer loop
      vertex 10.5066 32.3359 12
      vertex 14.4765 30.7641 0
      vertex 10.5066 32.3359 0
    endloop
  endfacet
  facet normal 0.24869 0.968583 -0
    outer loop
      vertex 10.5066 32.3359 0
      vertex 6.37096 33.3978 12
      vertex 10.5066 32.3359 12
    endloop
  endfacet
  facet normal 0.24869 0.968583 0
    outer loop
      vertex 6.37096 33.3978 12
      vertex 10.5066 32.3359 0
      vertex 6.37096 33.3978 0
    endloop
  endfacet
  facet normal 0.481754 0.876307 -0
    outer loop
      vertex 18.2181 28.7071 0
      vertex 14.4765 30.7641 12
      vertex 18.2181 28.7071 12
    endloop
  endfacet
  facet normal 0.481754 0.876307 0
    outer loop
      vertex 14.4765 30.7641 12
      vertex 18.2181 28.7071 0
      vertex 14.4765 30.7641 0
    endloop
  endfacet
  facet normal -0.904827 0.42578 0
    outer loop
      vertex -31.6124 12.5162 0
      vertex -29.7944 16.3796 12
      vertex -29.7944 16.3796 0
    endloop
  endfacet
  facet normal -0.904827 0.42578 0
    outer loop
      vertex -29.7944 16.3796 12
      vertex -31.6124 12.5162 0
      vertex -31.6124 12.5162 12
    endloop
  endfacet
  facet normal -0.770513 0.637424 0
    outer loop
      vertex -27.5066 19.9847 0
      vertex -24.7849 23.2746 12
      vertex -24.7849 23.2746 0
    endloop
  endfacet
  facet normal -0.770513 0.637424 0
    outer loop
      vertex -24.7849 23.2746 12
      vertex -27.5066 19.9847 0
      vertex -27.5066 19.9847 12
    endloop
  endfacet
  facet normal -0 0 1
    outer loop
      vertex -30.8113 3 12
      vertex -24 -3 12
      vertex -24 3 12
    endloop
  endfacet
  facet normal 0 0 1
    outer loop
      vertex -24 -3 12
      vertex -30.8113 3 12
      vertex -30.8113 -3 12
    endloop
  endfacet
  facet normal 0 0 1
    outer loop
      vertex -24 -3 12
      vertex -18 -3 12
      vertex -24 3 12
    endloop
  endfacet
  facet normal 0 0 1
    outer loop
      vertex -24 -18 12
      vertex -18 -3 12
      vertex -24 -3 12
    endloop
  endfacet
  facet normal 0 0 1
    outer loop
      vertex -18 -3 12
      vertex -24 -18 12
      vertex -21.6724 -26.1974 12
    endloop
  endfacet
  facet normal 0 0 1
    outer loop
      vertex -24 -18 12
      vertex -24.7849 -23.2746 12
      vertex -21.6724 -26.1974 12
    endloop
  endfacet
  facet normal -0 0 1
    outer loop
      vertex -25.22 -18 12
      vertex -24.7849 -23.2746 12
      vertex -24 -18 12
    endloop
  endfacet
  facet normal -0 0 1
    outer loop
      vertex -29.7944 -16.3796 12
      vertex -25.22 -18 12
      vertex -27.1655 -14.9344 12
    endloop
  endfacet
  facet normal 0 0 1
    outer loop
      vertex -25.22 -18 12
      vertex -27.5066 -19.9847 12
      vertex -24.7849 -23.2746 12
    endloop
  endfacet
  facet normal 0 0 1
    outer loop
      vertex -29.7944 -16.3796 12
      vertex -27.1655 -14.9344 12
      vertex -28.8231 -11.4119 12
    endloop
  endfacet
  facet normal 0 0 1
    outer loop
      vertex -25.22 -18 12
      vertex -29.7944 -16.3796 12
      vertex -27.5066 -19.9847 12
    endloop
  endfacet
  facet normal 0 0 1
    outer loop
      vertex -31.6124 -12.5162 12
      vertex -28.8231 -11.4119 12
      vertex -30.0261 -7.70939 12
    endloop
  endfacet
  facet normal 0 0 1
    outer loop
      vertex -32.9318 -8.45546 12
      vertex -30.0261 -7.70939 12
      vertex -30.7556 -3.88533 12
    endloop
  endfacet
  facet normal 0 0 1
    outer loop
      vertex -28.8231 -11.4119 12
      vertex -31.6124 -12.5162 12
      vertex -29.7944 -16.3796 12
    endloop
  endfacet
  facet normal 0 0 1
    outer loop
      vertex -33.7319 -4.26133 12
      vertex -30.7556 -3.88533 12
      vertex -30.8113 -3 12
    endloop
  endfacet
  facet normal 0 0 1
    outer loop
      vertex -30.7556 3.88533 12
      vertex -33.7319 4.26133 12
      vertex -30.8113 3 12
    endloop
  endfacet
  facet normal 0 0 1
    outer loop
      vertex -34 0 12
      vertex -30.8113 3 12
      vertex -33.7319 4.26133 12
    endloop
  endfacet
  facet normal 0 0 1
    outer loop
      vertex -30.0261 -7.70939 12
      vertex -32.9318 -8.45546 12
      vertex -31.6124 -12.5162 12
    endloop
  endfacet
  facet normal 0 0 1
    outer loop
      vertex -30.8113 3 12
      vertex -34 0 12
      vertex -30.8113 -3 12
    endloop
  endfacet
  facet normal 0 0 1
    outer loop
      vertex -30.7556 -3.88533 12
      vertex -33.7319 -4.26133 12
      vertex -32.9318 -8.45546 12
    endloop
  endfacet
  facet normal 0 0 1
    outer loop
      vertex -30.8113 -3 12
      vertex -34 0 12
      vertex -33.7319 -4.26133 12
    endloop
  endfacet
  facet normal -0 0 1
    outer loop
      vertex -18 -18 12
      vertex -3 -24 12
      vertex -3 -18 12
    endloop
  endfacet
  facet normal 0 0 1
    outer loop
      vertex -3 -24 12
      vertex -18 -18 12
      vertex -18 -24 12
    endloop
  endfacet
  facet normal -0 0 1
    outer loop
      vertex -18 3 12
      vertex -3 -3 12
      vertex -3 3 12
    endloop
  endfacet
  facet normal 0 0 1
    outer loop
      vertex -3 -3 12
      vertex -18 3 12
      vertex -18 -3 12
    endloop
  endfacet
  facet normal -0 0 1
    outer loop
      vertex -18 24 12
      vertex -3 18 12
      vertex -3 24 12
    endloop
  endfacet
  facet normal 0 0 1
    outer loop
      vertex -3 18 12
      vertex -18 24 12
      vertex -18 18 12
    endloop
  endfacet
  facet normal 0 0 1
    outer loop
      vertex -3 3 12
      vertex 3 3 12
      vertex -3 18 12
    endloop
  endfacet
  facet normal 0 0 1
    outer loop
      vertex 3 3 12
      vertex -3 3 12
      vertex 3 -3 12
    endloop
  endfacet
  facet normal 0 0 1
    outer loop
      vertex -3 -3 12
      vertex 3 -3 12
      vertex -3 3 12
    endloop
  endfacet
  facet normal 0 0 1
    outer loop
      vertex -3 -18 12
      vertex 3 -3 12
      vertex -3 -3 12
    endloop
  endfacet
  facet normal 0 0 1
    outer loop
      vertex -3 -24 12
      vertex 3 -3 12
      vertex -3 -18 12
    endloop
  endfacet
  facet normal 0 0 1
    outer loop
      vertex 3 -3 12
      vertex -3 -24 12
      vertex -2.13488 -33.9329 12
    endloop
  endfacet
  facet normal -0 0 1
    outer loop
      vertex -3 -30.8057 12
      vertex -2.13488 -33.9329 12
      vertex -3 -24 12
    endloop
  endfacet
  facet normal 0 0 1
    outer loop
      vertex -6.37096 -33.3978 12
      vertex -3 -30.8057 12
      vertex -5.80882 -30.4509 12
    endloop
  endfacet
  facet normal 0 0 1
    outer loop
      vertex -3 -30.8057 12
      vertex -6.37096 -33.3978 12
      vertex -2.13488 -33.9329 12
    endloop
  endfacet
  facet normal 0 0 1
    outer loop
      vertex -9.57953 -29.4828 12
      vertex -6.37096 -33.3978 12
      vertex -5.80882 -30.4509 12
    endloop
  endfacet
  facet normal 0 0 1
    outer loop
      vertex -9.57953 -29.4828 12
      vertex -10.5066 -32.3359 12
      vertex -6.37096 -33.3978 12
    endloop
  endfacet
  facet normal 0 0 1
    outer loop
      vertex -13.1992 -28.0496 12
      vertex -10.5066 -32.3359 12
      vertex -9.57953 -29.4828 12
    endloop
  endfacet
  facet normal 0 0 1
    outer loop
      vertex -13.1992 -28.0496 12
      vertex -14.4765 -30.7641 12
      vertex -10.5066 -32.3359 12
    endloop
  endfacet
  facet normal 0 0 1
    outer loop
      vertex -16.6106 -26.1742 12
      vertex -14.4765 -30.7641 12
      vertex -13.1992 -28.0496 12
    endloop
  endfacet
  facet normal 0 0 1
    outer loop
      vertex -18.2181 -28.7071 12
      vertex -16.6106 -26.1742 12
      vertex -18 -25.1647 12
    endloop
  endfacet
  facet normal 0 0 1
    outer loop
      vertex -16.6106 -26.1742 12
      vertex -18.2181 -28.7071 12
      vertex -14.4765 -30.7641 12
    endloop
  endfacet
  facet normal 0 0 1
    outer loop
      vertex -18 -24 12
      vertex -18.2181 -28.7071 12
      vertex -18 -25.1647 12
    endloop
  endfacet
  facet normal 0 0 1
    outer loop
      vertex -24 18 12
      vertex -18.2181 28.7071 12
      vertex -21.6724 26.1974 12
    endloop
  endfacet
  facet normal 0 0 1
    outer loop
      vertex -18 3 12
      vertex -24 3 12
      vertex -18 -3 12
    endloop
  endfacet
  facet normal 0 0 1
    outer loop
      vertex -18 -3 12
      vertex -21.6724 -26.1974 12
      vertex -18.2181 -28.7071 12
    endloop
  endfacet
  facet normal -0 0 1
    outer loop
      vertex -24.7849 23.2746 12
      vertex -24 18 12
      vertex -21.6724 26.1974 12
    endloop
  endfacet
  facet normal 0 0 1
    outer loop
      vertex -24.7849 23.2746 12
      vertex -25.22 18 12
      vertex -24 18 12
    endloop
  endfacet
  facet normal -0 0 1
    outer loop
      vertex -27.5066 19.9847 12
      vertex -25.22 18 12
      vertex -24.7849 23.2746 12
    endloop
  endfacet
  facet normal 0 0 1
    outer loop
      vertex -29.7944 16.3796 12
      vertex -25.22 18 12
      vertex -27.5066 19.9847 12
    endloop
  endfacet
  facet normal 0 0 1
    outer loop
      vertex -25.22 18 12
      vertex -29.7944 16.3796 12
      vertex -27.1655 14.9344 12
    endloop
  endfacet
  facet normal 0 0 1
    outer loop
      vertex -27.1655 14.9344 12
      vertex -29.7944 16.3796 12
      vertex -28.8231 11.4119 12
    endloop
  endfacet
  facet normal -0 0 1
    outer loop
      vertex -31.6124 12.5162 12
      vertex -28.8231 11.4119 12
      vertex -29.7944 16.3796 12
    endloop
  endfacet
  facet normal 0 0 1
    outer loop
      vertex -28.8231 11.4119 12
      vertex -31.6124 12.5162 12
      vertex -30.0261 7.70939 12
    endloop
  endfacet
  facet normal -0 0 1
    outer loop
      vertex -33.7319 4.26133 12
      vertex -30.7556 3.88533 12
      vertex -32.9318 8.45546 12
    endloop
  endfacet
  facet normal 0 0 1
    outer loop
      vertex -30.0261 7.70939 12
      vertex -32.9318 8.45546 12
      vertex -30.7556 3.88533 12
    endloop
  endfacet
  facet normal -0 0 1
    outer loop
      vertex -32.9318 8.45546 12
      vertex -30.0261 7.70939 12
      vertex -31.6124 12.5162 12
    endloop
  endfacet
  facet normal -0 0 1
    outer loop
      vertex 3 -18 12
      vertex 18 -24 12
      vertex 18 -18 12
    endloop
  endfacet
  facet normal 0 0 1
    outer loop
      vertex 18 -24 12
      vertex 3 -18 12
      vertex 3 -24 12
    endloop
  endfacet
  facet normal -0 0 1
    outer loop
      vertex 3 3 12
      vertex 18 -3 12
      vertex 18 3 12
    endloop
  endfacet
  facet normal 0 0 1
    outer loop
      vertex 18 -3 12
      vertex 3 3 12
      vertex 3 -3 12
    endloop
  endfacet
  facet normal -0 0 1
    outer loop
      vertex 3 24 12
      vertex 18 18 12
      vertex 18 24 12
    endloop
  endfacet
  facet normal 0 0 1
    outer loop
      vertex 18 18 12
      vertex 3 24 12
      vertex 3 18 12
    endloop
  endfacet
  facet normal 0 0 1
    outer loop
      vertex 18 3 12
      vertex 24 3 12
      vertex 18 18 12
    endloop
  endfacet
  facet normal 0 0 1
    outer loop
      vertex 24 3 12
      vertex 18 3 12
      vertex 24 -3 12
    endloop
  endfacet
  facet normal 0 0 1
    outer loop
      vertex 18 -3 12
      vertex 24 -3 12
      vertex 18 3 12
    endloop
  endfacet
  facet normal 0 0 1
    outer loop
      vertex 18 -18 12
      vertex 24 -3 12
      vertex 18 -3 12
    endloop
  endfacet
  facet normal 0 0 1
    outer loop
      vertex 18 -24 12
      vertex 24 -3 12
      vertex 18 -18 12
    endloop
  endfacet
  facet normal 0 0 1
    outer loop
      vertex 24 -3 12
      vertex 18 -24 12
      vertex 18.2181 -28.7071 12
    endloop
  endfacet
  facet normal -0 0 1
    outer loop
      vertex 18 -25.1647 12
      vertex 18.2181 -28.7071 12
      vertex 18 -24 12
    endloop
  endfacet
  facet normal -0 0 1
    outer loop
      vertex 16.6106 -26.1742 12
      vertex 18.2181 -28.7071 12
      vertex 18 -25.1647 12
    endloop
  endfacet
  facet normal 0 0 1
    outer loop
      vertex 16.6106 -26.1742 12
      vertex 14.4765 -30.7641 12
      vertex 18.2181 -28.7071 12
    endloop
  endfacet
  facet normal -0 0 1
    outer loop
      vertex 13.1992 -28.0496 12
      vertex 14.4765 -30.7641 12
      vertex 16.6106 -26.1742 12
    endloop
  endfacet
  facet normal 0 0 1
    outer loop
      vertex 13.1992 -28.0496 12
      vertex 10.5066 -32.3359 12
      vertex 14.4765 -30.7641 12
    endloop
  endfacet
  facet normal -0 0 1
    outer loop
      vertex 9.57953 -29.4828 12
      vertex 10.5066 -32.3359 12
      vertex 13.1992 -28.0496 12
    endloop
  endfacet
  facet normal 0 0 1
    outer loop
      vertex 9.57953 -29.4828 12
      vertex 6.37096 -33.3978 12
      vertex 10.5066 -32.3359 12
    endloop
  endfacet
  facet normal -0 0 1
    outer loop
      vertex 5.80882 -30.4509 12
      vertex 6.37096 -33.3978 12
      vertex 9.57953 -29.4828 12
    endloop
  endfacet
  facet normal -0 0 1
    outer loop
      vertex 3 -30.8057 12
      vertex 6.37096 -33.3978 12
      vertex 5.80882 -30.4509 12
    endloop
  endfacet
  facet normal 0 0 1
    outer loop
      vertex 3 -30.8057 12
      vertex 2.13488 -33.9329 12
      vertex 6.37096 -33.3978 12
    endloop
  endfacet
  facet normal 0 0 1
    outer loop
      vertex 3 -24 12
      vertex 2.13488 -33.9329 12
      vertex 3 -30.8057 12
    endloop
  endfacet
  facet normal 0 0 1
    outer loop
      vertex -3 30.8057 12
      vertex 2.13488 33.9329 12
      vertex -2.13488 33.9329 12
    endloop
  endfacet
  facet normal 0 0 1
    outer loop
      vertex 3 18 12
      vertex -3 18 12
      vertex 3 3 12
    endloop
  endfacet
  facet normal 0 0 1
    outer loop
      vertex 3 -3 12
      vertex -2.13488 -33.9329 12
      vertex 2.13488 -33.9329 12
    endloop
  endfacet
  facet normal -0 0 1
    outer loop
      vertex -6.37096 33.3978 12
      vertex -3 30.8057 12
      vertex -2.13488 33.9329 12
    endloop
  endfacet
  facet normal 0 0 1
    outer loop
      vertex -3 30.8057 12
      vertex -6.37096 33.3978 12
      vertex -5.80882 30.4509 12
    endloop
  endfacet
  facet normal 0 0 1
    outer loop
      vertex -6.37096 33.3978 12
      vertex -9.57953 29.4828 12
      vertex -5.80882 30.4509 12
    endloop
  endfacet
  facet normal -0 0 1
    outer loop
      vertex -10.5066 32.3359 12
      vertex -9.57953 29.4828 12
      vertex -6.37096 33.3978 12
    endloop
  endfacet
  facet normal 0 0 1
    outer loop
      vertex -10.5066 32.3359 12
      vertex -13.1992 28.0496 12
      vertex -9.57953 29.4828 12
    endloop
  endfacet
  facet normal -0 0 1
    outer loop
      vertex -14.4765 30.7641 12
      vertex -13.1992 28.0496 12
      vertex -10.5066 32.3359 12
    endloop
  endfacet
  facet normal 0 0 1
    outer loop
      vertex -14.4765 30.7641 12
      vertex -16.6106 26.1742 12
      vertex -13.1992 28.0496 12
    endloop
  endfacet
  facet normal -0 0 1
    outer loop
      vertex -18.2181 28.7071 12
      vertex -16.6106 26.1742 12
      vertex -14.4765 30.7641 12
    endloop
  endfacet
  facet normal 0 0 1
    outer loop
      vertex -24 18 12
      vertex -18 25.1647 12
      vertex -18.2181 28.7071 12
    endloop
  endfacet
  facet normal 0 0 1
    outer loop
      vertex -18 25.1647 12
      vertex -24 18 12
      vertex -18 24 12
    endloop
  endfacet
  facet normal 0 0 1
    outer loop
      vertex -18 24 12
      vertex -24 18 12
      vertex -18 18 12
    endloop
  endfacet
  facet normal 0 0 1
    outer loop
      vertex -18 18 12
      vertex -24 18 12
      vertex -18 3 12
    endloop
  endfacet
  facet normal 0 0 1
    outer loop
      vertex -24 3 12
      vertex -18 3 12
      vertex -24 18 12
    endloop
  endfacet
  facet normal 0 0 1
    outer loop
      vertex -18 -3 12
      vertex -18.2181 -28.7071 12
      vertex -18 -18 12
    endloop
  endfacet
  facet normal 0 0 1
    outer loop
      vertex -18 -18 12
      vertex -18.2181 -28.7071 12
      vertex -18 -24 12
    endloop
  endfacet
  facet normal 0 0 1
    outer loop
      vertex -16.6106 26.1742 12
      vertex -18.2181 28.7071 12
      vertex -18 25.1647 12
    endloop
  endfacet
  facet normal -0 0 1
    outer loop
      vertex 24 3 12
      vertex 30.8113 -3 12
      vertex 30.8113 3 12
    endloop
  endfacet
  facet normal 0 0 1
    outer loop
      vertex 30.8113 -3 12
      vertex 24 3 12
      vertex 24 -3 12
    endloop
  endfacet
  facet normal -0 0 1
    outer loop
      vertex 30.8113 3 12
      vertex 34 0 12
      vertex 33.7319 4.26133 12
    endloop
  endfacet
  facet normal 0 0 1
    outer loop
      vertex 30.7556 3.88533 12
      vertex 33.7319 4.26133 12
      vertex 32.9318 8.45546 12
    endloop
  endfacet
  facet normal 0 0 1
    outer loop
      vertex 30.8113 -3 12
      vertex 34 0 12
      vertex 30.8113 3 12
    endloop
  endfacet
  facet normal 0 0 1
    outer loop
      vertex 30.0261 7.70939 12
      vertex 32.9318 8.45546 12
      vertex 31.6124 12.5162 12
    endloop
  endfacet
  facet normal 0 0 1
    outer loop
      vertex 34 0 12
      vertex 30.8113 -3 12
      vertex 33.7319 -4.26133 12
    endloop
  endfacet
  facet normal -0 0 1
    outer loop
      vertex 30.7556 -3.88533 12
      vertex 33.7319 -4.26133 12
      vertex 30.8113 -3 12
    endloop
  endfacet
  facet normal 0 0 1
    outer loop
      vertex 33.7319 4.26133 12
      vertex 30.7556 3.88533 12
      vertex 30.8113 3 12
    endloop
  endfacet
  facet normal 0 0 1
    outer loop
      vertex 32.9318 8.45546 12
      vertex 30.0261 7.70939 12
      vertex 30.7556 3.88533 12
    endloop
  endfacet
  facet normal 0 0 1
    outer loop
      vertex 28.8231 11.4119 12
      vertex 31.6124 12.5162 12
      vertex 29.7944 16.3796 12
    endloop
  endfacet
  facet normal 0 0 1
    outer loop
      vertex 31.6124 12.5162 12
      vertex 28.8231 11.4119 12
      vertex 30.0261 7.70939 12
    endloop
  endfacet
  facet normal -0 0 1
    outer loop
      vertex 25.22 18 12
      vertex 29.7944 16.3796 12
      vertex 27.5066 19.9847 12
    endloop
  endfacet
  facet normal 0 0 1
    outer loop
      vertex 29.7944 16.3796 12
      vertex 27.1655 14.9344 12
      vertex 28.8231 11.4119 12
    endloop
  endfacet
  facet normal 0 0 1
    outer loop
      vertex 29.7944 16.3796 12
      vertex 25.22 18 12
      vertex 27.1655 14.9344 12
    endloop
  endfacet
  facet normal 0 0 1
    outer loop
      vertex 24.7849 23.2746 12
      vertex 25.22 18 12
      vertex 27.5066 19.9847 12
    endloop
  endfacet
  facet normal 0 0 1
    outer loop
      vertex 24.7849 23.2746 12
      vertex 24 18 12
      vertex 25.22 18 12
    endloop
  endfacet
  facet normal 0 0 1
    outer loop
      vertex 24.7849 23.2746 12
      vertex 18 24 12
      vertex 24 18 12
    endloop
  endfacet
  facet normal 0 0 1
    outer loop
      vertex 18 18 12
      vertex 24 18 12
      vertex 18 24 12
    endloop
  endfacet
  facet normal 0 0 1
    outer loop
      vertex 21.6724 26.1974 12
      vertex 18 24 12
      vertex 24.7849 23.2746 12
    endloop
  endfacet
  facet normal 0 0 1
    outer loop
      vertex 18 24 12
      vertex 21.6724 26.1974 12
      vertex 18 25.1647 12
    endloop
  endfacet
  facet normal 0 0 1
    outer loop
      vertex 33.7319 -4.26133 12
      vertex 30.7556 -3.88533 12
      vertex 32.9318 -8.45546 12
    endloop
  endfacet
  facet normal -0 0 1
    outer loop
      vertex 30.0261 -7.70939 12
      vertex 32.9318 -8.45546 12
      vertex 30.7556 -3.88533 12
    endloop
  endfacet
  facet normal 0 0 1
    outer loop
      vertex 32.9318 -8.45546 12
      vertex 30.0261 -7.70939 12
      vertex 31.6124 -12.5162 12
    endloop
  endfacet
  facet normal -0 0 1
    outer loop
      vertex 28.8231 -11.4119 12
      vertex 31.6124 -12.5162 12
      vertex 30.0261 -7.70939 12
    endloop
  endfacet
  facet normal 0 0 1
    outer loop
      vertex 31.6124 -12.5162 12
      vertex 28.8231 -11.4119 12
      vertex 29.7944 -16.3796 12
    endloop
  endfacet
  facet normal -0 0 1
    outer loop
      vertex 27.1655 -14.9344 12
      vertex 29.7944 -16.3796 12
      vertex 28.8231 -11.4119 12
    endloop
  endfacet
  facet normal 0 0 1
    outer loop
      vertex 25.22 -18 12
      vertex 29.7944 -16.3796 12
      vertex 27.1655 -14.9344 12
    endloop
  endfacet
  facet normal 0 0 1
    outer loop
      vertex 29.7944 -16.3796 12
      vertex 25.22 -18 12
      vertex 27.5066 -19.9847 12
    endloop
  endfacet
  facet normal 0 0 1
    outer loop
      vertex 25.22 -18 12
      vertex 24.7849 -23.2746 12
      vertex 27.5066 -19.9847 12
    endloop
  endfacet
  facet normal -0 0 1
    outer loop
      vertex 24 -18 12
      vertex 24.7849 -23.2746 12
      vertex 25.22 -18 12
    endloop
  endfacet
  facet normal 0 0 1
    outer loop
      vertex 24 -18 12
      vertex 21.6724 -26.1974 12
      vertex 24.7849 -23.2746 12
    endloop
  endfacet
  facet normal 0 0 1
    outer loop
      vertex 24 18 12
      vertex 18 18 12
      vertex 24 3 12
    endloop
  endfacet
  facet normal 0 0 1
    outer loop
      vertex 18 25.1647 12
      vertex 21.6724 26.1974 12
      vertex 18.2181 28.7071 12
    endloop
  endfacet
  facet normal 0 0 1
    outer loop
      vertex 24 -3 12
      vertex 18.2181 -28.7071 12
      vertex 24 -18 12
    endloop
  endfacet
  facet normal 0 0 1
    outer loop
      vertex 24 -18 12
      vertex 18.2181 -28.7071 12
      vertex 21.6724 -26.1974 12
    endloop
  endfacet
  facet normal 0 0 1
    outer loop
      vertex 18.2181 28.7071 12
      vertex 16.6106 26.1742 12
      vertex 18 25.1647 12
    endloop
  endfacet
  facet normal 0 0 1
    outer loop
      vertex 14.4765 30.7641 12
      vertex 16.6106 26.1742 12
      vertex 18.2181 28.7071 12
    endloop
  endfacet
  facet normal 0 0 1
    outer loop
      vertex 14.4765 30.7641 12
      vertex 13.1992 28.0496 12
      vertex 16.6106 26.1742 12
    endloop
  endfacet
  facet normal 0 0 1
    outer loop
      vertex 10.5066 32.3359 12
      vertex 13.1992 28.0496 12
      vertex 14.4765 30.7641 12
    endloop
  endfacet
  facet normal 0 0 1
    outer loop
      vertex 10.5066 32.3359 12
      vertex 9.57953 29.4828 12
      vertex 13.1992 28.0496 12
    endloop
  endfacet
  facet normal 0 0 1
    outer loop
      vertex 6.37096 33.3978 12
      vertex 9.57953 29.4828 12
      vertex 10.5066 32.3359 12
    endloop
  endfacet
  facet normal 0 0 1
    outer loop
      vertex 6.37096 33.3978 12
      vertex 5.80882 30.4509 12
      vertex 9.57953 29.4828 12
    endloop
  endfacet
  facet normal 0 0 1
    outer loop
      vertex 6.37096 33.3978 12
      vertex 3 30.8057 12
      vertex 5.80882 30.4509 12
    endloop
  endfacet
  facet normal 0 0 1
    outer loop
      vertex -3 30.8057 12
      vertex 3 30.8057 12
      vertex 2.13488 33.9329 12
    endloop
  endfacet
  facet normal 0 0 1
    outer loop
      vertex 3 30.8057 12
      vertex -3 30.8057 12
      vertex 3 24 12
    endloop
  endfacet
  facet normal 0 0 1
    outer loop
      vertex -3 24 12
      vertex 3 24 12
      vertex -3 30.8057 12
    endloop
  endfacet
  facet normal 0 0 1
    outer loop
      vertex 3 24 12
      vertex -3 24 12
      vertex 3 18 12
    endloop
  endfacet
  facet normal 0 0 1
    outer loop
      vertex -3 18 12
      vertex 3 18 12
      vertex -3 24 12
    endloop
  endfacet
  facet normal 0 0 1
    outer loop
      vertex 3 -3 12
      vertex 2.13488 -33.9329 12
      vertex 3 -18 12
    endloop
  endfacet
  facet normal 0 0 1
    outer loop
      vertex 3 -18 12
      vertex 2.13488 -33.9329 12
      vertex 3 -24 12
    endloop
  endfacet
  facet normal 0 0 1
    outer loop
      vertex 2.13488 33.9329 12
      vertex 3 30.8057 12
      vertex 6.37096 33.3978 12
    endloop
  endfacet
  facet normal -0.24869 0.968583 0
    outer loop
      vertex -6.37096 33.3978 0
      vertex -10.5066 32.3359 12
      vertex -6.37096 33.3978 12
    endloop
  endfacet
  facet normal -0.24869 0.968583 0
    outer loop
      vertex -10.5066 32.3359 12
      vertex -6.37096 33.3978 0
      vertex -10.5066 32.3359 0
    endloop
  endfacet
  facet normal 0.982287 -0.187381 0
    outer loop
      vertex 32.9318 -8.45546 12
      vertex 33.7319 -4.26133 0
      vertex 33.7319 -4.26133 12
    endloop
  endfacet
  facet normal 0.982287 -0.187381 0
    outer loop
      vertex 33.7319 -4.26133 0
      vertex 32.9318 -8.45546 12
      vertex 32.9318 -8.45546 0
    endloop
  endfacet
  facet normal 0 0 -1
    outer loop
      vertex 31 0 0
      vertex 34 0 0
      vertex 33.7319 -4.26133 0
    endloop
  endfacet
  facet normal 0 0 -1
    outer loop
      vertex 30.7556 -3.88533 0
      vertex 33.7319 -4.26133 0
      vertex 32.9318 -8.45546 0
    endloop
  endfacet
  facet normal 0 0 -1
    outer loop
      vertex 34 0 0
      vertex 31 0 0
      vertex 33.7319 4.26133 0
    endloop
  endfacet
  facet normal 0 0 -1
    outer loop
      vertex 30.0261 -7.70939 0
      vertex 32.9318 -8.45546 0
      vertex 31.6124 -12.5162 0
    endloop
  endfacet
  facet normal 0 0 -1
    outer loop
      vertex 30.7556 3.88533 0
      vertex 33.7319 4.26133 0
      vertex 31 0 0
    endloop
  endfacet
  facet normal -0 0 -1
    outer loop
      vertex 33.7319 4.26133 0
      vertex 30.7556 3.88533 0
      vertex 32.9318 8.45546 0
    endloop
  endfacet
  facet normal 0 0 -1
    outer loop
      vertex 33.7319 -4.26133 0
      vertex 30.7556 -3.88533 0
      vertex 31 0 0
    endloop
  endfacet
  facet normal 0 0 -1
    outer loop
      vertex 32.9318 -8.45546 0
      vertex 30.0261 -7.70939 0
      vertex 30.7556 -3.88533 0
    endloop
  endfacet
  facet normal 0 0 -1
    outer loop
      vertex 28.8231 -11.4119 0
      vertex 31.6124 -12.5162 0
      vertex 29.7944 -16.3796 0
    endloop
  endfacet
  facet normal 0 0 -1
    outer loop
      vertex 31.6124 -12.5162 0
      vertex 28.8231 -11.4119 0
      vertex 30.0261 -7.70939 0
    endloop
  endfacet
  facet normal 0 0 -1
    outer loop
      vertex 27.1655 -14.9344 0
      vertex 29.7944 -16.3796 0
      vertex 27.5066 -19.9847 0
    endloop
  endfacet
  facet normal 0 0 -1
    outer loop
      vertex 29.7944 -16.3796 0
      vertex 27.1655 -14.9344 0
      vertex 28.8231 -11.4119 0
    endloop
  endfacet
  facet normal 0 0 -1
    outer loop
      vertex 27.5066 -19.9847 0
      vertex 25.0795 -18.2213 0
      vertex 27.1655 -14.9344 0
    endloop
  endfacet
  facet normal 0 0 -1
    outer loop
      vertex 24.7849 -23.2746 0
      vertex 25.0795 -18.2213 0
      vertex 27.5066 -19.9847 0
    endloop
  endfacet
  facet normal 0 0 -1
    outer loop
      vertex 24.7849 -23.2746 0
      vertex 22.598 -21.221 0
      vertex 25.0795 -18.2213 0
    endloop
  endfacet
  facet normal 0 0 -1
    outer loop
      vertex 21.6724 -26.1974 0
      vertex 22.598 -21.221 0
      vertex 24.7849 -23.2746 0
    endloop
  endfacet
  facet normal 0 0 -1
    outer loop
      vertex 21.6724 -26.1974 0
      vertex 19.7601 -23.8859 0
      vertex 22.598 -21.221 0
    endloop
  endfacet
  facet normal 0 0 -1
    outer loop
      vertex 18.2181 -28.7071 0
      vertex 19.7601 -23.8859 0
      vertex 21.6724 -26.1974 0
    endloop
  endfacet
  facet normal 0 0 -1
    outer loop
      vertex 18.2181 -28.7071 0
      vertex 16.6106 -26.1742 0
      vertex 19.7601 -23.8859 0
    endloop
  endfacet
  facet normal 0 0 -1
    outer loop
      vertex 14.4765 -30.7641 0
      vertex 16.6106 -26.1742 0
      vertex 18.2181 -28.7071 0
    endloop
  endfacet
  facet normal 0 0 -1
    outer loop
      vertex 14.4765 -30.7641 0
      vertex 13.1992 -28.0496 0
      vertex 16.6106 -26.1742 0
    endloop
  endfacet
  facet normal 0 0 -1
    outer loop
      vertex 10.5066 -32.3359 0
      vertex 13.1992 -28.0496 0
      vertex 14.4765 -30.7641 0
    endloop
  endfacet
  facet normal 0 0 -1
    outer loop
      vertex 10.5066 -32.3359 0
      vertex 9.57953 -29.4828 0
      vertex 13.1992 -28.0496 0
    endloop
  endfacet
  facet normal 0 0 -1
    outer loop
      vertex 6.37096 -33.3978 0
      vertex 9.57953 -29.4828 0
      vertex 10.5066 -32.3359 0
    endloop
  endfacet
  facet normal 0 0 -1
    outer loop
      vertex 6.37096 -33.3978 0
      vertex 5.80882 -30.4509 0
      vertex 9.57953 -29.4828 0
    endloop
  endfacet
  facet normal 0 0 -1
    outer loop
      vertex 2.13488 -33.9329 0
      vertex 5.80882 -30.4509 0
      vertex 6.37096 -33.3978 0
    endloop
  endfacet
  facet normal 0 0 -1
    outer loop
      vertex 2.13488 -33.9329 0
      vertex 1.94651 -30.9388 0
      vertex 5.80882 -30.4509 0
    endloop
  endfacet
  facet normal 0 0 -1
    outer loop
      vertex 2.13488 -33.9329 0
      vertex -1.94651 -30.9388 0
      vertex 1.94651 -30.9388 0
    endloop
  endfacet
  facet normal 0 0 -1
    outer loop
      vertex -2.13488 -33.9329 0
      vertex -1.94651 -30.9388 0
      vertex 2.13488 -33.9329 0
    endloop
  endfacet
  facet normal 0 0 -1
    outer loop
      vertex -2.13488 -33.9329 0
      vertex -5.80882 -30.4509 0
      vertex -1.94651 -30.9388 0
    endloop
  endfacet
  facet normal 0 0 -1
    outer loop
      vertex -6.37096 -33.3978 0
      vertex -5.80882 -30.4509 0
      vertex -2.13488 -33.9329 0
    endloop
  endfacet
  facet normal 0 0 -1
    outer loop
      vertex -6.37096 -33.3978 0
      vertex -9.57953 -29.4828 0
      vertex -5.80882 -30.4509 0
    endloop
  endfacet
  facet normal 0 0 -1
    outer loop
      vertex -10.5066 -32.3359 0
      vertex -9.57953 -29.4828 0
      vertex -6.37096 -33.3978 0
    endloop
  endfacet
  facet normal 0 0 -1
    outer loop
      vertex -10.5066 -32.3359 0
      vertex -13.1992 -28.0496 0
      vertex -9.57953 -29.4828 0
    endloop
  endfacet
  facet normal 0 0 -1
    outer loop
      vertex -14.4765 -30.7641 0
      vertex -13.1992 -28.0496 0
      vertex -10.5066 -32.3359 0
    endloop
  endfacet
  facet normal 0 0 -1
    outer loop
      vertex -14.4765 -30.7641 0
      vertex -16.6106 -26.1742 0
      vertex -13.1992 -28.0496 0
    endloop
  endfacet
  facet normal 0 0 -1
    outer loop
      vertex -18.2181 -28.7071 0
      vertex -16.6106 -26.1742 0
      vertex -14.4765 -30.7641 0
    endloop
  endfacet
  facet normal 0 0 -1
    outer loop
      vertex -18.2181 -28.7071 0
      vertex -19.7601 -23.8859 0
      vertex -16.6106 -26.1742 0
    endloop
  endfacet
  facet normal 0 0 -1
    outer loop
      vertex -21.6724 -26.1974 0
      vertex -19.7601 -23.8859 0
      vertex -18.2181 -28.7071 0
    endloop
  endfacet
  facet normal 0 0 -1
    outer loop
      vertex -21.6724 -26.1974 0
      vertex -22.598 -21.221 0
      vertex -19.7601 -23.8859 0
    endloop
  endfacet
  facet normal 0 0 -1
    outer loop
      vertex -24.7849 -23.2746 0
      vertex -22.598 -21.221 0
      vertex -21.6724 -26.1974 0
    endloop
  endfacet
  facet normal 0 0 -1
    outer loop
      vertex -24.7849 -23.2746 0
      vertex -25.0795 -18.2213 0
      vertex -22.598 -21.221 0
    endloop
  endfacet
  facet normal 0 0 -1
    outer loop
      vertex -27.5066 -19.9847 0
      vertex -25.0795 -18.2213 0
      vertex -24.7849 -23.2746 0
    endloop
  endfacet
  facet normal -0 0 -1
    outer loop
      vertex -25.0795 -18.2213 0
      vertex -27.5066 -19.9847 0
      vertex -27.1655 -14.9344 0
    endloop
  endfacet
  facet normal 0 0 -1
    outer loop
      vertex -29.7944 -16.3796 0
      vertex -27.1655 -14.9344 0
      vertex -27.5066 -19.9847 0
    endloop
  endfacet
  facet normal -0 0 -1
    outer loop
      vertex -27.1655 -14.9344 0
      vertex -29.7944 -16.3796 0
      vertex -28.8231 -11.4119 0
    endloop
  endfacet
  facet normal 0 0 -1
    outer loop
      vertex -31.6124 -12.5162 0
      vertex -28.8231 -11.4119 0
      vertex -29.7944 -16.3796 0
    endloop
  endfacet
  facet normal -0 0 -1
    outer loop
      vertex -28.8231 -11.4119 0
      vertex -31.6124 -12.5162 0
      vertex -30.0261 -7.70939 0
    endloop
  endfacet
  facet normal -0 0 -1
    outer loop
      vertex -30.0261 -7.70939 0
      vertex -32.9318 -8.45546 0
      vertex -30.7556 -3.88533 0
    endloop
  endfacet
  facet normal 0 0 -1
    outer loop
      vertex -32.9318 -8.45546 0
      vertex -30.0261 -7.70939 0
      vertex -31.6124 -12.5162 0
    endloop
  endfacet
  facet normal 0 0 -1
    outer loop
      vertex 30.0261 7.70939 0
      vertex 32.9318 8.45546 0
      vertex 30.7556 3.88533 0
    endloop
  endfacet
  facet normal -0 0 -1
    outer loop
      vertex 32.9318 8.45546 0
      vertex 30.0261 7.70939 0
      vertex 31.6124 12.5162 0
    endloop
  endfacet
  facet normal 0 0 -1
    outer loop
      vertex 28.8231 11.4119 0
      vertex 31.6124 12.5162 0
      vertex 30.0261 7.70939 0
    endloop
  endfacet
  facet normal -0 0 -1
    outer loop
      vertex 31.6124 12.5162 0
      vertex 28.8231 11.4119 0
      vertex 29.7944 16.3796 0
    endloop
  endfacet
  facet normal 0 0 -1
    outer loop
      vertex 27.1655 14.9344 0
      vertex 29.7944 16.3796 0
      vertex 28.8231 11.4119 0
    endloop
  endfacet
  facet normal -0 0 -1
    outer loop
      vertex 29.7944 16.3796 0
      vertex 27.1655 14.9344 0
      vertex 27.5066 19.9847 0
    endloop
  endfacet
  facet normal 0 0 -1
    outer loop
      vertex 25.0795 18.2213 0
      vertex 27.5066 19.9847 0
      vertex 27.1655 14.9344 0
    endloop
  endfacet
  facet normal 0 0 -1
    outer loop
      vertex 25.0795 18.2213 0
      vertex 24.7849 23.2746 0
      vertex 27.5066 19.9847 0
    endloop
  endfacet
  facet normal 0 0 -1
    outer loop
      vertex 22.598 21.221 0
      vertex 24.7849 23.2746 0
      vertex 25.0795 18.2213 0
    endloop
  endfacet
  facet normal 0 0 -1
    outer loop
      vertex 22.598 21.221 0
      vertex 21.6724 26.1974 0
      vertex 24.7849 23.2746 0
    endloop
  endfacet
  facet normal 0 0 -1
    outer loop
      vertex 19.7601 23.8859 0
      vertex 21.6724 26.1974 0
      vertex 22.598 21.221 0
    endloop
  endfacet
  facet normal 0 0 -1
    outer loop
      vertex 19.7601 23.8859 0
      vertex 18.2181 28.7071 0
      vertex 21.6724 26.1974 0
    endloop
  endfacet
  facet normal 0 0 -1
    outer loop
      vertex 16.6106 26.1742 0
      vertex 18.2181 28.7071 0
      vertex 19.7601 23.8859 0
    endloop
  endfacet
  facet normal 0 0 -1
    outer loop
      vertex 16.6106 26.1742 0
      vertex 14.4765 30.7641 0
      vertex 18.2181 28.7071 0
    endloop
  endfacet
  facet normal 0 0 -1
    outer loop
      vertex 13.1992 28.0496 0
      vertex 14.4765 30.7641 0
      vertex 16.6106 26.1742 0
    endloop
  endfacet
  facet normal 0 0 -1
    outer loop
      vertex 13.1992 28.0496 0
      vertex 10.5066 32.3359 0
      vertex 14.4765 30.7641 0
    endloop
  endfacet
  facet normal 0 0 -1
    outer loop
      vertex 9.57953 29.4828 0
      vertex 10.5066 32.3359 0
      vertex 13.1992 28.0496 0
    endloop
  endfacet
  facet normal 0 0 -1
    outer loop
      vertex 9.57953 29.4828 0
      vertex 6.37096 33.3978 0
      vertex 10.5066 32.3359 0
    endloop
  endfacet
  facet normal 0 0 -1
    outer loop
      vertex 5.80882 30.4509 0
      vertex 6.37096 33.3978 0
      vertex 9.57953 29.4828 0
    endloop
  endfacet
  facet normal 0 0 -1
    outer loop
      vertex 5.80882 30.4509 0
      vertex 2.13488 33.9329 0
      vertex 6.37096 33.3978 0
    endloop
  endfacet
  facet normal 0 0 -1
    outer loop
      vertex 1.94651 30.9388 0
      vertex 2.13488 33.9329 0
      vertex 5.80882 30.4509 0
    endloop
  endfacet
  facet normal 0 0 -1
    outer loop
      vertex -1.94651 30.9388 0
      vertex 2.13488 33.9329 0
      vertex 1.94651 30.9388 0
    endloop
  endfacet
  facet normal 0 0 -1
    outer loop
      vertex -1.94651 30.9388 0
      vertex -2.13488 33.9329 0
      vertex 2.13488 33.9329 0
    endloop
  endfacet
  facet normal 0 0 -1
    outer loop
      vertex -5.80882 30.4509 0
      vertex -2.13488 33.9329 0
      vertex -1.94651 30.9388 0
    endloop
  endfacet
  facet normal 0 0 -1
    outer loop
      vertex -5.80882 30.4509 0
      vertex -6.37096 33.3978 0
      vertex -2.13488 33.9329 0
    endloop
  endfacet
  facet normal 0 0 -1
    outer loop
      vertex -9.57953 29.4828 0
      vertex -6.37096 33.3978 0
      vertex -5.80882 30.4509 0
    endloop
  endfacet
  facet normal 0 0 -1
    outer loop
      vertex -9.57953 29.4828 0
      vertex -10.5066 32.3359 0
      vertex -6.37096 33.3978 0
    endloop
  endfacet
  facet normal 0 0 -1
    outer loop
      vertex -13.1992 28.0496 0
      vertex -10.5066 32.3359 0
      vertex -9.57953 29.4828 0
    endloop
  endfacet
  facet normal 0 0 -1
    outer loop
      vertex -13.1992 28.0496 0
      vertex -14.4765 30.7641 0
      vertex -10.5066 32.3359 0
    endloop
  endfacet
  facet normal 0 0 -1
    outer loop
      vertex -16.6106 26.1742 0
      vertex -14.4765 30.7641 0
      vertex -13.1992 28.0496 0
    endloop
  endfacet
  facet normal 0 0 -1
    outer loop
      vertex -16.6106 26.1742 0
      vertex -18.2181 28.7071 0
      vertex -14.4765 30.7641 0
    endloop
  endfacet
  facet normal 0 0 -1
    outer loop
      vertex -19.7601 23.8859 0
      vertex -18.2181 28.7071 0
      vertex -16.6106 26.1742 0
    endloop
  endfacet
  facet normal 0 0 -1
    outer loop
      vertex -19.7601 23.8859 0
      vertex -21.6724 26.1974 0
      vertex -18.2181 28.7071 0
    endloop
  endfacet
  facet normal 0 0 -1
    outer loop
      vertex -22.598 21.221 0
      vertex -21.6724 26.1974 0
      vertex -19.7601 23.8859 0
    endloop
  endfacet
  facet normal 0 0 -1
    outer loop
      vertex -22.598 21.221 0
      vertex -24.7849 23.2746 0
      vertex -21.6724 26.1974 0
    endloop
  endfacet
  facet normal 0 0 -1
    outer loop
      vertex -25.0795 18.2213 0
      vertex -24.7849 23.2746 0
      vertex -22.598 21.221 0
    endloop
  endfacet
  facet normal 0 0 -1
    outer loop
      vertex -27.5066 19.9847 0
      vertex -25.0795 18.2213 0
      vertex -27.1655 14.9344 0
    endloop
  endfacet
  facet normal 0 0 -1
    outer loop
      vertex -25.0795 18.2213 0
      vertex -27.5066 19.9847 0
      vertex -24.7849 23.2746 0
    endloop
  endfacet
  facet normal 0 0 -1
    outer loop
      vertex -29.7944 16.3796 0
      vertex -27.1655 14.9344 0
      vertex -28.8231 11.4119 0
    endloop
  endfacet
  facet normal 0 0 -1
    outer loop
      vertex -27.1655 14.9344 0
      vertex -29.7944 16.3796 0
      vertex -27.5066 19.9847 0
    endloop
  endfacet
  facet normal 0 0 -1
    outer loop
      vertex -31.6124 12.5162 0
      vertex -28.8231 11.4119 0
      vertex -30.0261 7.70939 0
    endloop
  endfacet
  facet normal 0 0 -1
    outer loop
      vertex -32.9318 8.45546 0
      vertex -30.0261 7.70939 0
      vertex -30.7556 3.88533 0
    endloop
  endfacet
  facet normal 0 0 -1
    outer loop
      vertex -28.8231 11.4119 0
      vertex -31.6124 12.5162 0
      vertex -29.7944 16.3796 0
    endloop
  endfacet
  facet normal 0 0 -1
    outer loop
      vertex -33.7319 4.26133 0
      vertex -30.7556 3.88533 0
      vertex -31 0 0
    endloop
  endfacet
  facet normal 0 0 -1
    outer loop
      vertex -33.7319 -4.26133 0
      vertex -30.7556 -3.88533 0
      vertex -32.9318 -8.45546 0
    endloop
  endfacet
  facet normal -0 0 -1
    outer loop
      vertex -30.7556 -3.88533 0
      vertex -33.7319 -4.26133 0
      vertex -31 0 0
    endloop
  endfacet
  facet normal 0 0 -1
    outer loop
      vertex -30.0261 7.70939 0
      vertex -32.9318 8.45546 0
      vertex -31.6124 12.5162 0
    endloop
  endfacet
  facet normal 0 0 -1
    outer loop
      vertex -34 0 0
      vertex -31 0 0
      vertex -33.7319 -4.26133 0
    endloop
  endfacet
  facet normal 0 0 -1
    outer loop
      vertex -30.7556 3.88533 0
      vertex -33.7319 4.26133 0
      vertex -32.9318 8.45546 0
    endloop
  endfacet
  facet normal 0 0 -1
    outer loop
      vertex -31 0 0
      vertex -34 0 0
      vertex -33.7319 4.26133 0
    endloop
  endfacet
  facet normal 0.125333 -0.992115 0
    outer loop
      vertex 2.13488 -33.9329 0
      vertex 6.37096 -33.3978 12
      vertex 2.13488 -33.9329 12
    endloop
  endfacet
  facet normal 0.125333 -0.992115 0
    outer loop
      vertex 6.37096 -33.3978 12
      vertex 2.13488 -33.9329 0
      vertex 6.37096 -33.3978 0
    endloop
  endfacet
  facet normal 0.951056 0.309017 0
    outer loop
      vertex 32.9318 8.45546 12
      vertex 31.6124 12.5162 0
      vertex 31.6124 12.5162 12
    endloop
  endfacet
  facet normal 0.951056 0.309017 0
    outer loop
      vertex 31.6124 12.5162 0
      vertex 32.9318 8.45546 12
      vertex 32.9318 8.45546 0
    endloop
  endfacet
  facet normal 0.982287 0.187381 0
    outer loop
      vertex 33.7319 4.26133 12
      vertex 32.9318 8.45546 0
      vertex 32.9318 8.45546 12
    endloop
  endfacet
  facet normal 0.982287 0.187381 0
    outer loop
      vertex 32.9318 8.45546 0
      vertex 33.7319 4.26133 12
      vertex 33.7319 4.26133 0
    endloop
  endfacet
  facet normal 0.770513 0.637424 0
    outer loop
      vertex 27.5066 19.9847 12
      vertex 24.7849 23.2746 0
      vertex 24.7849 23.2746 12
    endloop
  endfacet
  facet normal 0.770513 0.637424 0
    outer loop
      vertex 24.7849 23.2746 0
      vertex 27.5066 19.9847 12
      vertex 27.5066 19.9847 0
    endloop
  endfacet
  facet normal 0.844328 0.535827 0
    outer loop
      vertex 29.7944 16.3796 12
      vertex 27.5066 19.9847 0
      vertex 27.5066 19.9847 12
    endloop
  endfacet
  facet normal 0.844328 0.535827 0
    outer loop
      vertex 27.5066 19.9847 0
      vertex 29.7944 16.3796 12
      vertex 29.7944 16.3796 0
    endloop
  endfacet
  facet normal 0.125333 0.992115 -0
    outer loop
      vertex 6.37096 33.3978 0
      vertex 2.13488 33.9329 12
      vertex 6.37096 33.3978 12
    endloop
  endfacet
  facet normal 0.125333 0.992115 0
    outer loop
      vertex 2.13488 33.9329 12
      vertex 6.37096 33.3978 0
      vertex 2.13488 33.9329 0
    endloop
  endfacet
  facet normal 0.587785 0.809017 -0
    outer loop
      vertex 21.6724 26.1974 0
      vertex 18.2181 28.7071 12
      vertex 21.6724 26.1974 12
    endloop
  endfacet
  facet normal 0.587785 0.809017 0
    outer loop
      vertex 18.2181 28.7071 12
      vertex 21.6724 26.1974 0
      vertex 18.2181 28.7071 0
    endloop
  endfacet
  facet normal -0.844328 0.535827 0
    outer loop
      vertex -29.7944 16.3796 0
      vertex -27.5066 19.9847 12
      vertex -27.5066 19.9847 0
    endloop
  endfacet
  facet normal -0.844328 0.535827 0
    outer loop
      vertex -27.5066 19.9847 12
      vertex -29.7944 16.3796 0
      vertex -29.7944 16.3796 12
    endloop
  endfacet
  facet normal -0.951056 0.309017 0
    outer loop
      vertex -32.9318 8.45546 0
      vertex -31.6124 12.5162 12
      vertex -31.6124 12.5162 0
    endloop
  endfacet
  facet normal -0.951056 0.309017 0
    outer loop
      vertex -31.6124 12.5162 12
      vertex -32.9318 8.45546 0
      vertex -32.9318 8.45546 12
    endloop
  endfacet
  facet normal -0.982287 0.187381 0
    outer loop
      vertex -33.7319 4.26133 0
      vertex -32.9318 8.45546 12
      vertex -32.9318 8.45546 0
    endloop
  endfacet
  facet normal -0.982287 0.187381 0
    outer loop
      vertex -32.9318 8.45546 12
      vertex -33.7319 4.26133 0
      vertex -33.7319 4.26133 12
    endloop
  endfacet
  facet normal -0.481754 0.876307 0
    outer loop
      vertex -14.4765 30.7641 0
      vertex -18.2181 28.7071 12
      vertex -14.4765 30.7641 12
    endloop
  endfacet
  facet normal -0.481754 0.876307 0
    outer loop
      vertex -18.2181 28.7071 12
      vertex -14.4765 30.7641 0
      vertex -18.2181 28.7071 0
    endloop
  endfacet
  facet normal -0.587785 0.809017 0
    outer loop
      vertex -18.2181 28.7071 0
      vertex -21.6724 26.1974 12
      vertex -18.2181 28.7071 12
    endloop
  endfacet
  facet normal -0.587785 0.809017 0
    outer loop
      vertex -21.6724 26.1974 12
      vertex -18.2181 28.7071 0
      vertex -21.6724 26.1974 0
    endloop
  endfacet
  facet normal -0.125333 0.992115 0
    outer loop
      vertex -2.13488 33.9329 0
      vertex -6.37096 33.3978 12
      vertex -2.13488 33.9329 12
    endloop
  endfacet
  facet normal -0.125333 0.992115 0
    outer loop
      vertex -6.37096 33.3978 12
      vertex -2.13488 33.9329 0
      vertex -6.37096 33.3978 0
    endloop
  endfacet
  facet normal 0.998027 -0.0627907 0
    outer loop
      vertex 33.7319 -4.26133 12
      vertex 34 0 0
      vertex 34 0 12
    endloop
  endfacet
  facet normal 0.998027 -0.0627907 0
    outer loop
      vertex 34 0 0
      vertex 33.7319 -4.26133 12
      vertex 33.7319 -4.26133 0
    endloop
  endfacet
  facet normal 0.770513 -0.637424 0
    outer loop
      vertex 24.7849 -23.2746 12
      vertex 27.5066 -19.9847 0
      vertex 27.5066 -19.9847 12
    endloop
  endfacet
  facet normal 0.770513 -0.637424 0
    outer loop
      vertex 27.5066 -19.9847 0
      vertex 24.7849 -23.2746 12
      vertex 24.7849 -23.2746 0
    endloop
  endfacet
  facet normal 0.951056 -0.309017 0
    outer loop
      vertex 31.6124 -12.5162 12
      vertex 32.9318 -8.45546 0
      vertex 32.9318 -8.45546 12
    endloop
  endfacet
  facet normal 0.951056 -0.309017 0
    outer loop
      vertex 32.9318 -8.45546 0
      vertex 31.6124 -12.5162 12
      vertex 31.6124 -12.5162 0
    endloop
  endfacet
  facet normal -0.684547 -0.728969 0
    outer loop
      vertex -24.7849 -23.2746 0
      vertex -21.6724 -26.1974 12
      vertex -24.7849 -23.2746 12
    endloop
  endfacet
  facet normal -0.684547 -0.728969 -0
    outer loop
      vertex -21.6724 -26.1974 12
      vertex -24.7849 -23.2746 0
      vertex -21.6724 -26.1974 0
    endloop
  endfacet
  facet normal -0.904827 -0.42578 0
    outer loop
      vertex -29.7944 -16.3796 0
      vertex -31.6124 -12.5162 12
      vertex -31.6124 -12.5162 0
    endloop
  endfacet
  facet normal -0.904827 -0.42578 0
    outer loop
      vertex -31.6124 -12.5162 12
      vertex -29.7944 -16.3796 0
      vertex -29.7944 -16.3796 12
    endloop
  endfacet
  facet normal -0.770513 -0.637424 0
    outer loop
      vertex -24.7849 -23.2746 0
      vertex -27.5066 -19.9847 12
      vertex -27.5066 -19.9847 0
    endloop
  endfacet
  facet normal -0.770513 -0.637424 0
    outer loop
      vertex -27.5066 -19.9847 12
      vertex -24.7849 -23.2746 0
      vertex -24.7849 -23.2746 12
    endloop
  endfacet
  facet normal 0.481754 -0.876307 0
    outer loop
      vertex 14.4765 -30.7641 0
      vertex 18.2181 -28.7071 12
      vertex 14.4765 -30.7641 12
    endloop
  endfacet
  facet normal 0.481754 -0.876307 0
    outer loop
      vertex 18.2181 -28.7071 12
      vertex 14.4765 -30.7641 0
      vertex 18.2181 -28.7071 0
    endloop
  endfacet
  facet normal 0.684547 -0.728969 0
    outer loop
      vertex 21.6724 -26.1974 0
      vertex 24.7849 -23.2746 12
      vertex 21.6724 -26.1974 12
    endloop
  endfacet
  facet normal 0.684547 -0.728969 0
    outer loop
      vertex 24.7849 -23.2746 12
      vertex 21.6724 -26.1974 0
      vertex 24.7849 -23.2746 0
    endloop
  endfacet
  facet normal 0.844328 -0.535827 0
    outer loop
      vertex 27.5066 -19.9847 12
      vertex 29.7944 -16.3796 0
      vertex 29.7944 -16.3796 12
    endloop
  endfacet
  facet normal 0.844328 -0.535827 0
    outer loop
      vertex 29.7944 -16.3796 0
      vertex 27.5066 -19.9847 12
      vertex 27.5066 -19.9847 0
    endloop
  endfacet
  facet normal -0.24869 -0.968583 0
    outer loop
      vertex -10.5066 -32.3359 0
      vertex -6.37096 -33.3978 12
      vertex -10.5066 -32.3359 12
    endloop
  endfacet
  facet normal -0.24869 -0.968583 -0
    outer loop
      vertex -6.37096 -33.3978 12
      vertex -10.5066 -32.3359 0
      vertex -6.37096 -33.3978 0
    endloop
  endfacet
  facet normal -0.982287 -0.187381 0
    outer loop
      vertex -32.9318 -8.45546 0
      vertex -33.7319 -4.26133 12
      vertex -33.7319 -4.26133 0
    endloop
  endfacet
  facet normal -0.982287 -0.187381 0
    outer loop
      vertex -33.7319 -4.26133 12
      vertex -32.9318 -8.45546 0
      vertex -32.9318 -8.45546 12
    endloop
  endfacet
  facet normal -0.998027 -0.0627907 0
    outer loop
      vertex -33.7319 -4.26133 0
      vertex -34 0 12
      vertex -34 0 0
    endloop
  endfacet
  facet normal -0.998027 -0.0627907 0
    outer loop
      vertex -34 0 12
      vertex -33.7319 -4.26133 0
      vertex -33.7319 -4.26133 12
    endloop
  endfacet
  facet normal -0.951056 -0.309017 0
    outer loop
      vertex -31.6124 -12.5162 0
      vertex -32.9318 -8.45546 12
      vertex -32.9318 -8.45546 0
    endloop
  endfacet
  facet normal -0.951056 -0.309017 0
    outer loop
      vertex -32.9318 -8.45546 12
      vertex -31.6124 -12.5162 0
      vertex -31.6124 -12.5162 12
    endloop
  endfacet
  facet normal 0.368125 -0.929776 0
    outer loop
      vertex 10.5066 -32.3359 0
      vertex 14.4765 -30.7641 12
      vertex 10.5066 -32.3359 12
    endloop
  endfacet
  facet normal 0.368125 -0.929776 0
    outer loop
      vertex 14.4765 -30.7641 12
      vertex 10.5066 -32.3359 0
      vertex 14.4765 -30.7641 0
    endloop
  endfacet
  facet normal 0.24869 -0.968583 0
    outer loop
      vertex 6.37096 -33.3978 0
      vertex 10.5066 -32.3359 12
      vertex 6.37096 -33.3978 12
    endloop
  endfacet
  facet normal 0.24869 -0.968583 0
    outer loop
      vertex 10.5066 -32.3359 12
      vertex 6.37096 -33.3978 0
      vertex 10.5066 -32.3359 0
    endloop
  endfacet
  facet normal 0.904827 -0.42578 0
    outer loop
      vertex 29.7944 -16.3796 12
      vertex 31.6124 -12.5162 0
      vertex 31.6124 -12.5162 12
    endloop
  endfacet
  facet normal 0.904827 -0.42578 0
    outer loop
      vertex 31.6124 -12.5162 0
      vertex 29.7944 -16.3796 12
      vertex 29.7944 -16.3796 0
    endloop
  endfacet
  facet normal -0.125333 -0.992115 0
    outer loop
      vertex -6.37096 -33.3978 0
      vertex -2.13488 -33.9329 12
      vertex -6.37096 -33.3978 12
    endloop
  endfacet
  facet normal -0.125333 -0.992115 -0
    outer loop
      vertex -2.13488 -33.9329 12
      vertex -6.37096 -33.3978 0
      vertex -2.13488 -33.9329 0
    endloop
  endfacet
  facet normal -0.368125 -0.929776 0
    outer loop
      vertex -14.4765 -30.7641 0
      vertex -10.5066 -32.3359 12
      vertex -14.4765 -30.7641 12
    endloop
  endfacet
  facet normal -0.368125 -0.929776 -0
    outer loop
      vertex -10.5066 -32.3359 12
      vertex -14.4765 -30.7641 0
      vertex -10.5066 -32.3359 0
    endloop
  endfacet
  facet normal -0.844328 -0.535827 0
    outer loop
      vertex -27.5066 -19.9847 0
      vertex -29.7944 -16.3796 12
      vertex -29.7944 -16.3796 0
    endloop
  endfacet
  facet normal -0.844328 -0.535827 0
    outer loop
      vertex -29.7944 -16.3796 12
      vertex -27.5066 -19.9847 0
      vertex -27.5066 -19.9847 12
    endloop
  endfacet
  facet normal 0.587785 -0.809017 0
    outer loop
      vertex 18.2181 -28.7071 0
      vertex 21.6724 -26.1974 12
      vertex 18.2181 -28.7071 12
    endloop
  endfacet
  facet normal 0.587785 -0.809017 0
    outer loop
      vertex 21.6724 -26.1974 12
      vertex 18.2181 -28.7071 0
      vertex 21.6724 -26.1974 0
    endloop
  endfacet
  facet normal -0.481754 -0.876307 0
    outer loop
      vertex -18.2181 -28.7071 0
      vertex -14.4765 -30.7641 12
      vertex -18.2181 -28.7071 12
    endloop
  endfacet
  facet normal -0.481754 -0.876307 -0
    outer loop
      vertex -14.4765 -30.7641 12
      vertex -18.2181 -28.7071 0
      vertex -14.4765 -30.7641 0
    endloop
  endfacet
  facet normal -0.587785 -0.809017 0
    outer loop
      vertex -21.6724 -26.1974 0
      vertex -18.2181 -28.7071 12
      vertex -21.6724 -26.1974 12
    endloop
  endfacet
  facet normal -0.587785 -0.809017 -0
    outer loop
      vertex -18.2181 -28.7071 12
      vertex -21.6724 -26.1974 0
      vertex -18.2181 -28.7071 0
    endloop
  endfacet
  facet normal -0.904827 -0.425779 0
    outer loop
      vertex 28.8231 11.4119 0
      vertex 27.1655 14.9344 12
      vertex 27.1655 14.9344 0
    endloop
  endfacet
  facet normal -0.904827 -0.425779 0
    outer loop
      vertex 27.1655 14.9344 12
      vertex 28.8231 11.4119 0
      vertex 28.8231 11.4119 12
    endloop
  endfacet
  facet normal -0.844327 -0.535829 0
    outer loop
      vertex 25.0795 18.2213 0
      vertex 25.22 18 6
      vertex 25.0795 18.2213 6
    endloop
  endfacet
  facet normal -0.844328 -0.535827 7.79825e-08
    outer loop
      vertex 27.1655 14.9344 0
      vertex 25.22 18 6
      vertex 25.0795 18.2213 0
    endloop
  endfacet
  facet normal -0.844328 -0.535827 -0
    outer loop
      vertex 27.1655 14.9344 12
      vertex 25.22 18 6
      vertex 27.1655 14.9344 0
    endloop
  endfacet
  facet normal -0.844328 -0.535827 0
    outer loop
      vertex 25.22 18 6
      vertex 27.1655 14.9344 12
      vertex 25.22 18 12
    endloop
  endfacet
  facet normal -0.368125 -0.929776 0
    outer loop
      vertex 9.57953 29.4828 0
      vertex 13.1992 28.0496 12
      vertex 9.57953 29.4828 12
    endloop
  endfacet
  facet normal -0.368125 -0.929776 -0
    outer loop
      vertex 13.1992 28.0496 12
      vertex 9.57953 29.4828 0
      vertex 13.1992 28.0496 0
    endloop
  endfacet
  facet normal 0.368125 -0.929776 0
    outer loop
      vertex -13.1992 28.0496 0
      vertex -9.57953 29.4828 12
      vertex -13.1992 28.0496 12
    endloop
  endfacet
  facet normal 0.368125 -0.929776 0
    outer loop
      vertex -9.57953 29.4828 12
      vertex -13.1992 28.0496 0
      vertex -9.57953 29.4828 0
    endloop
  endfacet
  facet normal 0.904827 -0.425779 0
    outer loop
      vertex -28.8231 11.4119 12
      vertex -27.1655 14.9344 0
      vertex -27.1655 14.9344 12
    endloop
  endfacet
  facet normal 0.904827 -0.425779 0
    outer loop
      vertex -27.1655 14.9344 0
      vertex -28.8231 11.4119 12
      vertex -28.8231 11.4119 0
    endloop
  endfacet
  facet normal -0.998027 0.0627904 0
    outer loop
      vertex 31 0 0
      vertex 30.8113 -3 6
      vertex 31 0 6
    endloop
  endfacet
  facet normal -0.998027 0.0627909 2.66586e-07
    outer loop
      vertex 30.7556 -3.88533 0
      vertex 30.8113 -3 6
      vertex 31 0 0
    endloop
  endfacet
  facet normal -0.998027 0.0627927 0
    outer loop
      vertex 30.7556 -3.88533 12
      vertex 30.8113 -3 6
      vertex 30.7556 -3.88533 0
    endloop
  endfacet
  facet normal -0.998027 0.0627927 0
    outer loop
      vertex 30.8113 -3 6
      vertex 30.7556 -3.88533 12
      vertex 30.8113 -3 12
    endloop
  endfacet
  facet normal -0.684547 -0.728968 0
    outer loop
      vertex 19.7601 23.8859 0
      vertex 22.598 21.221 6
      vertex 19.7601 23.8859 6
    endloop
  endfacet
  facet normal -0.684547 -0.728968 -0
    outer loop
      vertex 22.598 21.221 6
      vertex 19.7601 23.8859 0
      vertex 22.598 21.221 0
    endloop
  endfacet
  facet normal 0 -1 0
    outer loop
      vertex -1.94651 30.9388 0
      vertex 1.94651 30.9388 6
      vertex -1.94651 30.9388 6
    endloop
  endfacet
  facet normal 0 -1 -0
    outer loop
      vertex 1.94651 30.9388 6
      vertex -1.94651 30.9388 0
      vertex 1.94651 30.9388 0
    endloop
  endfacet
  facet normal -0.481754 -0.876307 0
    outer loop
      vertex 13.1992 28.0496 0
      vertex 16.6106 26.1742 12
      vertex 13.1992 28.0496 12
    endloop
  endfacet
  facet normal -0.481754 -0.876307 -0
    outer loop
      vertex 16.6106 26.1742 12
      vertex 13.1992 28.0496 0
      vertex 16.6106 26.1742 0
    endloop
  endfacet
  facet normal 0.998027 -0.0627927 0
    outer loop
      vertex -30.8113 3 6
      vertex -30.7556 3.88533 12
      vertex -30.8113 3 12
    endloop
  endfacet
  facet normal 0.998027 -0.0627927 0
    outer loop
      vertex -30.7556 3.88533 12
      vertex -30.8113 3 6
      vertex -30.7556 3.88533 0
    endloop
  endfacet
  facet normal 0.998027 -0.0627904 0
    outer loop
      vertex -31 0 0
      vertex -30.8113 3 6
      vertex -31 0 6
    endloop
  endfacet
  facet normal 0.998027 -0.0627909 2.66586e-07
    outer loop
      vertex -30.8113 3 6
      vertex -31 0 0
      vertex -30.7556 3.88533 0
    endloop
  endfacet
  facet normal 0.770513 -0.637424 0
    outer loop
      vertex -25.0795 18.2213 6
      vertex -22.598 21.221 0
      vertex -22.598 21.221 6
    endloop
  endfacet
  facet normal 0.770513 -0.637424 0
    outer loop
      vertex -22.598 21.221 0
      vertex -25.0795 18.2213 6
      vertex -25.0795 18.2213 0
    endloop
  endfacet
  facet normal 0.24869 -0.968583 0
    outer loop
      vertex -9.57953 29.4828 0
      vertex -5.80882 30.4509 12
      vertex -9.57953 29.4828 12
    endloop
  endfacet
  facet normal 0.24869 -0.968583 0
    outer loop
      vertex -5.80882 30.4509 12
      vertex -9.57953 29.4828 0
      vertex -5.80882 30.4509 0
    endloop
  endfacet
  facet normal 0.684547 -0.728968 0
    outer loop
      vertex -22.598 21.221 0
      vertex -19.7601 23.8859 6
      vertex -22.598 21.221 6
    endloop
  endfacet
  facet normal 0.684547 -0.728968 0
    outer loop
      vertex -19.7601 23.8859 6
      vertex -22.598 21.221 0
      vertex -19.7601 23.8859 0
    endloop
  endfacet
  facet normal -0.904827 0.425779 0
    outer loop
      vertex 27.1655 -14.9344 0
      vertex 28.8231 -11.4119 12
      vertex 28.8231 -11.4119 0
    endloop
  endfacet
  facet normal -0.904827 0.425779 0
    outer loop
      vertex 28.8231 -11.4119 12
      vertex 27.1655 -14.9344 0
      vertex 27.1655 -14.9344 12
    endloop
  endfacet
  facet normal 0.684547 0.728968 -0
    outer loop
      vertex -19.7601 -23.8859 0
      vertex -22.598 -21.221 6
      vertex -19.7601 -23.8859 6
    endloop
  endfacet
  facet normal 0.684547 0.728968 0
    outer loop
      vertex -22.598 -21.221 6
      vertex -19.7601 -23.8859 0
      vertex -22.598 -21.221 0
    endloop
  endfacet
  facet normal 0.904827 0.425779 0
    outer loop
      vertex -27.1655 -14.9344 12
      vertex -28.8231 -11.4119 0
      vertex -28.8231 -11.4119 12
    endloop
  endfacet
  facet normal 0.904827 0.425779 0
    outer loop
      vertex -28.8231 -11.4119 0
      vertex -27.1655 -14.9344 12
      vertex -27.1655 -14.9344 0
    endloop
  endfacet
  facet normal -0.481754 0.876307 0
    outer loop
      vertex 16.6106 -26.1742 0
      vertex 13.1992 -28.0496 12
      vertex 16.6106 -26.1742 12
    endloop
  endfacet
  facet normal -0.481754 0.876307 0
    outer loop
      vertex 13.1992 -28.0496 12
      vertex 16.6106 -26.1742 0
      vertex 13.1992 -28.0496 0
    endloop
  endfacet
  facet normal -0.951057 -0.309017 0
    outer loop
      vertex 30.0261 7.70939 0
      vertex 28.8231 11.4119 12
      vertex 28.8231 11.4119 0
    endloop
  endfacet
  facet normal -0.951057 -0.309017 0
    outer loop
      vertex 28.8231 11.4119 12
      vertex 30.0261 7.70939 0
      vertex 30.0261 7.70939 12
    endloop
  endfacet
  facet normal -0.770513 -0.637424 0
    outer loop
      vertex 25.0795 18.2213 0
      vertex 22.598 21.221 6
      vertex 22.598 21.221 0
    endloop
  endfacet
  facet normal -0.770513 -0.637424 0
    outer loop
      vertex 22.598 21.221 6
      vertex 25.0795 18.2213 0
      vertex 25.0795 18.2213 6
    endloop
  endfacet
  facet normal -0.24869 -0.968583 0
    outer loop
      vertex 5.80882 30.4509 0
      vertex 9.57953 29.4828 12
      vertex 5.80882 30.4509 12
    endloop
  endfacet
  facet normal -0.24869 -0.968583 -0
    outer loop
      vertex 9.57953 29.4828 12
      vertex 5.80882 30.4509 0
      vertex 9.57953 29.4828 0
    endloop
  endfacet
  facet normal -0.125333 -0.992115 -0
    outer loop
      vertex 1.94651 30.9388 6
      vertex 1.94651 30.9388 0
      vertex 3 30.8057 6
    endloop
  endfacet
  facet normal -0.125333 -0.992115 0
    outer loop
      vertex 3 30.8057 6
      vertex 5.80882 30.4509 12
      vertex 3 30.8057 12
    endloop
  endfacet
  facet normal -0.125333 -0.992115 -3.10895e-08
    outer loop
      vertex 5.80882 30.4509 0
      vertex 3 30.8057 6
      vertex 1.94651 30.9388 0
    endloop
  endfacet
  facet normal -0.125333 -0.992115 0
    outer loop
      vertex 3 30.8057 6
      vertex 5.80882 30.4509 0
      vertex 5.80882 30.4509 12
    endloop
  endfacet
  facet normal -0.587785 -0.809017 0
    outer loop
      vertex 16.6106 26.1742 12
      vertex 18 25.1647 6
      vertex 18 25.1647 12
    endloop
  endfacet
  facet normal -0.587785 -0.809017 0
    outer loop
      vertex 16.6106 26.1742 0
      vertex 18 25.1647 6
      vertex 16.6106 26.1742 12
    endloop
  endfacet
  facet normal -0.587785 -0.809017 5.06182e-09
    outer loop
      vertex 19.7601 23.8859 0
      vertex 18 25.1647 6
      vertex 16.6106 26.1742 0
    endloop
  endfacet
  facet normal -0.587785 -0.809017 0
    outer loop
      vertex 18 25.1647 6
      vertex 19.7601 23.8859 0
      vertex 19.7601 23.8859 6
    endloop
  endfacet
  facet normal 0 0 -1
    outer loop
      vertex 25.0795 -18.2213 6
      vertex 24 -18 6
      vertex 25.22 -18 6
    endloop
  endfacet
  facet normal 0 0 -1
    outer loop
      vertex 18 -3 6
      vertex 24 -3 6
      vertex 24 -18 6
    endloop
  endfacet
  facet normal 0 0 -1
    outer loop
      vertex 24 -3 6
      vertex 18 -3 6
      vertex 24 3 6
    endloop
  endfacet
  facet normal 0 0 -1
    outer loop
      vertex 18 -18 6
      vertex 24 -18 6
      vertex 22.598 -21.221 6
    endloop
  endfacet
  facet normal 0 0 -1
    outer loop
      vertex 22.598 -21.221 6
      vertex 24 -18 6
      vertex 25.0795 -18.2213 6
    endloop
  endfacet
  facet normal 0 0 -1
    outer loop
      vertex 24 -3 6
      vertex 31 0 6
      vertex 30.8113 -3 6
    endloop
  endfacet
  facet normal 0 0 -1
    outer loop
      vertex 24 3 6
      vertex 31 0 6
      vertex 24 -3 6
    endloop
  endfacet
  facet normal 0 0 -1
    outer loop
      vertex 31 0 6
      vertex 24 3 6
      vertex 30.8113 3 6
    endloop
  endfacet
  facet normal 0 0 -1
    outer loop
      vertex 24 18 6
      vertex 25.0795 18.2213 6
      vertex 25.22 18 6
    endloop
  endfacet
  facet normal 0 0 -1
    outer loop
      vertex 24 18 6
      vertex 22.598 21.221 6
      vertex 25.0795 18.2213 6
    endloop
  endfacet
  facet normal 0 0 -1
    outer loop
      vertex 18 3 6
      vertex 24 3 6
      vertex 18 -3 6
    endloop
  endfacet
  facet normal 0 0 -1
    outer loop
      vertex 18 -18 6
      vertex 22.598 -21.221 6
      vertex 19.7601 -23.8859 6
    endloop
  endfacet
  facet normal 0 0 -1
    outer loop
      vertex 24 3 6
      vertex 18 3 6
      vertex 24 18 6
    endloop
  endfacet
  facet normal 0 0 -1
    outer loop
      vertex 18 -24 6
      vertex 19.7601 -23.8859 6
      vertex 18 -25.1647 6
    endloop
  endfacet
  facet normal 0 0 -1
    outer loop
      vertex 18 -18 6
      vertex 19.7601 -23.8859 6
      vertex 18 -24 6
    endloop
  endfacet
  facet normal 0 0 -1
    outer loop
      vertex 24 -18 6
      vertex 18 -18 6
      vertex 18 -3 6
    endloop
  endfacet
  facet normal 0 0 -1
    outer loop
      vertex 18 18 6
      vertex 24 18 6
      vertex 18 3 6
    endloop
  endfacet
  facet normal 0 0 -1
    outer loop
      vertex 24 18 6
      vertex 18 18 6
      vertex 22.598 21.221 6
    endloop
  endfacet
  facet normal -0 0 -1
    outer loop
      vertex 22.598 21.221 6
      vertex 18 18 6
      vertex 19.7601 23.8859 6
    endloop
  endfacet
  facet normal 0 0 -1
    outer loop
      vertex 18 24 6
      vertex 19.7601 23.8859 6
      vertex 18 18 6
    endloop
  endfacet
  facet normal 0 0 -1
    outer loop
      vertex 19.7601 23.8859 6
      vertex 18 24 6
      vertex 18 25.1647 6
    endloop
  endfacet
  facet normal 0 0 -1
    outer loop
      vertex -31 0 6
      vertex -24 -3 6
      vertex -30.8113 -3 6
    endloop
  endfacet
  facet normal 0 0 -1
    outer loop
      vertex -24 -3 6
      vertex -31 0 6
      vertex -24 3 6
    endloop
  endfacet
  facet normal -0 0 -1
    outer loop
      vertex -24 3 6
      vertex -31 0 6
      vertex -30.8113 3 6
    endloop
  endfacet
  facet normal 0 0 -1
    outer loop
      vertex -19.7601 -23.8859 6
      vertex -18 -24 6
      vertex -18 -25.1647 6
    endloop
  endfacet
  facet normal 0 0 -1
    outer loop
      vertex -18 -24 6
      vertex -19.7601 -23.8859 6
      vertex -18 -18 6
    endloop
  endfacet
  facet normal 0 0 -1
    outer loop
      vertex -22.598 -21.221 6
      vertex -18 -18 6
      vertex -19.7601 -23.8859 6
    endloop
  endfacet
  facet normal 0 0 -1
    outer loop
      vertex -24 -3 6
      vertex -18 -3 6
      vertex -24 -18 6
    endloop
  endfacet
  facet normal 0 0 -1
    outer loop
      vertex -24 3 6
      vertex -18 3 6
      vertex -24 -3 6
    endloop
  endfacet
  facet normal 0 0 -1
    outer loop
      vertex -18 3 6
      vertex -24 3 6
      vertex -18 18 6
    endloop
  endfacet
  facet normal 0 0 -1
    outer loop
      vertex -18 -18 6
      vertex -24 -18 6
      vertex -18 -3 6
    endloop
  endfacet
  facet normal 0 0 -1
    outer loop
      vertex -24 18 6
      vertex -18 18 6
      vertex -24 3 6
    endloop
  endfacet
  facet normal -0 0 -1
    outer loop
      vertex -18 -18 6
      vertex -22.598 -21.221 6
      vertex -24 -18 6
    endloop
  endfacet
  facet normal 0 -0 -1
    outer loop
      vertex -22.598 21.221 6
      vertex -18 18 6
      vertex -24 18 6
    endloop
  endfacet
  facet normal 0 0 -1
    outer loop
      vertex -18 -3 6
      vertex -24 -3 6
      vertex -18 3 6
    endloop
  endfacet
  facet normal 0 0 -1
    outer loop
      vertex -25.0795 -18.2213 6
      vertex -24 -18 6
      vertex -22.598 -21.221 6
    endloop
  endfacet
  facet normal -0 0 -1
    outer loop
      vertex -24 -18 6
      vertex -25.0795 -18.2213 6
      vertex -25.22 -18 6
    endloop
  endfacet
  facet normal 0 0 -1
    outer loop
      vertex -18 18 6
      vertex -3 24 6
      vertex -3 18 6
    endloop
  endfacet
  facet normal -0 0 -1
    outer loop
      vertex -3 24 6
      vertex -18 18 6
      vertex -18 24 6
    endloop
  endfacet
  facet normal 0 0 -1
    outer loop
      vertex -18 -3 6
      vertex -3 3 6
      vertex -3 -3 6
    endloop
  endfacet
  facet normal -0 0 -1
    outer loop
      vertex -3 3 6
      vertex -18 -3 6
      vertex -18 3 6
    endloop
  endfacet
  facet normal 0 0 -1
    outer loop
      vertex -18 -24 6
      vertex -3 -18 6
      vertex -3 -24 6
    endloop
  endfacet
  facet normal -0 0 -1
    outer loop
      vertex -3 -18 6
      vertex -18 -24 6
      vertex -18 -18 6
    endloop
  endfacet
  facet normal 0 0 -1
    outer loop
      vertex 1.94651 -30.9388 6
      vertex 3 -24 6
      vertex 3 -30.8057 6
    endloop
  endfacet
  facet normal 0 0 -1
    outer loop
      vertex 3 -24 6
      vertex -3 -24 6
      vertex 3 -18 6
    endloop
  endfacet
  facet normal 0 0 -1
    outer loop
      vertex 3 -18 6
      vertex -3 -18 6
      vertex 3 -3 6
    endloop
  endfacet
  facet normal 0 0 -1
    outer loop
      vertex -3 -3 6
      vertex 3 -3 6
      vertex -3 -18 6
    endloop
  endfacet
  facet normal 0 0 -1
    outer loop
      vertex -3 3 6
      vertex 3 3 6
      vertex -3 -3 6
    endloop
  endfacet
  facet normal 0 0 -1
    outer loop
      vertex 3 3 6
      vertex -3 3 6
      vertex 3 18 6
    endloop
  endfacet
  facet normal -0 0 -1
    outer loop
      vertex 3 -24 6
      vertex 1.94651 -30.9388 6
      vertex -3 -24 6
    endloop
  endfacet
  facet normal 0 0 -1
    outer loop
      vertex -3 18 6
      vertex 3 18 6
      vertex -3 3 6
    endloop
  endfacet
  facet normal 0 0 -1
    outer loop
      vertex -3 -24 6
      vertex 1.94651 -30.9388 6
      vertex -1.94651 -30.9388 6
    endloop
  endfacet
  facet normal 0 0 -1
    outer loop
      vertex 3 18 6
      vertex -3 18 6
      vertex 3 24 6
    endloop
  endfacet
  facet normal 0 0 -1
    outer loop
      vertex -3 -24 6
      vertex -1.94651 -30.9388 6
      vertex -3 -30.8057 6
    endloop
  endfacet
  facet normal -0 0 -1
    outer loop
      vertex 3 -18 6
      vertex -3 -24 6
      vertex -3 -18 6
    endloop
  endfacet
  facet normal 0 0 -1
    outer loop
      vertex 3 -3 6
      vertex -3 -3 6
      vertex 3 3 6
    endloop
  endfacet
  facet normal 0 0 -1
    outer loop
      vertex -3 24 6
      vertex 3 24 6
      vertex -3 18 6
    endloop
  endfacet
  facet normal 0 -0 -1
    outer loop
      vertex 1.94651 30.9388 6
      vertex 3 24 6
      vertex -3 24 6
    endloop
  endfacet
  facet normal 0 0 -1
    outer loop
      vertex 3 24 6
      vertex 1.94651 30.9388 6
      vertex 3 30.8057 6
    endloop
  endfacet
  facet normal -0 0 -1
    outer loop
      vertex 1.94651 30.9388 6
      vertex -3 24 6
      vertex -1.94651 30.9388 6
    endloop
  endfacet
  facet normal 0 0 -1
    outer loop
      vertex -1.94651 30.9388 6
      vertex -3 24 6
      vertex -3 30.8057 6
    endloop
  endfacet
  facet normal 0 0 -1
    outer loop
      vertex 3 18 6
      vertex 18 24 6
      vertex 18 18 6
    endloop
  endfacet
  facet normal -0 0 -1
    outer loop
      vertex 18 24 6
      vertex 3 18 6
      vertex 3 24 6
    endloop
  endfacet
  facet normal 0 0 -1
    outer loop
      vertex 3 -3 6
      vertex 18 3 6
      vertex 18 -3 6
    endloop
  endfacet
  facet normal -0 0 -1
    outer loop
      vertex 18 3 6
      vertex 3 -3 6
      vertex 3 3 6
    endloop
  endfacet
  facet normal 0 0 -1
    outer loop
      vertex 3 -24 6
      vertex 18 -18 6
      vertex 18 -24 6
    endloop
  endfacet
  facet normal -0 0 -1
    outer loop
      vertex 18 -18 6
      vertex 3 -24 6
      vertex 3 -18 6
    endloop
  endfacet
  facet normal 0 -0 -1
    outer loop
      vertex -19.7601 23.8859 6
      vertex -18 18 6
      vertex -22.598 21.221 6
    endloop
  endfacet
  facet normal -0 0 -1
    outer loop
      vertex -18 24 6
      vertex -19.7601 23.8859 6
      vertex -18 25.1647 6
    endloop
  endfacet
  facet normal 0 0 -1
    outer loop
      vertex -18 18 6
      vertex -19.7601 23.8859 6
      vertex -18 24 6
    endloop
  endfacet
  facet normal 0 0 -1
    outer loop
      vertex -24 18 6
      vertex -25.0795 18.2213 6
      vertex -22.598 21.221 6
    endloop
  endfacet
  facet normal 0 -0 -1
    outer loop
      vertex -25.0795 18.2213 6
      vertex -24 18 6
      vertex -25.22 18 6
    endloop
  endfacet
  facet normal 0.951057 -0.309017 0
    outer loop
      vertex -30.0261 7.70939 12
      vertex -28.8231 11.4119 0
      vertex -28.8231 11.4119 12
    endloop
  endfacet
  facet normal 0.951057 -0.309017 0
    outer loop
      vertex -28.8231 11.4119 0
      vertex -30.0261 7.70939 12
      vertex -30.0261 7.70939 0
    endloop
  endfacet
  facet normal 0.982287 -0.187381 0
    outer loop
      vertex -30.7556 3.88533 12
      vertex -30.0261 7.70939 0
      vertex -30.0261 7.70939 12
    endloop
  endfacet
  facet normal 0.982287 -0.187381 0
    outer loop
      vertex -30.0261 7.70939 0
      vertex -30.7556 3.88533 12
      vertex -30.7556 3.88533 0
    endloop
  endfacet
  facet normal 0.844328 -0.535827 0
    outer loop
      vertex -25.22 18 12
      vertex -27.1655 14.9344 12
      vertex -25.22 18 6
    endloop
  endfacet
  facet normal 0.844327 -0.535829 0
    outer loop
      vertex -25.22 18 6
      vertex -25.0795 18.2213 0
      vertex -25.0795 18.2213 6
    endloop
  endfacet
  facet normal 0.844328 -0.535827 0
    outer loop
      vertex -27.1655 14.9344 0
      vertex -25.22 18 6
      vertex -27.1655 14.9344 12
    endloop
  endfacet
  facet normal 0.844328 -0.535827 7.79825e-08
    outer loop
      vertex -25.22 18 6
      vertex -27.1655 14.9344 0
      vertex -25.0795 18.2213 0
    endloop
  endfacet
  facet normal 0.125333 -0.992115 0
    outer loop
      vertex -5.80882 30.4509 12
      vertex -3 30.8057 6
      vertex -3 30.8057 12
    endloop
  endfacet
  facet normal 0.125333 -0.992115 0
    outer loop
      vertex -5.80882 30.4509 0
      vertex -3 30.8057 6
      vertex -5.80882 30.4509 12
    endloop
  endfacet
  facet normal 0.125333 -0.992115 -3.10895e-08
    outer loop
      vertex -1.94651 30.9388 0
      vertex -3 30.8057 6
      vertex -5.80882 30.4509 0
    endloop
  endfacet
  facet normal 0.125333 -0.992115 0
    outer loop
      vertex -3 30.8057 6
      vertex -1.94651 30.9388 0
      vertex -1.94651 30.9388 6
    endloop
  endfacet
  facet normal 0.587785 -0.809017 0
    outer loop
      vertex -19.7601 23.8859 6
      vertex -19.7601 23.8859 0
      vertex -18 25.1647 6
    endloop
  endfacet
  facet normal 0.587785 -0.809017 0
    outer loop
      vertex -18 25.1647 6
      vertex -16.6106 26.1742 12
      vertex -18 25.1647 12
    endloop
  endfacet
  facet normal 0.587785 -0.809017 0
    outer loop
      vertex -18 25.1647 6
      vertex -16.6106 26.1742 0
      vertex -16.6106 26.1742 12
    endloop
  endfacet
  facet normal 0.587785 -0.809017 5.06182e-09
    outer loop
      vertex -16.6106 26.1742 0
      vertex -18 25.1647 6
      vertex -19.7601 23.8859 0
    endloop
  endfacet
  facet normal 0.481754 -0.876307 0
    outer loop
      vertex -16.6106 26.1742 0
      vertex -13.1992 28.0496 12
      vertex -16.6106 26.1742 12
    endloop
  endfacet
  facet normal 0.481754 -0.876307 0
    outer loop
      vertex -13.1992 28.0496 12
      vertex -16.6106 26.1742 0
      vertex -13.1992 28.0496 0
    endloop
  endfacet
  facet normal -0.998027 -0.0627927 0
    outer loop
      vertex 30.7556 3.88533 0
      vertex 30.8113 3 6
      vertex 30.7556 3.88533 12
    endloop
  endfacet
  facet normal -0.998027 -0.0627909 2.66586e-07
    outer loop
      vertex 31 0 0
      vertex 30.8113 3 6
      vertex 30.7556 3.88533 0
    endloop
  endfacet
  facet normal -0.998027 -0.0627904 0
    outer loop
      vertex 30.8113 3 6
      vertex 31 0 0
      vertex 31 0 6
    endloop
  endfacet
  facet normal -0.998027 -0.0627927 0
    outer loop
      vertex 30.7556 3.88533 12
      vertex 30.8113 3 6
      vertex 30.8113 3 12
    endloop
  endfacet
  facet normal -0.951057 0.309017 0
    outer loop
      vertex 28.8231 -11.4119 0
      vertex 30.0261 -7.70939 12
      vertex 30.0261 -7.70939 0
    endloop
  endfacet
  facet normal -0.951057 0.309017 0
    outer loop
      vertex 30.0261 -7.70939 12
      vertex 28.8231 -11.4119 0
      vertex 28.8231 -11.4119 12
    endloop
  endfacet
  facet normal -0.770513 0.637424 0
    outer loop
      vertex 22.598 -21.221 0
      vertex 25.0795 -18.2213 6
      vertex 25.0795 -18.2213 0
    endloop
  endfacet
  facet normal -0.770513 0.637424 0
    outer loop
      vertex 25.0795 -18.2213 6
      vertex 22.598 -21.221 0
      vertex 22.598 -21.221 6
    endloop
  endfacet
  facet normal 0.998027 0.0627927 0
    outer loop
      vertex -30.8113 -3 12
      vertex -30.7556 -3.88533 12
      vertex -30.8113 -3 6
    endloop
  endfacet
  facet normal 0.998027 0.0627904 0
    outer loop
      vertex -30.8113 -3 6
      vertex -31 0 0
      vertex -31 0 6
    endloop
  endfacet
  facet normal 0.998027 0.0627909 2.66586e-07
    outer loop
      vertex -30.8113 -3 6
      vertex -30.7556 -3.88533 0
      vertex -31 0 0
    endloop
  endfacet
  facet normal 0.998027 0.0627927 -0
    outer loop
      vertex -30.7556 -3.88533 0
      vertex -30.8113 -3 6
      vertex -30.7556 -3.88533 12
    endloop
  endfacet
  facet normal 0.844328 0.535827 -0
    outer loop
      vertex -25.22 -18 6
      vertex -27.1655 -14.9344 12
      vertex -25.22 -18 12
    endloop
  endfacet
  facet normal 0.844328 0.535827 0
    outer loop
      vertex -27.1655 -14.9344 12
      vertex -25.22 -18 6
      vertex -27.1655 -14.9344 0
    endloop
  endfacet
  facet normal 0.844327 0.535829 -0
    outer loop
      vertex -25.0795 -18.2213 0
      vertex -25.22 -18 6
      vertex -25.0795 -18.2213 6
    endloop
  endfacet
  facet normal 0.844328 0.535827 7.79825e-08
    outer loop
      vertex -25.22 -18 6
      vertex -25.0795 -18.2213 0
      vertex -27.1655 -14.9344 0
    endloop
  endfacet
  facet normal -0.125333 0.992115 0
    outer loop
      vertex 5.80882 -30.4509 12
      vertex 3 -30.8057 6
      vertex 3 -30.8057 12
    endloop
  endfacet
  facet normal -0.125333 0.992115 0
    outer loop
      vertex 5.80882 -30.4509 0
      vertex 3 -30.8057 6
      vertex 5.80882 -30.4509 12
    endloop
  endfacet
  facet normal -0.125333 0.992115 -3.10895e-08
    outer loop
      vertex 1.94651 -30.9388 0
      vertex 3 -30.8057 6
      vertex 5.80882 -30.4509 0
    endloop
  endfacet
  facet normal -0.125333 0.992115 0
    outer loop
      vertex 3 -30.8057 6
      vertex 1.94651 -30.9388 0
      vertex 1.94651 -30.9388 6
    endloop
  endfacet
  facet normal -0.982287 -0.187381 0
    outer loop
      vertex 30.7556 3.88533 0
      vertex 30.0261 7.70939 12
      vertex 30.0261 7.70939 0
    endloop
  endfacet
  facet normal -0.982287 -0.187381 0
    outer loop
      vertex 30.0261 7.70939 12
      vertex 30.7556 3.88533 0
      vertex 30.7556 3.88533 12
    endloop
  endfacet
  facet normal -0.844328 0.535827 0
    outer loop
      vertex 27.1655 -14.9344 0
      vertex 25.22 -18 6
      vertex 27.1655 -14.9344 12
    endloop
  endfacet
  facet normal -0.844328 0.535827 7.79825e-08
    outer loop
      vertex 25.0795 -18.2213 0
      vertex 25.22 -18 6
      vertex 27.1655 -14.9344 0
    endloop
  endfacet
  facet normal -0.844327 0.535829 0
    outer loop
      vertex 25.22 -18 6
      vertex 25.0795 -18.2213 0
      vertex 25.0795 -18.2213 6
    endloop
  endfacet
  facet normal -0.844328 0.535827 0
    outer loop
      vertex 27.1655 -14.9344 12
      vertex 25.22 -18 6
      vertex 25.22 -18 12
    endloop
  endfacet
  facet normal 0 1 -0
    outer loop
      vertex 1.94651 -30.9388 0
      vertex -1.94651 -30.9388 6
      vertex 1.94651 -30.9388 6
    endloop
  endfacet
  facet normal 0 1 0
    outer loop
      vertex -1.94651 -30.9388 6
      vertex 1.94651 -30.9388 0
      vertex -1.94651 -30.9388 0
    endloop
  endfacet
  facet normal 0.951057 0.309017 0
    outer loop
      vertex -28.8231 -11.4119 12
      vertex -30.0261 -7.70939 0
      vertex -30.0261 -7.70939 12
    endloop
  endfacet
  facet normal 0.951057 0.309017 0
    outer loop
      vertex -30.0261 -7.70939 0
      vertex -28.8231 -11.4119 12
      vertex -28.8231 -11.4119 0
    endloop
  endfacet
  facet normal 0.982287 0.187381 0
    outer loop
      vertex -30.0261 -7.70939 12
      vertex -30.7556 -3.88533 0
      vertex -30.7556 -3.88533 12
    endloop
  endfacet
  facet normal 0.982287 0.187381 0
    outer loop
      vertex -30.7556 -3.88533 0
      vertex -30.0261 -7.70939 12
      vertex -30.0261 -7.70939 0
    endloop
  endfacet
  facet normal 0.770513 0.637424 0
    outer loop
      vertex -22.598 -21.221 6
      vertex -25.0795 -18.2213 0
      vertex -25.0795 -18.2213 6
    endloop
  endfacet
  facet normal 0.770513 0.637424 0
    outer loop
      vertex -25.0795 -18.2213 0
      vertex -22.598 -21.221 6
      vertex -22.598 -21.221 0
    endloop
  endfacet
  facet normal -0.368125 0.929776 0
    outer loop
      vertex 13.1992 -28.0496 0
      vertex 9.57953 -29.4828 12
      vertex 13.1992 -28.0496 12
    endloop
  endfacet
  facet normal -0.368125 0.929776 0
    outer loop
      vertex 9.57953 -29.4828 12
      vertex 13.1992 -28.0496 0
      vertex 9.57953 -29.4828 0
    endloop
  endfacet
  facet normal -0.24869 0.968583 0
    outer loop
      vertex 9.57953 -29.4828 0
      vertex 5.80882 -30.4509 12
      vertex 9.57953 -29.4828 12
    endloop
  endfacet
  facet normal -0.24869 0.968583 0
    outer loop
      vertex 5.80882 -30.4509 12
      vertex 9.57953 -29.4828 0
      vertex 5.80882 -30.4509 0
    endloop
  endfacet
  facet normal -0.684547 0.728968 0
    outer loop
      vertex 22.598 -21.221 0
      vertex 19.7601 -23.8859 6
      vertex 22.598 -21.221 6
    endloop
  endfacet
  facet normal -0.684547 0.728968 0
    outer loop
      vertex 19.7601 -23.8859 6
      vertex 22.598 -21.221 0
      vertex 19.7601 -23.8859 0
    endloop
  endfacet
  facet normal -0.982287 0.187381 0
    outer loop
      vertex 30.0261 -7.70939 0
      vertex 30.7556 -3.88533 12
      vertex 30.7556 -3.88533 0
    endloop
  endfacet
  facet normal -0.982287 0.187381 0
    outer loop
      vertex 30.7556 -3.88533 12
      vertex 30.0261 -7.70939 0
      vertex 30.0261 -7.70939 12
    endloop
  endfacet
  facet normal 0.24869 0.968583 -0
    outer loop
      vertex -5.80882 -30.4509 0
      vertex -9.57953 -29.4828 12
      vertex -5.80882 -30.4509 12
    endloop
  endfacet
  facet normal 0.24869 0.968583 0
    outer loop
      vertex -9.57953 -29.4828 12
      vertex -5.80882 -30.4509 0
      vertex -9.57953 -29.4828 0
    endloop
  endfacet
  facet normal 0.481754 0.876307 -0
    outer loop
      vertex -13.1992 -28.0496 0
      vertex -16.6106 -26.1742 12
      vertex -13.1992 -28.0496 12
    endloop
  endfacet
  facet normal 0.481754 0.876307 0
    outer loop
      vertex -16.6106 -26.1742 12
      vertex -13.1992 -28.0496 0
      vertex -16.6106 -26.1742 0
    endloop
  endfacet
  facet normal -0.587785 0.809017 0
    outer loop
      vertex 19.7601 -23.8859 6
      vertex 19.7601 -23.8859 0
      vertex 18 -25.1647 6
    endloop
  endfacet
  facet normal -0.587785 0.809017 0
    outer loop
      vertex 18 -25.1647 6
      vertex 16.6106 -26.1742 12
      vertex 18 -25.1647 12
    endloop
  endfacet
  facet normal -0.587785 0.809017 0
    outer loop
      vertex 18 -25.1647 6
      vertex 16.6106 -26.1742 0
      vertex 16.6106 -26.1742 12
    endloop
  endfacet
  facet normal -0.587785 0.809017 5.06182e-09
    outer loop
      vertex 16.6106 -26.1742 0
      vertex 18 -25.1647 6
      vertex 19.7601 -23.8859 0
    endloop
  endfacet
  facet normal 0.125333 0.992115 0
    outer loop
      vertex -1.94651 -30.9388 6
      vertex -1.94651 -30.9388 0
      vertex -3 -30.8057 6
    endloop
  endfacet
  facet normal 0.125333 0.992115 -0
    outer loop
      vertex -3 -30.8057 6
      vertex -5.80882 -30.4509 12
      vertex -3 -30.8057 12
    endloop
  endfacet
  facet normal 0.125333 0.992115 -3.10895e-08
    outer loop
      vertex -5.80882 -30.4509 0
      vertex -3 -30.8057 6
      vertex -1.94651 -30.9388 0
    endloop
  endfacet
  facet normal 0.125333 0.992115 0
    outer loop
      vertex -3 -30.8057 6
      vertex -5.80882 -30.4509 0
      vertex -5.80882 -30.4509 12
    endloop
  endfacet
  facet normal 0.587785 0.809017 0
    outer loop
      vertex -16.6106 -26.1742 12
      vertex -18 -25.1647 6
      vertex -18 -25.1647 12
    endloop
  endfacet
  facet normal 0.587785 0.809017 -0
    outer loop
      vertex -16.6106 -26.1742 0
      vertex -18 -25.1647 6
      vertex -16.6106 -26.1742 12
    endloop
  endfacet
  facet normal 0.587785 0.809017 5.06182e-09
    outer loop
      vertex -19.7601 -23.8859 0
      vertex -18 -25.1647 6
      vertex -16.6106 -26.1742 0
    endloop
  endfacet
  facet normal 0.587785 0.809017 0
    outer loop
      vertex -18 -25.1647 6
      vertex -19.7601 -23.8859 0
      vertex -19.7601 -23.8859 6
    endloop
  endfacet
  facet normal 0.368125 0.929776 -0
    outer loop
      vertex -9.57953 -29.4828 0
      vertex -13.1992 -28.0496 12
      vertex -9.57953 -29.4828 12
    endloop
  endfacet
  facet normal 0.368125 0.929776 0
    outer loop
      vertex -13.1992 -28.0496 12
      vertex -9.57953 -29.4828 0
      vertex -13.1992 -28.0496 0
    endloop
  endfacet
  facet normal 0 -1 0
    outer loop
      vertex -30.8113 -3 6
      vertex -24 -3 12
      vertex -30.8113 -3 12
    endloop
  endfacet
  facet normal 0 -1 -0
    outer loop
      vertex -24 -3 12
      vertex -30.8113 -3 6
      vertex -24 -3 6
    endloop
  endfacet
  facet normal 0 -1 0
    outer loop
      vertex 24 -3 6
      vertex 30.8113 -3 12
      vertex 24 -3 12
    endloop
  endfacet
  facet normal 0 -1 -0
    outer loop
      vertex 30.8113 -3 12
      vertex 24 -3 6
      vertex 30.8113 -3 6
    endloop
  endfacet
  facet normal 0 -1 0
    outer loop
      vertex -18 -3 6
      vertex -3 -3 12
      vertex -18 -3 12
    endloop
  endfacet
  facet normal 0 -1 -0
    outer loop
      vertex -3 -3 12
      vertex -18 -3 6
      vertex -3 -3 6
    endloop
  endfacet
  facet normal 0 -1 0
    outer loop
      vertex 3 -3 6
      vertex 18 -3 12
      vertex 3 -3 12
    endloop
  endfacet
  facet normal 0 -1 -0
    outer loop
      vertex 18 -3 12
      vertex 3 -3 6
      vertex 18 -3 6
    endloop
  endfacet
  facet normal 0 1 -0
    outer loop
      vertex -24 3 6
      vertex -30.8113 3 12
      vertex -24 3 12
    endloop
  endfacet
  facet normal 0 1 0
    outer loop
      vertex -30.8113 3 12
      vertex -24 3 6
      vertex -30.8113 3 6
    endloop
  endfacet
  facet normal 0 1 -0
    outer loop
      vertex 30.8113 3 6
      vertex 24 3 12
      vertex 30.8113 3 12
    endloop
  endfacet
  facet normal 0 1 0
    outer loop
      vertex 24 3 12
      vertex 30.8113 3 6
      vertex 24 3 6
    endloop
  endfacet
  facet normal 0 1 -0
    outer loop
      vertex -3 3 6
      vertex -18 3 12
      vertex -3 3 12
    endloop
  endfacet
  facet normal 0 1 0
    outer loop
      vertex -18 3 12
      vertex -3 3 6
      vertex -18 3 6
    endloop
  endfacet
  facet normal 0 1 -0
    outer loop
      vertex 18 3 6
      vertex 3 3 12
      vertex 18 3 12
    endloop
  endfacet
  facet normal 0 1 0
    outer loop
      vertex 3 3 12
      vertex 18 3 6
      vertex 3 3 6
    endloop
  endfacet
  facet normal 0 -1 0
    outer loop
      vertex -25.22 18 6
      vertex -24 18 12
      vertex -25.22 18 12
    endloop
  endfacet
  facet normal 0 -1 -0
    outer loop
      vertex -24 18 12
      vertex -25.22 18 6
      vertex -24 18 6
    endloop
  endfacet
  facet normal 0 -1 0
    outer loop
      vertex 24 18 6
      vertex 25.22 18 12
      vertex 24 18 12
    endloop
  endfacet
  facet normal 0 -1 -0
    outer loop
      vertex 25.22 18 12
      vertex 24 18 6
      vertex 25.22 18 6
    endloop
  endfacet
  facet normal 0 -1 0
    outer loop
      vertex -18 18 6
      vertex -3 18 12
      vertex -18 18 12
    endloop
  endfacet
  facet normal 0 -1 -0
    outer loop
      vertex -3 18 12
      vertex -18 18 6
      vertex -3 18 6
    endloop
  endfacet
  facet normal 0 -1 0
    outer loop
      vertex 3 18 6
      vertex 18 18 12
      vertex 3 18 12
    endloop
  endfacet
  facet normal 0 -1 -0
    outer loop
      vertex 18 18 12
      vertex 3 18 6
      vertex 18 18 6
    endloop
  endfacet
  facet normal 0 1 -0
    outer loop
      vertex -3 24 6
      vertex -18 24 12
      vertex -3 24 12
    endloop
  endfacet
  facet normal 0 1 0
    outer loop
      vertex -18 24 12
      vertex -3 24 6
      vertex -18 24 6
    endloop
  endfacet
  facet normal 0 1 -0
    outer loop
      vertex 18 24 6
      vertex 3 24 12
      vertex 18 24 12
    endloop
  endfacet
  facet normal 0 1 0
    outer loop
      vertex 3 24 12
      vertex 18 24 6
      vertex 3 24 6
    endloop
  endfacet
  facet normal 0 1 -0
    outer loop
      vertex -24 -18 6
      vertex -25.22 -18 12
      vertex -24 -18 12
    endloop
  endfacet
  facet normal 0 1 0
    outer loop
      vertex -25.22 -18 12
      vertex -24 -18 6
      vertex -25.22 -18 6
    endloop
  endfacet
  facet normal 0 1 -0
    outer loop
      vertex 25.22 -18 6
      vertex 24 -18 12
      vertex 25.22 -18 12
    endloop
  endfacet
  facet normal 0 1 0
    outer loop
      vertex 24 -18 12
      vertex 25.22 -18 6
      vertex 24 -18 6
    endloop
  endfacet
  facet normal 0 1 -0
    outer loop
      vertex -3 -18 6
      vertex -18 -18 12
      vertex -3 -18 12
    endloop
  endfacet
  facet normal 0 1 0
    outer loop
      vertex -18 -18 12
      vertex -3 -18 6
      vertex -18 -18 6
    endloop
  endfacet
  facet normal 0 1 -0
    outer loop
      vertex 18 -18 6
      vertex 3 -18 12
      vertex 18 -18 12
    endloop
  endfacet
  facet normal 0 1 0
    outer loop
      vertex 3 -18 12
      vertex 18 -18 6
      vertex 3 -18 6
    endloop
  endfacet
  facet normal 0 -1 0
    outer loop
      vertex -18 -24 6
      vertex -3 -24 12
      vertex -18 -24 12
    endloop
  endfacet
  facet normal 0 -1 -0
    outer loop
      vertex -3 -24 12
      vertex -18 -24 6
      vertex -3 -24 6
    endloop
  endfacet
  facet normal 0 -1 0
    outer loop
      vertex 3 -24 6
      vertex 18 -24 12
      vertex 3 -24 12
    endloop
  endfacet
  facet normal 0 -1 -0
    outer loop
      vertex 18 -24 12
      vertex 3 -24 6
      vertex 18 -24 6
    endloop
  endfacet
  facet normal 1 -0 0
    outer loop
      vertex 3 -30.8057 12
      vertex 3 -24 6
      vertex 3 -24 12
    endloop
  endfacet
  facet normal 1 0 0
    outer loop
      vertex 3 -24 6
      vertex 3 -30.8057 12
      vertex 3 -30.8057 6
    endloop
  endfacet
  facet normal 1 -0 0
    outer loop
      vertex 3 24 12
      vertex 3 30.8057 6
      vertex 3 30.8057 12
    endloop
  endfacet
  facet normal 1 0 0
    outer loop
      vertex 3 30.8057 6
      vertex 3 24 12
      vertex 3 24 6
    endloop
  endfacet
  facet normal 1 -0 0
    outer loop
      vertex 3 -18 12
      vertex 3 -3 6
      vertex 3 -3 12
    endloop
  endfacet
  facet normal 1 0 0
    outer loop
      vertex 3 -3 6
      vertex 3 -18 12
      vertex 3 -18 6
    endloop
  endfacet
  facet normal 1 -0 0
    outer loop
      vertex 3 3 12
      vertex 3 18 6
      vertex 3 18 12
    endloop
  endfacet
  facet normal 1 0 0
    outer loop
      vertex 3 18 6
      vertex 3 3 12
      vertex 3 3 6
    endloop
  endfacet
  facet normal -1 0 0
    outer loop
      vertex -3 24 6
      vertex -3 30.8057 12
      vertex -3 30.8057 6
    endloop
  endfacet
  facet normal -1 -0 0
    outer loop
      vertex -3 30.8057 12
      vertex -3 24 6
      vertex -3 24 12
    endloop
  endfacet
  facet normal -1 0 0
    outer loop
      vertex -3 -30.8057 6
      vertex -3 -24 12
      vertex -3 -24 6
    endloop
  endfacet
  facet normal -1 -0 0
    outer loop
      vertex -3 -24 12
      vertex -3 -30.8057 6
      vertex -3 -30.8057 12
    endloop
  endfacet
  facet normal -1 0 0
    outer loop
      vertex -3 -18 6
      vertex -3 -3 12
      vertex -3 -3 6
    endloop
  endfacet
  facet normal -1 -0 0
    outer loop
      vertex -3 -3 12
      vertex -3 -18 6
      vertex -3 -18 12
    endloop
  endfacet
  facet normal -1 0 0
    outer loop
      vertex -3 3 6
      vertex -3 18 12
      vertex -3 18 6
    endloop
  endfacet
  facet normal -1 -0 0
    outer loop
      vertex -3 18 12
      vertex -3 3 6
      vertex -3 3 12
    endloop
  endfacet
  facet normal 1 -0 0
    outer loop
      vertex -18 24 12
      vertex -18 25.1647 6
      vertex -18 25.1647 12
    endloop
  endfacet
  facet normal 1 0 0
    outer loop
      vertex -18 25.1647 6
      vertex -18 24 12
      vertex -18 24 6
    endloop
  endfacet
  facet normal 1 -0 0
    outer loop
      vertex -18 -25.1647 12
      vertex -18 -24 6
      vertex -18 -24 12
    endloop
  endfacet
  facet normal 1 0 0
    outer loop
      vertex -18 -24 6
      vertex -18 -25.1647 12
      vertex -18 -25.1647 6
    endloop
  endfacet
  facet normal 1 -0 0
    outer loop
      vertex -18 -18 12
      vertex -18 -3 6
      vertex -18 -3 12
    endloop
  endfacet
  facet normal 1 0 0
    outer loop
      vertex -18 -3 6
      vertex -18 -18 12
      vertex -18 -18 6
    endloop
  endfacet
  facet normal 1 -0 0
    outer loop
      vertex -18 3 12
      vertex -18 18 6
      vertex -18 18 12
    endloop
  endfacet
  facet normal 1 0 0
    outer loop
      vertex -18 18 6
      vertex -18 3 12
      vertex -18 3 6
    endloop
  endfacet
  facet normal -1 0 0
    outer loop
      vertex -24 -18 6
      vertex -24 -3 12
      vertex -24 -3 6
    endloop
  endfacet
  facet normal -1 -0 0
    outer loop
      vertex -24 -3 12
      vertex -24 -18 6
      vertex -24 -18 12
    endloop
  endfacet
  facet normal -1 0 0
    outer loop
      vertex -24 3 6
      vertex -24 18 12
      vertex -24 18 6
    endloop
  endfacet
  facet normal -1 -0 0
    outer loop
      vertex -24 18 12
      vertex -24 3 6
      vertex -24 3 12
    endloop
  endfacet
  facet normal -1 0 0
    outer loop
      vertex 18 24 6
      vertex 18 25.1647 12
      vertex 18 25.1647 6
    endloop
  endfacet
  facet normal -1 -0 0
    outer loop
      vertex 18 25.1647 12
      vertex 18 24 6
      vertex 18 24 12
    endloop
  endfacet
  facet normal -1 0 0
    outer loop
      vertex 18 -25.1647 6
      vertex 18 -24 12
      vertex 18 -24 6
    endloop
  endfacet
  facet normal -1 -0 0
    outer loop
      vertex 18 -24 12
      vertex 18 -25.1647 6
      vertex 18 -25.1647 12
    endloop
  endfacet
  facet normal -1 0 0
    outer loop
      vertex 18 -18 6
      vertex 18 -3 12
      vertex 18 -3 6
    endloop
  endfacet
  facet normal -1 -0 0
    outer loop
      vertex 18 -3 12
      vertex 18 -18 6
      vertex 18 -18 12
    endloop
  endfacet
  facet normal -1 0 0
    outer loop
      vertex 18 3 6
      vertex 18 18 12
      vertex 18 18 6
    endloop
  endfacet
  facet normal -1 -0 0
    outer loop
      vertex 18 18 12
      vertex 18 3 6
      vertex 18 3 12
    endloop
  endfacet
  facet normal 1 -0 0
    outer loop
      vertex 24 -18 12
      vertex 24 -3 6
      vertex 24 -3 12
    endloop
  endfacet
  facet normal 1 0 0
    outer loop
      vertex 24 -3 6
      vertex 24 -18 12
      vertex 24 -18 6
    endloop
  endfacet
  facet normal 1 -0 0
    outer loop
      vertex 24 3 12
      vertex 24 18 6
      vertex 24 18 12
    endloop
  endfacet
  facet normal 1 0 0
    outer loop
      vertex 24 18 6
      vertex 24 3 12
      vertex 24 3 6
    endloop
  endfacet
endsolid OpenSCAD_Model
