solid OpenSCAD_Model
  facet normal -0.979171 -0.186787 -0.0795889
    outer loop
      vertex -54.2407 -13.9266 -75
      vertex -67.4638 -8.52266 75
      vertex -55.5584 -7.01866 -75
    endloop
  endfacet
  facet normal 0.994861 0.0625915 -0.0795889
    outer loop
      vertex 68 0 75
      vertex 56 0 -75
      vertex 67.4638 8.52266 75
    endloop
  endfacet
  facet normal 0.994861 0.0625915 -0.0795889
    outer loop
      vertex 56 0 -75
      vertex 55.5584 7.01866 -75
      vertex 67.4638 8.52266 75
    endloop
  endfacet
  facet normal 0.994861 -0.0625915 -0.0795889
    outer loop
      vertex 67.4638 -8.52266 75
      vertex 55.5584 -7.01866 -75
      vertex 56 0 -75
    endloop
  endfacet
  facet normal 0.94804 -0.308037 -0.0795889
    outer loop
      vertex 63.2248 -25.0325 75
      vertex 54.2407 -13.9266 -75
      vertex 65.8637 -16.9109 75
    endloop
  endfacet
  facet normal 0.124935 -0.988968 -0.0795888
    outer loop
      vertex 4.26975 -67.8658 75
      vertex 3.51627 -55.8895 -75
      vertex 10.4934 -55.0081 -75
    endloop
  endfacet
  facet normal -0.585921 -0.806451 -0.0795889
    outer loop
      vertex -30.0063 -47.2824 -75
      vertex -43.3448 -52.3949 75
      vertex -35.6957 -43.1487 -75
    endloop
  endfacet
  facet normal -0.124935 0.988968 -0.0795888
    outer loop
      vertex -10.4934 55.0081 -75
      vertex -12.7419 66.7955 75
      vertex -4.26975 67.8658 75
    endloop
  endfacet
  facet normal 0.768069 -0.635402 -0.0795889
    outer loop
      vertex 49.5699 -46.5492 75
      vertex 40.8222 -38.3346 -75
      vertex 45.305 -32.916 -75
    endloop
  endfacet
  facet normal 0.994861 -0.0625915 -0.0795889
    outer loop
      vertex 67.4638 -8.52266 75
      vertex 56 0 -75
      vertex 68 0 75
    endloop
  endfacet
  facet normal -0.901957 -0.424429 -0.0795889
    outer loop
      vertex -59.5889 -32.7593 75
      vertex -63.2248 -25.0325 75
      vertex -52.0675 -20.615 -75
    endloop
  endfacet
  facet normal -0.768069 -0.635402 -0.0795889
    outer loop
      vertex -40.8222 -38.3346 -75
      vertex -49.5699 -46.5492 75
      vertex -45.305 -32.916 -75
    endloop
  endfacet
  facet normal -0.247901 -0.96551 -0.0795888
    outer loop
      vertex -12.7419 -66.7955 75
      vertex -17.305 -53.2592 -75
      vertex -10.4934 -55.0081 -75
    endloop
  endfacet
  facet normal -0.247901 -0.965511 -0.0795889
    outer loop
      vertex -12.7419 -66.7955 75
      vertex -21.0132 -64.6718 75
      vertex -17.305 -53.2592 -75
    endloop
  endfacet
  facet normal 0.585921 0.806451 -0.0795889
    outer loop
      vertex 43.3448 52.3949 75
      vertex 30.0063 47.2824 -75
      vertex 36.4362 57.4143 75
    endloop
  endfacet
  facet normal 0.84165 0.534127 -0.0795889
    outer loop
      vertex 59.5889 32.7593 75
      vertex 45.305 32.916 -75
      vertex 55.0132 39.9694 75
    endloop
  endfacet
  facet normal 0.901957 0.424429 -0.0795888
    outer loop
      vertex 52.0675 20.615 -75
      vertex 49.0732 26.9782 -75
      vertex 59.5889 32.7593 75
    endloop
  endfacet
  facet normal 0.948039 -0.308037 -0.0795889
    outer loop
      vertex 63.2248 -25.0325 75
      vertex 52.0675 -20.615 -75
      vertex 54.2407 -13.9266 -75
    endloop
  endfacet
  facet normal 0.901957 -0.424429 -0.0795889
    outer loop
      vertex 59.5889 -32.7593 75
      vertex 52.0675 -20.615 -75
      vertex 63.2248 -25.0325 75
    endloop
  endfacet
  facet normal 0.480225 -0.873527 -0.0795889
    outer loop
      vertex 36.4362 -57.4143 75
      vertex 23.8436 -50.6703 -75
      vertex 30.0063 -47.2824 -75
    endloop
  endfacet
  facet normal 0.480225 -0.873527 -0.0795889
    outer loop
      vertex 28.953 -61.5282 75
      vertex 23.8436 -50.6703 -75
      vertex 36.4362 -57.4143 75
    endloop
  endfacet
  facet normal -0.979171 -0.186787 -0.0795889
    outer loop
      vertex -65.8637 -16.9109 75
      vertex -67.4638 -8.52266 75
      vertex -54.2407 -13.9266 -75
    endloop
  endfacet
  facet normal -0.682376 -0.726656 -0.0795889
    outer loop
      vertex -43.3448 -52.3949 75
      vertex -49.5699 -46.5492 75
      vertex -40.8222 -38.3346 -75
    endloop
  endfacet
  facet normal -0.84165 -0.534127 -0.0795889
    outer loop
      vertex -55.0132 -39.9694 75
      vertex -59.5889 -32.7593 75
      vertex -45.305 -32.916 -75
    endloop
  endfacet
  facet normal 0 -0.996828 -0.0795888
    outer loop
      vertex -3.51627 -55.8895 -75
      vertex 4.26975 -67.8658 75
      vertex -4.26975 -67.8658 75
    endloop
  endfacet
  facet normal 0 -0.996828 -0.0795888
    outer loop
      vertex 4.26975 -67.8658 75
      vertex -3.51627 -55.8895 -75
      vertex 3.51627 -55.8895 -75
    endloop
  endfacet
  facet normal -0.366957 -0.926827 -0.0795889
    outer loop
      vertex -21.0132 -64.6718 75
      vertex -28.953 -61.5282 75
      vertex -17.305 -53.2592 -75
    endloop
  endfacet
  facet normal -0.480225 -0.873527 -0.0795889
    outer loop
      vertex -28.953 -61.5282 75
      vertex -36.4362 -57.4143 75
      vertex -23.8436 -50.6703 -75
    endloop
  endfacet
  facet normal -0.84165 0.534127 -0.0795889
    outer loop
      vertex -45.305 32.916 -75
      vertex -59.5889 32.7593 75
      vertex -55.0132 39.9694 75
    endloop
  endfacet
  facet normal 0.124935 0.988968 -0.0795888
    outer loop
      vertex 10.4934 55.0081 -75
      vertex 4.26975 67.8658 75
      vertex 12.7419 66.7955 75
    endloop
  endfacet
  facet normal 0.94804 0.308037 -0.0795889
    outer loop
      vertex 65.8637 16.9109 75
      vertex 54.2407 13.9266 -75
      vertex 63.2248 25.0325 75
    endloop
  endfacet
  facet normal 0.979171 -0.186787 -0.0795889
    outer loop
      vertex 67.4638 -8.52266 75
      vertex 54.2407 -13.9266 -75
      vertex 55.5584 -7.01866 -75
    endloop
  endfacet
  facet normal 0.979171 -0.186787 -0.0795889
    outer loop
      vertex 65.8637 -16.9109 75
      vertex 54.2407 -13.9266 -75
      vertex 67.4638 -8.52266 75
    endloop
  endfacet
  facet normal 0.901957 -0.424429 -0.0795888
    outer loop
      vertex 59.5889 -32.7593 75
      vertex 49.0732 -26.9782 -75
      vertex 52.0675 -20.615 -75
    endloop
  endfacet
  facet normal 0.841649 -0.534127 -0.0795889
    outer loop
      vertex 59.5889 -32.7593 75
      vertex 45.305 -32.916 -75
      vertex 49.0732 -26.9782 -75
    endloop
  endfacet
  facet normal 0.366957 -0.926827 -0.0795889
    outer loop
      vertex 21.0132 -64.6718 75
      vertex 17.305 -53.2592 -75
      vertex 28.953 -61.5282 75
    endloop
  endfacet
  facet normal 0.682376 -0.726656 -0.0795888
    outer loop
      vertex 43.3448 -52.3949 75
      vertex 35.6957 -43.1487 -75
      vertex 40.8222 -38.3346 -75
    endloop
  endfacet
  facet normal 0.682376 -0.726656 -0.0795889
    outer loop
      vertex 43.3448 -52.3949 75
      vertex 40.8222 -38.3346 -75
      vertex 49.5699 -46.5492 75
    endloop
  endfacet
  facet normal 0.247901 -0.965511 -0.0795889
    outer loop
      vertex 21.0132 -64.6718 75
      vertex 12.7419 -66.7955 75
      vertex 17.305 -53.2592 -75
    endloop
  endfacet
  facet normal -0.94804 -0.308037 -0.0795889
    outer loop
      vertex -63.2248 -25.0325 75
      vertex -65.8637 -16.9109 75
      vertex -54.2407 -13.9266 -75
    endloop
  endfacet
  facet normal -0.948039 -0.308037 -0.0795889
    outer loop
      vertex -52.0675 -20.615 -75
      vertex -63.2248 -25.0325 75
      vertex -54.2407 -13.9266 -75
    endloop
  endfacet
  facet normal -0.841649 -0.534127 -0.0795889
    outer loop
      vertex -45.305 -32.916 -75
      vertex -59.5889 -32.7593 75
      vertex -49.0732 -26.9782 -75
    endloop
  endfacet
  facet normal -0.682376 -0.726656 -0.0795888
    outer loop
      vertex -35.6957 -43.1487 -75
      vertex -43.3448 -52.3949 75
      vertex -40.8222 -38.3346 -75
    endloop
  endfacet
  facet normal -0.768069 -0.635402 -0.0795889
    outer loop
      vertex -49.5699 -46.5492 75
      vertex -55.0132 -39.9694 75
      vertex -45.305 -32.916 -75
    endloop
  endfacet
  facet normal -0.480225 -0.873527 -0.0795889
    outer loop
      vertex -23.8436 -50.6703 -75
      vertex -36.4362 -57.4143 75
      vertex -30.0063 -47.2824 -75
    endloop
  endfacet
  facet normal -0.585921 -0.806451 -0.0795889
    outer loop
      vertex -36.4362 -57.4143 75
      vertex -43.3448 -52.3949 75
      vertex -30.0063 -47.2824 -75
    endloop
  endfacet
  facet normal -0.124935 -0.988968 -0.0795888
    outer loop
      vertex -4.26975 -67.8658 75
      vertex -12.7419 -66.7955 75
      vertex -10.4934 -55.0081 -75
    endloop
  endfacet
  facet normal -0.124935 -0.988968 -0.0795888
    outer loop
      vertex -4.26975 -67.8658 75
      vertex -10.4934 -55.0081 -75
      vertex -3.51627 -55.8895 -75
    endloop
  endfacet
  facet normal -0.480225 0.873527 -0.0795889
    outer loop
      vertex -23.8436 50.6703 -75
      vertex -36.4362 57.4143 75
      vertex -28.953 61.5282 75
    endloop
  endfacet
  facet normal -0 0 1
    outer loop
      vertex 61.0507 7.45983 75
      vertex 68 0 75
      vertex 67.4638 8.52266 75
    endloop
  endfacet
  facet normal -0 0 1
    outer loop
      vertex 59.6343 15.0527 75
      vertex 67.4638 8.52266 75
      vertex 65.8637 16.9109 75
    endloop
  endfacet
  facet normal 0 0 1
    outer loop
      vertex 68 0 75
      vertex 61.0507 7.45983 75
      vertex 61.52 0 75
    endloop
  endfacet
  facet normal 0 0 1
    outer loop
      vertex 59.5096 15.5383 75
      vertex 65.8637 16.9109 75
      vertex 63.2248 25.0325 75
    endloop
  endfacet
  facet normal 0 0 1
    outer loop
      vertex 68 0 75
      vertex 61.0507 -7.45983 75
      vertex 67.4638 -8.52266 75
    endloop
  endfacet
  facet normal -0 0 1
    outer loop
      vertex 61.0349 -7.7105 75
      vertex 67.4638 -8.52266 75
      vertex 61.0507 -7.45983 75
    endloop
  endfacet
  facet normal 0 0 1
    outer loop
      vertex 61.0507 -7.45983 75
      vertex 68 0 75
      vertex 61.52 0 75
    endloop
  endfacet
  facet normal 0 0 1
    outer loop
      vertex 67.4638 8.52266 75
      vertex 61.0349 7.7105 75
      vertex 61.0507 7.45983 75
    endloop
  endfacet
  facet normal 0 0 1
    outer loop
      vertex 67.4638 8.52266 75
      vertex 59.6343 15.0527 75
      vertex 61.0349 7.7105 75
    endloop
  endfacet
  facet normal 0 0 1
    outer loop
      vertex 57.0929 22.8743 75
      vertex 63.2248 25.0325 75
      vertex 59.5889 32.7593 75
    endloop
  endfacet
  facet normal 0 0 1
    outer loop
      vertex 65.8637 16.9109 75
      vertex 59.5872 15.2994 75
      vertex 59.6343 15.0527 75
    endloop
  endfacet
  facet normal 0 0 1
    outer loop
      vertex 65.8637 16.9109 75
      vertex 59.5096 15.5383 75
      vertex 59.5872 15.2994 75
    endloop
  endfacet
  facet normal 0 0 1
    outer loop
      vertex 63.2248 25.0325 75
      vertex 57.1998 22.647 75
      vertex 59.5096 15.5383 75
    endloop
  endfacet
  facet normal 0 0 1
    outer loop
      vertex 63.2248 25.0325 75
      vertex 57.0929 22.8743 75
      vertex 57.1998 22.647 75
    endloop
  endfacet
  facet normal 0 0 1
    outer loop
      vertex 53.7758 29.8495 75
      vertex 59.5889 32.7593 75
      vertex 55.0132 39.9694 75
    endloop
  endfacet
  facet normal 0 0 1
    outer loop
      vertex 59.5889 32.7593 75
      vertex 53.9104 29.6375 75
      vertex 57.0929 22.8743 75
    endloop
  endfacet
  facet normal 0 0 1
    outer loop
      vertex 59.5889 32.7593 75
      vertex 53.7758 29.8495 75
      vertex 53.9104 29.6375 75
    endloop
  endfacet
  facet normal 0 0 1
    outer loop
      vertex 55.0132 39.9694 75
      vertex 49.7707 36.1605 75
      vertex 53.7758 29.8495 75
    endloop
  endfacet
  facet normal -0 0 1
    outer loop
      vertex 45.0062 41.9198 75
      vertex 55.0132 39.9694 75
      vertex 49.5699 46.5492 75
    endloop
  endfacet
  facet normal 0 0 1
    outer loop
      vertex 55.0132 39.9694 75
      vertex 45.0062 41.9198 75
      vertex 49.7707 36.1605 75
    endloop
  endfacet
  facet normal 0 0 1
    outer loop
      vertex 49.5699 46.5492 75
      vertex 44.8461 42.1133 75
      vertex 45.0062 41.9198 75
    endloop
  endfacet
  facet normal -0 0 1
    outer loop
      vertex 39.3974 47.23 75
      vertex 49.5699 46.5492 75
      vertex 43.3448 52.3949 75
    endloop
  endfacet
  facet normal 0 0 1
    outer loop
      vertex 49.5699 46.5492 75
      vertex 39.3974 47.23 75
      vertex 44.8461 42.1133 75
    endloop
  endfacet
  facet normal 0 0 1
    outer loop
      vertex 43.3448 52.3949 75
      vertex 39.2143 47.402 75
      vertex 39.3974 47.23 75
    endloop
  endfacet
  facet normal 0 0 1
    outer loop
      vertex 43.3448 52.3949 75
      vertex 39.0111 47.5496 75
      vertex 39.2143 47.402 75
    endloop
  endfacet
  facet normal 0 0 1
    outer loop
      vertex 36.4362 57.4143 75
      vertex 39.0111 47.5496 75
      vertex 43.3448 52.3949 75
    endloop
  endfacet
  facet normal 0 0 1
    outer loop
      vertex 36.4362 57.4143 75
      vertex 32.9641 51.9431 75
      vertex 39.0111 47.5496 75
    endloop
  endfacet
  facet normal 0 0 1
    outer loop
      vertex 36.4362 57.4143 75
      vertex 32.744 52.0641 75
      vertex 32.9641 51.9431 75
    endloop
  endfacet
  facet normal 0 0 1
    outer loop
      vertex 28.953 61.5282 75
      vertex 32.744 52.0641 75
      vertex 36.4362 57.4143 75
    endloop
  endfacet
  facet normal 0 0 1
    outer loop
      vertex 28.953 61.5282 75
      vertex 26.1939 55.665 75
      vertex 32.744 52.0641 75
    endloop
  endfacet
  facet normal 0 0 1
    outer loop
      vertex 19.2442 58.4165 75
      vertex 28.953 61.5282 75
      vertex 21.0132 64.6718 75
    endloop
  endfacet
  facet normal 0 0 1
    outer loop
      vertex 28.953 61.5282 75
      vertex 19.2442 58.4165 75
      vertex 26.1939 55.665 75
    endloop
  endfacet
  facet normal 0 0 1
    outer loop
      vertex 21.0132 64.6718 75
      vertex 19.0107 58.509 75
      vertex 19.2442 58.4165 75
    endloop
  endfacet
  facet normal 0 0 1
    outer loop
      vertex 21.0132 64.6718 75
      vertex 18.7675 58.5715 75
      vertex 19.0107 58.509 75
    endloop
  endfacet
  facet normal 0 0 1
    outer loop
      vertex 12.7419 66.7955 75
      vertex 18.7675 58.5715 75
      vertex 21.0132 64.6718 75
    endloop
  endfacet
  facet normal 0 0 1
    outer loop
      vertex 12.7419 66.7955 75
      vertex 11.5277 60.4303 75
      vertex 18.7675 58.5715 75
    endloop
  endfacet
  facet normal 0 0 1
    outer loop
      vertex 4.11205 61.3671 75
      vertex 12.7419 66.7955 75
      vertex 4.26975 67.8658 75
    endloop
  endfacet
  facet normal 0 0 1
    outer loop
      vertex 12.7419 66.7955 75
      vertex 4.11205 61.3671 75
      vertex 11.5277 60.4303 75
    endloop
  endfacet
  facet normal 0 0 1
    outer loop
      vertex 4.26975 67.8658 75
      vertex 3.86287 61.3986 75
      vertex 4.11205 61.3671 75
    endloop
  endfacet
  facet normal 0 0 1
    outer loop
      vertex 4.26975 67.8658 75
      vertex -3.86287 61.3986 75
      vertex 3.86287 61.3986 75
    endloop
  endfacet
  facet normal -0 0 1
    outer loop
      vertex -4.26975 67.8658 75
      vertex -3.86287 61.3986 75
      vertex 4.26975 67.8658 75
    endloop
  endfacet
  facet normal 0 0 1
    outer loop
      vertex -3.86287 61.3986 75
      vertex -4.26975 67.8658 75
      vertex -4.11205 61.3671 75
    endloop
  endfacet
  facet normal -0 0 1
    outer loop
      vertex -12.7419 66.7955 75
      vertex -4.11205 61.3671 75
      vertex -4.26975 67.8658 75
    endloop
  endfacet
  facet normal 0 0 1
    outer loop
      vertex -4.11205 61.3671 75
      vertex -12.7419 66.7955 75
      vertex -11.5277 60.4303 75
    endloop
  endfacet
  facet normal 0 0 1
    outer loop
      vertex -12.7419 66.7955 75
      vertex -18.7675 58.5715 75
      vertex -11.5277 60.4303 75
    endloop
  endfacet
  facet normal -0 0 1
    outer loop
      vertex -21.0132 64.6718 75
      vertex -18.7675 58.5715 75
      vertex -12.7419 66.7955 75
    endloop
  endfacet
  facet normal 0 0 1
    outer loop
      vertex -18.7675 58.5715 75
      vertex -21.0132 64.6718 75
      vertex -19.0107 58.509 75
    endloop
  endfacet
  facet normal 0 0 1
    outer loop
      vertex -19.0107 58.509 75
      vertex -21.0132 64.6718 75
      vertex -19.2442 58.4165 75
    endloop
  endfacet
  facet normal -0 0 1
    outer loop
      vertex -28.953 61.5282 75
      vertex -19.2442 58.4165 75
      vertex -21.0132 64.6718 75
    endloop
  endfacet
  facet normal 0 0 1
    outer loop
      vertex -19.2442 58.4165 75
      vertex -28.953 61.5282 75
      vertex -26.1939 55.665 75
    endloop
  endfacet
  facet normal 0 0 1
    outer loop
      vertex -28.953 61.5282 75
      vertex -32.744 52.0641 75
      vertex -26.1939 55.665 75
    endloop
  endfacet
  facet normal -0 0 1
    outer loop
      vertex -36.4362 57.4143 75
      vertex -32.744 52.0641 75
      vertex -28.953 61.5282 75
    endloop
  endfacet
  facet normal 0 0 1
    outer loop
      vertex -32.744 52.0641 75
      vertex -36.4362 57.4143 75
      vertex -32.9641 51.9431 75
    endloop
  endfacet
  facet normal 0 0 1
    outer loop
      vertex -36.4362 57.4143 75
      vertex -39.0111 47.5496 75
      vertex -32.9641 51.9431 75
    endloop
  endfacet
  facet normal -0 0 1
    outer loop
      vertex -43.3448 52.3949 75
      vertex -39.0111 47.5496 75
      vertex -36.4362 57.4143 75
    endloop
  endfacet
  facet normal 0 0 1
    outer loop
      vertex -39.0111 47.5496 75
      vertex -43.3448 52.3949 75
      vertex -39.2143 47.402 75
    endloop
  endfacet
  facet normal 0 0 1
    outer loop
      vertex -39.2143 47.402 75
      vertex -43.3448 52.3949 75
      vertex -39.3974 47.23 75
    endloop
  endfacet
  facet normal 0 0 1
    outer loop
      vertex -49.5699 46.5492 75
      vertex -39.3974 47.23 75
      vertex -43.3448 52.3949 75
    endloop
  endfacet
  facet normal 0 0 1
    outer loop
      vertex -39.3974 47.23 75
      vertex -49.5699 46.5492 75
      vertex -44.8461 42.1133 75
    endloop
  endfacet
  facet normal 0 0 1
    outer loop
      vertex -44.8461 42.1133 75
      vertex -49.5699 46.5492 75
      vertex -45.0062 41.9198 75
    endloop
  endfacet
  facet normal 0 0 1
    outer loop
      vertex -55.0132 39.9694 75
      vertex -45.0062 41.9198 75
      vertex -49.5699 46.5492 75
    endloop
  endfacet
  facet normal 0 0 1
    outer loop
      vertex -45.0062 41.9198 75
      vertex -55.0132 39.9694 75
      vertex -49.7707 36.1605 75
    endloop
  endfacet
  facet normal 0 0 1
    outer loop
      vertex -49.7707 36.1605 75
      vertex -55.0132 39.9694 75
      vertex -53.7758 29.8495 75
    endloop
  endfacet
  facet normal -0 0 1
    outer loop
      vertex -59.5889 32.7593 75
      vertex -53.7758 29.8495 75
      vertex -55.0132 39.9694 75
    endloop
  endfacet
  facet normal 0 0 1
    outer loop
      vertex -53.7758 29.8495 75
      vertex -59.5889 32.7593 75
      vertex -53.9104 29.6375 75
    endloop
  endfacet
  facet normal 0 0 1
    outer loop
      vertex -53.9104 29.6375 75
      vertex -59.5889 32.7593 75
      vertex -57.0929 22.8743 75
    endloop
  endfacet
  facet normal -0 0 1
    outer loop
      vertex -63.2248 25.0325 75
      vertex -57.0929 22.8743 75
      vertex -59.5889 32.7593 75
    endloop
  endfacet
  facet normal 0 0 1
    outer loop
      vertex -57.0929 22.8743 75
      vertex -63.2248 25.0325 75
      vertex -57.1998 22.647 75
    endloop
  endfacet
  facet normal 0 0 1
    outer loop
      vertex -57.1998 22.647 75
      vertex -63.2248 25.0325 75
      vertex -59.5096 15.5383 75
    endloop
  endfacet
  facet normal -0 0 1
    outer loop
      vertex -65.8637 16.9109 75
      vertex -59.5096 15.5383 75
      vertex -63.2248 25.0325 75
    endloop
  endfacet
  facet normal 0 0 1
    outer loop
      vertex -59.5096 15.5383 75
      vertex -65.8637 16.9109 75
      vertex -59.5872 15.2994 75
    endloop
  endfacet
  facet normal 0 0 1
    outer loop
      vertex -59.5872 15.2994 75
      vertex -65.8637 16.9109 75
      vertex -59.6343 15.0527 75
    endloop
  endfacet
  facet normal 0 0 1
    outer loop
      vertex -67.4638 8.52266 75
      vertex -59.6343 15.0527 75
      vertex -65.8637 16.9109 75
    endloop
  endfacet
  facet normal 0 0 1
    outer loop
      vertex -59.6343 15.0527 75
      vertex -67.4638 8.52266 75
      vertex -61.0349 7.7105 75
    endloop
  endfacet
  facet normal 0 0 1
    outer loop
      vertex 59.6343 -15.0527 75
      vertex 67.4638 -8.52266 75
      vertex 61.0349 -7.7105 75
    endloop
  endfacet
  facet normal 0 0 1
    outer loop
      vertex 67.4638 -8.52266 75
      vertex 59.6343 -15.0527 75
      vertex 65.8637 -16.9109 75
    endloop
  endfacet
  facet normal -0 0 1
    outer loop
      vertex 59.5872 -15.2994 75
      vertex 65.8637 -16.9109 75
      vertex 59.6343 -15.0527 75
    endloop
  endfacet
  facet normal -0 0 1
    outer loop
      vertex 59.5096 -15.5383 75
      vertex 65.8637 -16.9109 75
      vertex 59.5872 -15.2994 75
    endloop
  endfacet
  facet normal 0 0 1
    outer loop
      vertex 65.8637 -16.9109 75
      vertex 59.5096 -15.5383 75
      vertex 63.2248 -25.0325 75
    endloop
  endfacet
  facet normal -0 0 1
    outer loop
      vertex 57.1998 -22.647 75
      vertex 63.2248 -25.0325 75
      vertex 59.5096 -15.5383 75
    endloop
  endfacet
  facet normal -0 0 1
    outer loop
      vertex 57.0929 -22.8743 75
      vertex 63.2248 -25.0325 75
      vertex 57.1998 -22.647 75
    endloop
  endfacet
  facet normal 0 0 1
    outer loop
      vertex 63.2248 -25.0325 75
      vertex 57.0929 -22.8743 75
      vertex 59.5889 -32.7593 75
    endloop
  endfacet
  facet normal -0 0 1
    outer loop
      vertex 53.9104 -29.6375 75
      vertex 59.5889 -32.7593 75
      vertex 57.0929 -22.8743 75
    endloop
  endfacet
  facet normal -0 0 1
    outer loop
      vertex 53.7758 -29.8495 75
      vertex 59.5889 -32.7593 75
      vertex 53.9104 -29.6375 75
    endloop
  endfacet
  facet normal 0 0 1
    outer loop
      vertex 59.5889 -32.7593 75
      vertex 53.7758 -29.8495 75
      vertex 55.0132 -39.9694 75
    endloop
  endfacet
  facet normal -0 0 1
    outer loop
      vertex 49.7707 -36.1605 75
      vertex 55.0132 -39.9694 75
      vertex 53.7758 -29.8495 75
    endloop
  endfacet
  facet normal 0 0 1
    outer loop
      vertex 45.0062 -41.9198 75
      vertex 55.0132 -39.9694 75
      vertex 49.7707 -36.1605 75
    endloop
  endfacet
  facet normal 0 0 1
    outer loop
      vertex 55.0132 -39.9694 75
      vertex 45.0062 -41.9198 75
      vertex 49.5699 -46.5492 75
    endloop
  endfacet
  facet normal -0 0 1
    outer loop
      vertex 44.8461 -42.1133 75
      vertex 49.5699 -46.5492 75
      vertex 45.0062 -41.9198 75
    endloop
  endfacet
  facet normal 0 0 1
    outer loop
      vertex 39.3974 -47.23 75
      vertex 49.5699 -46.5492 75
      vertex 44.8461 -42.1133 75
    endloop
  endfacet
  facet normal 0 0 1
    outer loop
      vertex 49.5699 -46.5492 75
      vertex 39.3974 -47.23 75
      vertex 43.3448 -52.3949 75
    endloop
  endfacet
  facet normal -0 0 1
    outer loop
      vertex 39.2143 -47.402 75
      vertex 43.3448 -52.3949 75
      vertex 39.3974 -47.23 75
    endloop
  endfacet
  facet normal -0 0 1
    outer loop
      vertex 39.0111 -47.5496 75
      vertex 43.3448 -52.3949 75
      vertex 39.2143 -47.402 75
    endloop
  endfacet
  facet normal 0 0 1
    outer loop
      vertex 39.0111 -47.5496 75
      vertex 36.4362 -57.4143 75
      vertex 43.3448 -52.3949 75
    endloop
  endfacet
  facet normal -0 0 1
    outer loop
      vertex 32.9641 -51.9431 75
      vertex 36.4362 -57.4143 75
      vertex 39.0111 -47.5496 75
    endloop
  endfacet
  facet normal -0 0 1
    outer loop
      vertex 32.744 -52.0641 75
      vertex 36.4362 -57.4143 75
      vertex 32.9641 -51.9431 75
    endloop
  endfacet
  facet normal 0 0 1
    outer loop
      vertex 32.744 -52.0641 75
      vertex 28.953 -61.5282 75
      vertex 36.4362 -57.4143 75
    endloop
  endfacet
  facet normal -0 0 1
    outer loop
      vertex 26.1939 -55.665 75
      vertex 28.953 -61.5282 75
      vertex 32.744 -52.0641 75
    endloop
  endfacet
  facet normal -0 0 1
    outer loop
      vertex 19.2442 -58.4165 75
      vertex 28.953 -61.5282 75
      vertex 26.1939 -55.665 75
    endloop
  endfacet
  facet normal 0 0 1
    outer loop
      vertex 28.953 -61.5282 75
      vertex 19.2442 -58.4165 75
      vertex 21.0132 -64.6718 75
    endloop
  endfacet
  facet normal -0 0 1
    outer loop
      vertex 19.0107 -58.509 75
      vertex 21.0132 -64.6718 75
      vertex 19.2442 -58.4165 75
    endloop
  endfacet
  facet normal -0 0 1
    outer loop
      vertex 18.7675 -58.5715 75
      vertex 21.0132 -64.6718 75
      vertex 19.0107 -58.509 75
    endloop
  endfacet
  facet normal 0 0 1
    outer loop
      vertex 18.7675 -58.5715 75
      vertex 12.7419 -66.7955 75
      vertex 21.0132 -64.6718 75
    endloop
  endfacet
  facet normal -0 0 1
    outer loop
      vertex 11.5277 -60.4303 75
      vertex 12.7419 -66.7955 75
      vertex 18.7675 -58.5715 75
    endloop
  endfacet
  facet normal -0 0 1
    outer loop
      vertex 4.11205 -61.3671 75
      vertex 12.7419 -66.7955 75
      vertex 11.5277 -60.4303 75
    endloop
  endfacet
  facet normal 0 0 1
    outer loop
      vertex 12.7419 -66.7955 75
      vertex 4.11205 -61.3671 75
      vertex 4.26975 -67.8658 75
    endloop
  endfacet
  facet normal -0 0 1
    outer loop
      vertex 3.86287 -61.3986 75
      vertex 4.26975 -67.8658 75
      vertex 4.11205 -61.3671 75
    endloop
  endfacet
  facet normal -0 0 1
    outer loop
      vertex -3.86287 -61.3986 75
      vertex 4.26975 -67.8658 75
      vertex 3.86287 -61.3986 75
    endloop
  endfacet
  facet normal 0 0 1
    outer loop
      vertex -4.26975 -67.8658 75
      vertex -3.86287 -61.3986 75
      vertex -4.11205 -61.3671 75
    endloop
  endfacet
  facet normal 0 0 1
    outer loop
      vertex -3.86287 -61.3986 75
      vertex -4.26975 -67.8658 75
      vertex 4.26975 -67.8658 75
    endloop
  endfacet
  facet normal 0 0 1
    outer loop
      vertex -12.7419 -66.7955 75
      vertex -4.11205 -61.3671 75
      vertex -11.5277 -60.4303 75
    endloop
  endfacet
  facet normal 0 0 1
    outer loop
      vertex -4.11205 -61.3671 75
      vertex -12.7419 -66.7955 75
      vertex -4.26975 -67.8658 75
    endloop
  endfacet
  facet normal 0 0 1
    outer loop
      vertex -18.7675 -58.5715 75
      vertex -12.7419 -66.7955 75
      vertex -11.5277 -60.4303 75
    endloop
  endfacet
  facet normal 0 0 1
    outer loop
      vertex -21.0132 -64.6718 75
      vertex -18.7675 -58.5715 75
      vertex -19.0107 -58.509 75
    endloop
  endfacet
  facet normal 0 0 1
    outer loop
      vertex -21.0132 -64.6718 75
      vertex -19.0107 -58.509 75
      vertex -19.2442 -58.4165 75
    endloop
  endfacet
  facet normal 0 0 1
    outer loop
      vertex -18.7675 -58.5715 75
      vertex -21.0132 -64.6718 75
      vertex -12.7419 -66.7955 75
    endloop
  endfacet
  facet normal 0 0 1
    outer loop
      vertex -28.953 -61.5282 75
      vertex -19.2442 -58.4165 75
      vertex -26.1939 -55.665 75
    endloop
  endfacet
  facet normal 0 0 1
    outer loop
      vertex -19.2442 -58.4165 75
      vertex -28.953 -61.5282 75
      vertex -21.0132 -64.6718 75
    endloop
  endfacet
  facet normal 0 0 1
    outer loop
      vertex -32.744 -52.0641 75
      vertex -28.953 -61.5282 75
      vertex -26.1939 -55.665 75
    endloop
  endfacet
  facet normal 0 0 1
    outer loop
      vertex -36.4362 -57.4143 75
      vertex -32.744 -52.0641 75
      vertex -32.9641 -51.9431 75
    endloop
  endfacet
  facet normal 0 0 1
    outer loop
      vertex -32.744 -52.0641 75
      vertex -36.4362 -57.4143 75
      vertex -28.953 -61.5282 75
    endloop
  endfacet
  facet normal 0 0 1
    outer loop
      vertex -39.0111 -47.5496 75
      vertex -36.4362 -57.4143 75
      vertex -32.9641 -51.9431 75
    endloop
  endfacet
  facet normal 0 0 1
    outer loop
      vertex -43.3448 -52.3949 75
      vertex -39.0111 -47.5496 75
      vertex -39.2143 -47.402 75
    endloop
  endfacet
  facet normal 0 0 1
    outer loop
      vertex -43.3448 -52.3949 75
      vertex -39.2143 -47.402 75
      vertex -39.3974 -47.23 75
    endloop
  endfacet
  facet normal 0 0 1
    outer loop
      vertex -39.0111 -47.5496 75
      vertex -43.3448 -52.3949 75
      vertex -36.4362 -57.4143 75
    endloop
  endfacet
  facet normal -0 0 1
    outer loop
      vertex -49.5699 -46.5492 75
      vertex -39.3974 -47.23 75
      vertex -44.8461 -42.1133 75
    endloop
  endfacet
  facet normal 0 0 1
    outer loop
      vertex -49.5699 -46.5492 75
      vertex -44.8461 -42.1133 75
      vertex -45.0062 -41.9198 75
    endloop
  endfacet
  facet normal 0 0 1
    outer loop
      vertex -39.3974 -47.23 75
      vertex -49.5699 -46.5492 75
      vertex -43.3448 -52.3949 75
    endloop
  endfacet
  facet normal -0 0 1
    outer loop
      vertex -55.0132 -39.9694 75
      vertex -45.0062 -41.9198 75
      vertex -49.7707 -36.1605 75
    endloop
  endfacet
  facet normal 0 0 1
    outer loop
      vertex -55.0132 -39.9694 75
      vertex -49.7707 -36.1605 75
      vertex -53.7758 -29.8495 75
    endloop
  endfacet
  facet normal 0 0 1
    outer loop
      vertex -59.5889 -32.7593 75
      vertex -53.7758 -29.8495 75
      vertex -53.9104 -29.6375 75
    endloop
  endfacet
  facet normal 0 0 1
    outer loop
      vertex -45.0062 -41.9198 75
      vertex -55.0132 -39.9694 75
      vertex -49.5699 -46.5492 75
    endloop
  endfacet
  facet normal 0 0 1
    outer loop
      vertex -59.5889 -32.7593 75
      vertex -53.9104 -29.6375 75
      vertex -57.0929 -22.8743 75
    endloop
  endfacet
  facet normal 0 0 1
    outer loop
      vertex -63.2248 -25.0325 75
      vertex -57.0929 -22.8743 75
      vertex -57.1998 -22.647 75
    endloop
  endfacet
  facet normal 0 0 1
    outer loop
      vertex -63.2248 -25.0325 75
      vertex -57.1998 -22.647 75
      vertex -59.5096 -15.5383 75
    endloop
  endfacet
  facet normal 0 0 1
    outer loop
      vertex -65.8637 -16.9109 75
      vertex -59.5096 -15.5383 75
      vertex -59.5872 -15.2994 75
    endloop
  endfacet
  facet normal 0 0 1
    outer loop
      vertex -53.7758 -29.8495 75
      vertex -59.5889 -32.7593 75
      vertex -55.0132 -39.9694 75
    endloop
  endfacet
  facet normal 0 0 1
    outer loop
      vertex -65.8637 -16.9109 75
      vertex -59.5872 -15.2994 75
      vertex -59.6343 -15.0527 75
    endloop
  endfacet
  facet normal -0 0 1
    outer loop
      vertex -67.4638 -8.52266 75
      vertex -59.6343 -15.0527 75
      vertex -61.0349 -7.7105 75
    endloop
  endfacet
  facet normal 0 0 1
    outer loop
      vertex -67.4638 -8.52266 75
      vertex -61.0349 -7.7105 75
      vertex -61.0507 -7.45983 75
    endloop
  endfacet
  facet normal -0 0 1
    outer loop
      vertex -68 0 75
      vertex -61.0507 -7.45983 75
      vertex -61.52 0 75
    endloop
  endfacet
  facet normal 0 0 1
    outer loop
      vertex -61.0349 7.7105 75
      vertex -67.4638 8.52266 75
      vertex -61.0507 7.45983 75
    endloop
  endfacet
  facet normal 0 0 1
    outer loop
      vertex -57.0929 -22.8743 75
      vertex -63.2248 -25.0325 75
      vertex -59.5889 -32.7593 75
    endloop
  endfacet
  facet normal 0 0 1
    outer loop
      vertex -68 0 75
      vertex -61.0507 7.45983 75
      vertex -67.4638 8.52266 75
    endloop
  endfacet
  facet normal 0 0 1
    outer loop
      vertex -59.5096 -15.5383 75
      vertex -65.8637 -16.9109 75
      vertex -63.2248 -25.0325 75
    endloop
  endfacet
  facet normal 0 0 1
    outer loop
      vertex -61.0507 7.45983 75
      vertex -68 0 75
      vertex -61.52 0 75
    endloop
  endfacet
  facet normal 0 0 1
    outer loop
      vertex -59.6343 -15.0527 75
      vertex -67.4638 -8.52266 75
      vertex -65.8637 -16.9109 75
    endloop
  endfacet
  facet normal 0 0 1
    outer loop
      vertex -61.0507 -7.45983 75
      vertex -68 0 75
      vertex -67.4638 -8.52266 75
    endloop
  endfacet
  facet normal -0.768069 0.635402 -0.0795889
    outer loop
      vertex -45.305 32.916 -75
      vertex -49.5699 46.5492 75
      vertex -40.8222 38.3346 -75
    endloop
  endfacet
  facet normal -0.366957 0.926827 -0.0795889
    outer loop
      vertex -23.8436 50.6703 -75
      vertex -28.953 61.5282 75
      vertex -17.305 53.2592 -75
    endloop
  endfacet
  facet normal 0 0.996828 -0.0795888
    outer loop
      vertex 3.51627 55.8895 -75
      vertex -4.26975 67.8658 75
      vertex 4.26975 67.8658 75
    endloop
  endfacet
  facet normal 0 0.996828 -0.0795888
    outer loop
      vertex -4.26975 67.8658 75
      vertex 3.51627 55.8895 -75
      vertex -3.51627 55.8895 -75
    endloop
  endfacet
  facet normal 0.682376 0.726656 -0.0795888
    outer loop
      vertex 40.8222 38.3346 -75
      vertex 35.6957 43.1487 -75
      vertex 43.3448 52.3949 75
    endloop
  endfacet
  facet normal 0.768069 0.635402 -0.0795889
    outer loop
      vertex 45.305 32.916 -75
      vertex 40.8222 38.3346 -75
      vertex 49.5699 46.5492 75
    endloop
  endfacet
  facet normal 0.682376 0.726656 -0.0795889
    outer loop
      vertex 49.5699 46.5492 75
      vertex 40.8222 38.3346 -75
      vertex 43.3448 52.3949 75
    endloop
  endfacet
  facet normal 0.84165 -0.534127 -0.0795889
    outer loop
      vertex 55.0132 -39.9694 75
      vertex 45.305 -32.916 -75
      vertex 59.5889 -32.7593 75
    endloop
  endfacet
  facet normal 0.768069 -0.635402 -0.0795889
    outer loop
      vertex 49.5699 -46.5492 75
      vertex 45.305 -32.916 -75
      vertex 55.0132 -39.9694 75
    endloop
  endfacet
  facet normal 0.247901 -0.96551 -0.0795888
    outer loop
      vertex 12.7419 -66.7955 75
      vertex 10.4934 -55.0081 -75
      vertex 17.305 -53.2592 -75
    endloop
  endfacet
  facet normal 0.124935 -0.988968 -0.0795888
    outer loop
      vertex 12.7419 -66.7955 75
      vertex 4.26975 -67.8658 75
      vertex 10.4934 -55.0081 -75
    endloop
  endfacet
  facet normal 0.585921 -0.806451 -0.0795889
    outer loop
      vertex 36.4362 -57.4143 75
      vertex 30.0063 -47.2824 -75
      vertex 43.3448 -52.3949 75
    endloop
  endfacet
  facet normal 0.585921 -0.806451 -0.0795889
    outer loop
      vertex 43.3448 -52.3949 75
      vertex 30.0063 -47.2824 -75
      vertex 35.6957 -43.1487 -75
    endloop
  endfacet
  facet normal 0.366957 -0.926827 -0.0795889
    outer loop
      vertex 28.953 -61.5282 75
      vertex 17.305 -53.2592 -75
      vertex 23.8436 -50.6703 -75
    endloop
  endfacet
  facet normal -0.901957 -0.424429 -0.0795888
    outer loop
      vertex -49.0732 -26.9782 -75
      vertex -59.5889 -32.7593 75
      vertex -52.0675 -20.615 -75
    endloop
  endfacet
  facet normal -0.366957 -0.926827 -0.0795889
    outer loop
      vertex -17.305 -53.2592 -75
      vertex -28.953 -61.5282 75
      vertex -23.8436 -50.6703 -75
    endloop
  endfacet
  facet normal -0.366957 0.926827 -0.0795889
    outer loop
      vertex -17.305 53.2592 -75
      vertex -28.953 61.5282 75
      vertex -21.0132 64.6718 75
    endloop
  endfacet
  facet normal -0.979171 0.186787 -0.0795889
    outer loop
      vertex -54.2407 13.9266 -75
      vertex -67.4638 8.52266 75
      vertex -65.8637 16.9109 75
    endloop
  endfacet
  facet normal -0.682376 0.726656 -0.0795889
    outer loop
      vertex -40.8222 38.3346 -75
      vertex -49.5699 46.5492 75
      vertex -43.3448 52.3949 75
    endloop
  endfacet
  facet normal -0.768069 0.635402 -0.0795889
    outer loop
      vertex -45.305 32.916 -75
      vertex -55.0132 39.9694 75
      vertex -49.5699 46.5492 75
    endloop
  endfacet
  facet normal -0.585921 0.806451 -0.0795889
    outer loop
      vertex -30.0063 47.2824 -75
      vertex -43.3448 52.3949 75
      vertex -36.4362 57.4143 75
    endloop
  endfacet
  facet normal -0.480225 0.873527 -0.0795889
    outer loop
      vertex -30.0063 47.2824 -75
      vertex -36.4362 57.4143 75
      vertex -23.8436 50.6703 -75
    endloop
  endfacet
  facet normal -0.247901 0.965511 -0.0795889
    outer loop
      vertex -17.305 53.2592 -75
      vertex -21.0132 64.6718 75
      vertex -12.7419 66.7955 75
    endloop
  endfacet
  facet normal -0.247901 0.96551 -0.0795888
    outer loop
      vertex -10.4934 55.0081 -75
      vertex -17.305 53.2592 -75
      vertex -12.7419 66.7955 75
    endloop
  endfacet
  facet normal 0.124935 0.988968 -0.0795888
    outer loop
      vertex 10.4934 55.0081 -75
      vertex 3.51627 55.8895 -75
      vertex 4.26975 67.8658 75
    endloop
  endfacet
  facet normal -0.124935 0.988968 -0.0795888
    outer loop
      vertex -3.51627 55.8895 -75
      vertex -10.4934 55.0081 -75
      vertex -4.26975 67.8658 75
    endloop
  endfacet
  facet normal 0.585921 0.806451 -0.0795889
    outer loop
      vertex 35.6957 43.1487 -75
      vertex 30.0063 47.2824 -75
      vertex 43.3448 52.3949 75
    endloop
  endfacet
  facet normal 0.768069 0.635402 -0.0795889
    outer loop
      vertex 55.0132 39.9694 75
      vertex 45.305 32.916 -75
      vertex 49.5699 46.5492 75
    endloop
  endfacet
  facet normal 0.841649 0.534127 -0.0795889
    outer loop
      vertex 49.0732 26.9782 -75
      vertex 45.305 32.916 -75
      vertex 59.5889 32.7593 75
    endloop
  endfacet
  facet normal 0.948039 0.308037 -0.0795889
    outer loop
      vertex 54.2407 13.9266 -75
      vertex 52.0675 20.615 -75
      vertex 63.2248 25.0325 75
    endloop
  endfacet
  facet normal 0.901957 0.424429 -0.0795889
    outer loop
      vertex 63.2248 25.0325 75
      vertex 52.0675 20.615 -75
      vertex 59.5889 32.7593 75
    endloop
  endfacet
  facet normal 0.979171 0.186787 -0.0795889
    outer loop
      vertex 67.4638 8.52266 75
      vertex 54.2407 13.9266 -75
      vertex 65.8637 16.9109 75
    endloop
  endfacet
  facet normal 0.979171 0.186787 -0.0795889
    outer loop
      vertex 55.5584 7.01866 -75
      vertex 54.2407 13.9266 -75
      vertex 67.4638 8.52266 75
    endloop
  endfacet
  facet normal -0.994861 -0.0625915 -0.0795889
    outer loop
      vertex -67.4638 -8.52266 75
      vertex -68 0 75
      vertex -56 0 -75
    endloop
  endfacet
  facet normal -0.994861 0.0625915 -0.0795889
    outer loop
      vertex -56 0 -75
      vertex -68 0 75
      vertex -67.4638 8.52266 75
    endloop
  endfacet
  facet normal -0.901957 0.424429 -0.0795888
    outer loop
      vertex -52.0675 20.615 -75
      vertex -59.5889 32.7593 75
      vertex -49.0732 26.9782 -75
    endloop
  endfacet
  facet normal -0.94804 0.308037 -0.0795889
    outer loop
      vertex -54.2407 13.9266 -75
      vertex -65.8637 16.9109 75
      vertex -63.2248 25.0325 75
    endloop
  endfacet
  facet normal -0.841649 0.534127 -0.0795889
    outer loop
      vertex -49.0732 26.9782 -75
      vertex -59.5889 32.7593 75
      vertex -45.305 32.916 -75
    endloop
  endfacet
  facet normal -0.682376 0.726656 -0.0795888
    outer loop
      vertex -40.8222 38.3346 -75
      vertex -43.3448 52.3949 75
      vertex -35.6957 43.1487 -75
    endloop
  endfacet
  facet normal -0.585921 0.806451 -0.0795889
    outer loop
      vertex -35.6957 43.1487 -75
      vertex -43.3448 52.3949 75
      vertex -30.0063 47.2824 -75
    endloop
  endfacet
  facet normal 0.366957 0.926827 -0.0795889
    outer loop
      vertex 23.8436 50.6703 -75
      vertex 17.305 53.2592 -75
      vertex 28.953 61.5282 75
    endloop
  endfacet
  facet normal 0.366957 0.926827 -0.0795889
    outer loop
      vertex 28.953 61.5282 75
      vertex 17.305 53.2592 -75
      vertex 21.0132 64.6718 75
    endloop
  endfacet
  facet normal 0.247901 0.965511 -0.0795889
    outer loop
      vertex 17.305 53.2592 -75
      vertex 12.7419 66.7955 75
      vertex 21.0132 64.6718 75
    endloop
  endfacet
  facet normal 0.247901 0.96551 -0.0795888
    outer loop
      vertex 17.305 53.2592 -75
      vertex 10.4934 55.0081 -75
      vertex 12.7419 66.7955 75
    endloop
  endfacet
  facet normal 0 0 -1
    outer loop
      vertex 55.5584 -7.01866 -75
      vertex 55.5584 7.01866 -75
      vertex 56 0 -75
    endloop
  endfacet
  facet normal 0 0 -1
    outer loop
      vertex 54.2407 -13.9266 -75
      vertex 55.5584 7.01866 -75
      vertex 55.5584 -7.01866 -75
    endloop
  endfacet
  facet normal 0 0 -1
    outer loop
      vertex 54.2407 -13.9266 -75
      vertex 54.2407 13.9266 -75
      vertex 55.5584 7.01866 -75
    endloop
  endfacet
  facet normal 0 0 -1
    outer loop
      vertex 52.0675 -20.615 -75
      vertex 54.2407 13.9266 -75
      vertex 54.2407 -13.9266 -75
    endloop
  endfacet
  facet normal 0 0 -1
    outer loop
      vertex 52.0675 -20.615 -75
      vertex 52.0675 20.615 -75
      vertex 54.2407 13.9266 -75
    endloop
  endfacet
  facet normal 0 0 -1
    outer loop
      vertex 49.0732 -26.9782 -75
      vertex 52.0675 20.615 -75
      vertex 52.0675 -20.615 -75
    endloop
  endfacet
  facet normal 0 0 -1
    outer loop
      vertex 49.0732 -26.9782 -75
      vertex 49.0732 26.9782 -75
      vertex 52.0675 20.615 -75
    endloop
  endfacet
  facet normal 0 0 -1
    outer loop
      vertex 45.305 -32.916 -75
      vertex 49.0732 26.9782 -75
      vertex 49.0732 -26.9782 -75
    endloop
  endfacet
  facet normal 0 0 -1
    outer loop
      vertex 45.305 -32.916 -75
      vertex 45.305 32.916 -75
      vertex 49.0732 26.9782 -75
    endloop
  endfacet
  facet normal 0 0 -1
    outer loop
      vertex 40.8222 -38.3346 -75
      vertex 45.305 32.916 -75
      vertex 45.305 -32.916 -75
    endloop
  endfacet
  facet normal 0 0 -1
    outer loop
      vertex 40.8222 -38.3346 -75
      vertex 40.8222 38.3346 -75
      vertex 45.305 32.916 -75
    endloop
  endfacet
  facet normal 0 0 -1
    outer loop
      vertex 35.6957 -43.1487 -75
      vertex 40.8222 38.3346 -75
      vertex 40.8222 -38.3346 -75
    endloop
  endfacet
  facet normal 0 0 -1
    outer loop
      vertex 35.6957 -43.1487 -75
      vertex 35.6957 43.1487 -75
      vertex 40.8222 38.3346 -75
    endloop
  endfacet
  facet normal 0 0 -1
    outer loop
      vertex 30.0063 -47.2824 -75
      vertex 35.6957 43.1487 -75
      vertex 35.6957 -43.1487 -75
    endloop
  endfacet
  facet normal 0 0 -1
    outer loop
      vertex 30.0063 -47.2824 -75
      vertex 30.0063 47.2824 -75
      vertex 35.6957 43.1487 -75
    endloop
  endfacet
  facet normal 0 0 -1
    outer loop
      vertex 23.8436 -50.6703 -75
      vertex 30.0063 47.2824 -75
      vertex 30.0063 -47.2824 -75
    endloop
  endfacet
  facet normal 0 0 -1
    outer loop
      vertex 23.8436 -50.6703 -75
      vertex 23.8436 50.6703 -75
      vertex 30.0063 47.2824 -75
    endloop
  endfacet
  facet normal 0 0 -1
    outer loop
      vertex 17.305 -53.2592 -75
      vertex 23.8436 50.6703 -75
      vertex 23.8436 -50.6703 -75
    endloop
  endfacet
  facet normal 0 0 -1
    outer loop
      vertex 17.305 -53.2592 -75
      vertex 17.305 53.2592 -75
      vertex 23.8436 50.6703 -75
    endloop
  endfacet
  facet normal 0 0 -1
    outer loop
      vertex 10.4934 -55.0081 -75
      vertex 17.305 53.2592 -75
      vertex 17.305 -53.2592 -75
    endloop
  endfacet
  facet normal 0 0 -1
    outer loop
      vertex 10.4934 -55.0081 -75
      vertex 10.4934 55.0081 -75
      vertex 17.305 53.2592 -75
    endloop
  endfacet
  facet normal 0 0 -1
    outer loop
      vertex 3.51627 -55.8895 -75
      vertex 10.4934 55.0081 -75
      vertex 10.4934 -55.0081 -75
    endloop
  endfacet
  facet normal 0 0 -1
    outer loop
      vertex 3.51627 -55.8895 -75
      vertex 3.51627 55.8895 -75
      vertex 10.4934 55.0081 -75
    endloop
  endfacet
  facet normal 0 0 -1
    outer loop
      vertex -3.51627 -55.8895 -75
      vertex 3.51627 55.8895 -75
      vertex 3.51627 -55.8895 -75
    endloop
  endfacet
  facet normal 0 0 -1
    outer loop
      vertex -3.51627 -55.8895 -75
      vertex -3.51627 55.8895 -75
      vertex 3.51627 55.8895 -75
    endloop
  endfacet
  facet normal 0 0 -1
    outer loop
      vertex -10.4934 -55.0081 -75
      vertex -3.51627 55.8895 -75
      vertex -3.51627 -55.8895 -75
    endloop
  endfacet
  facet normal 0 0 -1
    outer loop
      vertex -10.4934 -55.0081 -75
      vertex -10.4934 55.0081 -75
      vertex -3.51627 55.8895 -75
    endloop
  endfacet
  facet normal 0 0 -1
    outer loop
      vertex -17.305 -53.2592 -75
      vertex -10.4934 55.0081 -75
      vertex -10.4934 -55.0081 -75
    endloop
  endfacet
  facet normal 0 0 -1
    outer loop
      vertex -17.305 -53.2592 -75
      vertex -17.305 53.2592 -75
      vertex -10.4934 55.0081 -75
    endloop
  endfacet
  facet normal 0 0 -1
    outer loop
      vertex -23.8436 -50.6703 -75
      vertex -17.305 53.2592 -75
      vertex -17.305 -53.2592 -75
    endloop
  endfacet
  facet normal 0 0 -1
    outer loop
      vertex -23.8436 -50.6703 -75
      vertex -23.8436 50.6703 -75
      vertex -17.305 53.2592 -75
    endloop
  endfacet
  facet normal 0 0 -1
    outer loop
      vertex -30.0063 -47.2824 -75
      vertex -23.8436 50.6703 -75
      vertex -23.8436 -50.6703 -75
    endloop
  endfacet
  facet normal 0 0 -1
    outer loop
      vertex -30.0063 -47.2824 -75
      vertex -30.0063 47.2824 -75
      vertex -23.8436 50.6703 -75
    endloop
  endfacet
  facet normal 0 0 -1
    outer loop
      vertex -35.6957 -43.1487 -75
      vertex -30.0063 47.2824 -75
      vertex -30.0063 -47.2824 -75
    endloop
  endfacet
  facet normal 0 0 -1
    outer loop
      vertex -35.6957 -43.1487 -75
      vertex -35.6957 43.1487 -75
      vertex -30.0063 47.2824 -75
    endloop
  endfacet
  facet normal 0 0 -1
    outer loop
      vertex -40.8222 -38.3346 -75
      vertex -35.6957 43.1487 -75
      vertex -35.6957 -43.1487 -75
    endloop
  endfacet
  facet normal 0 0 -1
    outer loop
      vertex -40.8222 -38.3346 -75
      vertex -40.8222 38.3346 -75
      vertex -35.6957 43.1487 -75
    endloop
  endfacet
  facet normal 0 0 -1
    outer loop
      vertex -45.305 -32.916 -75
      vertex -40.8222 38.3346 -75
      vertex -40.8222 -38.3346 -75
    endloop
  endfacet
  facet normal 0 0 -1
    outer loop
      vertex -45.305 -32.916 -75
      vertex -45.305 32.916 -75
      vertex -40.8222 38.3346 -75
    endloop
  endfacet
  facet normal 0 0 -1
    outer loop
      vertex -49.0732 -26.9782 -75
      vertex -45.305 32.916 -75
      vertex -45.305 -32.916 -75
    endloop
  endfacet
  facet normal 0 0 -1
    outer loop
      vertex -49.0732 -26.9782 -75
      vertex -49.0732 26.9782 -75
      vertex -45.305 32.916 -75
    endloop
  endfacet
  facet normal 0 0 -1
    outer loop
      vertex -52.0675 -20.615 -75
      vertex -49.0732 26.9782 -75
      vertex -49.0732 -26.9782 -75
    endloop
  endfacet
  facet normal 0 0 -1
    outer loop
      vertex -52.0675 -20.615 -75
      vertex -52.0675 20.615 -75
      vertex -49.0732 26.9782 -75
    endloop
  endfacet
  facet normal 0 0 -1
    outer loop
      vertex -54.2407 -13.9266 -75
      vertex -52.0675 20.615 -75
      vertex -52.0675 -20.615 -75
    endloop
  endfacet
  facet normal 0 0 -1
    outer loop
      vertex -54.2407 -13.9266 -75
      vertex -54.2407 13.9266 -75
      vertex -52.0675 20.615 -75
    endloop
  endfacet
  facet normal 0 0 -1
    outer loop
      vertex -55.5584 -7.01866 -75
      vertex -54.2407 13.9266 -75
      vertex -54.2407 -13.9266 -75
    endloop
  endfacet
  facet normal 0 0 -1
    outer loop
      vertex -55.5584 -7.01866 -75
      vertex -55.5584 7.01866 -75
      vertex -54.2407 13.9266 -75
    endloop
  endfacet
  facet normal 0 -0 -1
    outer loop
      vertex -55.5584 7.01866 -75
      vertex -55.5584 -7.01866 -75
      vertex -56 0 -75
    endloop
  endfacet
  facet normal -0.994861 -0.0625915 -0.0795889
    outer loop
      vertex -55.5584 -7.01866 -75
      vertex -67.4638 -8.52266 75
      vertex -56 0 -75
    endloop
  endfacet
  facet normal -0.948039 0.308037 -0.0795889
    outer loop
      vertex -54.2407 13.9266 -75
      vertex -63.2248 25.0325 75
      vertex -52.0675 20.615 -75
    endloop
  endfacet
  facet normal -0.901957 0.424429 -0.0795889
    outer loop
      vertex -52.0675 20.615 -75
      vertex -63.2248 25.0325 75
      vertex -59.5889 32.7593 75
    endloop
  endfacet
  facet normal 0.480225 0.873527 -0.0795889
    outer loop
      vertex 36.4362 57.4143 75
      vertex 23.8436 50.6703 -75
      vertex 28.953 61.5282 75
    endloop
  endfacet
  facet normal 0.480225 0.873527 -0.0795889
    outer loop
      vertex 30.0063 47.2824 -75
      vertex 23.8436 50.6703 -75
      vertex 36.4362 57.4143 75
    endloop
  endfacet
  facet normal -0.994861 0.0625915 -0.0795889
    outer loop
      vertex -56 0 -75
      vertex -67.4638 8.52266 75
      vertex -55.5584 7.01866 -75
    endloop
  endfacet
  facet normal -0.979171 0.186787 -0.0795889
    outer loop
      vertex -55.5584 7.01866 -75
      vertex -67.4638 8.52266 75
      vertex -54.2407 13.9266 -75
    endloop
  endfacet
  facet normal -0.768069 0.635402 0.0795888
    outer loop
      vertex 36.4484 -34.2274 -69
      vertex 45.0062 -41.9198 75
      vertex 40.4509 -29.3893 -69
    endloop
  endfacet
  facet normal -0.768071 0.635399 0.0795888
    outer loop
      vertex 45.0062 -41.9198 75
      vertex 36.4484 -34.2274 -69
      vertex 44.8461 -42.1133 75
    endloop
  endfacet
  facet normal -0.994861 -0.0625914 0.0795889
    outer loop
      vertex 61.52 0 75
      vertex 61.0507 7.45983 75
      vertex 50 0 -69
    endloop
  endfacet
  facet normal -0.994861 -0.0625889 0.0795888
    outer loop
      vertex 49.6057 6.26666 -69
      vertex 61.0507 7.45983 75
      vertex 61.0349 7.7105 75
    endloop
  endfacet
  facet normal -0.994861 -0.0625912 0.0795889
    outer loop
      vertex 61.0507 7.45983 75
      vertex 49.6057 6.26666 -69
      vertex 50 0 -69
    endloop
  endfacet
  facet normal -0.994861 0.0625912 0.0795889
    outer loop
      vertex 49.6057 -6.26666 -69
      vertex 61.0507 -7.45983 75
      vertex 50 0 -69
    endloop
  endfacet
  facet normal -0.994861 0.0625889 0.0795888
    outer loop
      vertex 61.0507 -7.45983 75
      vertex 49.6057 -6.26666 -69
      vertex 61.0349 -7.7105 75
    endloop
  endfacet
  facet normal 0.994861 0.0625912 0.0795889
    outer loop
      vertex -61.0507 -7.45983 75
      vertex -49.6057 -6.26666 -69
      vertex -50 0 -69
    endloop
  endfacet
  facet normal 0.994861 0.0625889 0.0795888
    outer loop
      vertex -49.6057 -6.26666 -69
      vertex -61.0507 -7.45983 75
      vertex -61.0349 -7.7105 75
    endloop
  endfacet
  facet normal 0.124936 -0.988967 0.0795889
    outer loop
      vertex -3.13953 49.9013 -69
      vertex -4.11205 61.3671 75
      vertex -9.36907 49.1144 -69
    endloop
  endfacet
  facet normal 0.124935 -0.988968 0.0795889
    outer loop
      vertex -4.11205 61.3671 75
      vertex -3.13953 49.9013 -69
      vertex -3.86287 61.3986 75
    endloop
  endfacet
  facet normal 0.768069 -0.635402 0.0795888
    outer loop
      vertex -40.4509 29.3893 -69
      vertex -45.0062 41.9198 75
      vertex -49.7707 36.1605 75
    endloop
  endfacet
  facet normal -0.94804 0.308037 0.0795889
    outer loop
      vertex 57.1998 -22.647 75
      vertex 59.5096 -15.5383 75
      vertex 46.4888 -18.4062 -69
    endloop
  endfacet
  facet normal -0.994861 0.0625914 0.0795889
    outer loop
      vertex 61.0507 -7.45983 75
      vertex 61.52 0 75
      vertex 50 0 -69
    endloop
  endfacet
  facet normal -0.901957 0.424429 0.0795888
    outer loop
      vertex 53.9104 -29.6375 75
      vertex 57.0929 -22.8743 75
      vertex 43.8153 -24.0877 -69
    endloop
  endfacet
  facet normal -0.84165 0.534127 0.0795888
    outer loop
      vertex 40.4509 -29.3893 -69
      vertex 53.9104 -29.6375 75
      vertex 43.8153 -24.0877 -69
    endloop
  endfacet
  facet normal -0.84165 0.534126 0.0795889
    outer loop
      vertex 53.9104 -29.6375 75
      vertex 40.4509 -29.3893 -69
      vertex 53.7758 -29.8495 75
    endloop
  endfacet
  facet normal 0.124935 0.988968 0.0795889
    outer loop
      vertex -3.13953 -49.9013 -69
      vertex -4.11205 -61.3671 75
      vertex -3.86287 -61.3986 75
    endloop
  endfacet
  facet normal 0.124936 0.988967 0.0795889
    outer loop
      vertex -4.11205 -61.3671 75
      vertex -3.13953 -49.9013 -69
      vertex -9.36907 -49.1144 -69
    endloop
  endfacet
  facet normal 0.979171 0.186787 0.0795889
    outer loop
      vertex -59.6343 -15.0527 75
      vertex -49.6057 -6.26666 -69
      vertex -61.0349 -7.7105 75
    endloop
  endfacet
  facet normal 0.585921 0.80645 0.0795889
    outer loop
      vertex -32.9641 -51.9431 75
      vertex -26.7913 -42.2164 -69
      vertex -39.0111 -47.5496 75
    endloop
  endfacet
  facet normal 0.94804 -0.308037 0.0795889
    outer loop
      vertex -46.4888 18.4062 -69
      vertex -57.1998 22.647 75
      vertex -59.5096 15.5383 75
    endloop
  endfacet
  facet normal -0.585921 -0.80645 0.0795889
    outer loop
      vertex 39.0111 47.5496 75
      vertex 32.9641 51.9431 75
      vertex 26.7913 42.2164 -69
    endloop
  endfacet
  facet normal -0.585921 -0.806451 0.0795889
    outer loop
      vertex 31.8712 38.5257 -69
      vertex 39.0111 47.5496 75
      vertex 26.7913 42.2164 -69
    endloop
  endfacet
  facet normal -0.585913 -0.806456 0.0795888
    outer loop
      vertex 39.0111 47.5496 75
      vertex 31.8712 38.5257 -69
      vertex 39.2143 47.402 75
    endloop
  endfacet
  facet normal -0.948039 0.308038 0.0795888
    outer loop
      vertex 48.4292 -12.4345 -69
      vertex 59.5096 -15.5383 75
      vertex 59.5872 -15.2994 75
    endloop
  endfacet
  facet normal -0.94804 0.308037 0.0795889
    outer loop
      vertex 59.5096 -15.5383 75
      vertex 48.4292 -12.4345 -69
      vertex 46.4888 -18.4062 -69
    endloop
  endfacet
  facet normal -0.901957 0.424428 0.0795889
    outer loop
      vertex 43.8153 -24.0877 -69
      vertex 57.1998 -22.647 75
      vertex 46.4888 -18.4062 -69
    endloop
  endfacet
  facet normal -0.90196 0.424421 0.0795893
    outer loop
      vertex 57.1998 -22.647 75
      vertex 43.8153 -24.0877 -69
      vertex 57.0929 -22.8743 75
    endloop
  endfacet
  facet normal -0.682381 0.726651 0.0795885
    outer loop
      vertex 36.4484 -34.2274 -69
      vertex 39.2143 -47.402 75
      vertex 39.3974 -47.23 75
    endloop
  endfacet
  facet normal -0.682375 0.726656 0.0795889
    outer loop
      vertex 39.2143 -47.402 75
      vertex 36.4484 -34.2274 -69
      vertex 31.8712 -38.5257 -69
    endloop
  endfacet
  facet normal -0.124936 0.988967 0.0795889
    outer loop
      vertex 11.5277 -60.4303 75
      vertex 9.36907 -49.1144 -69
      vertex 4.11205 -61.3671 75
    endloop
  endfacet
  facet normal -0.585921 0.80645 0.0795889
    outer loop
      vertex 32.9641 -51.9431 75
      vertex 39.0111 -47.5496 75
      vertex 26.7913 -42.2164 -69
    endloop
  endfacet
  facet normal -0.682375 0.726656 0.0795888
    outer loop
      vertex 39.3974 -47.23 75
      vertex 44.8461 -42.1133 75
      vertex 36.4484 -34.2274 -69
    endloop
  endfacet
  facet normal 0.94804 0.308037 0.0795889
    outer loop
      vertex -57.1998 -22.647 75
      vertex -46.4888 -18.4062 -69
      vertex -59.5096 -15.5383 75
    endloop
  endfacet
  facet normal 0 0.996828 0.0795889
    outer loop
      vertex 3.13953 -49.9013 -69
      vertex -3.86287 -61.3986 75
      vertex 3.86287 -61.3986 75
    endloop
  endfacet
  facet normal 0 0.996828 0.0795889
    outer loop
      vertex -3.86287 -61.3986 75
      vertex 3.13953 -49.9013 -69
      vertex -3.13953 -49.9013 -69
    endloop
  endfacet
  facet normal 0.682375 -0.726656 0.0795888
    outer loop
      vertex -36.4484 34.2274 -69
      vertex -39.3974 47.23 75
      vertex -44.8461 42.1133 75
    endloop
  endfacet
  facet normal 0.90196 -0.424421 0.0795893
    outer loop
      vertex -57.1998 22.647 75
      vertex -43.8153 24.0877 -69
      vertex -57.0929 22.8743 75
    endloop
  endfacet
  facet normal 0.901957 -0.424428 0.0795889
    outer loop
      vertex -43.8153 24.0877 -69
      vertex -57.1998 22.647 75
      vertex -46.4888 18.4062 -69
    endloop
  endfacet
  facet normal 0.979171 -0.186787 0.0795889
    outer loop
      vertex -49.6057 6.26666 -69
      vertex -59.6343 15.0527 75
      vertex -61.0349 7.7105 75
    endloop
  endfacet
  facet normal -0.682375 -0.726656 0.0795889
    outer loop
      vertex 36.4484 34.2274 -69
      vertex 39.2143 47.402 75
      vertex 31.8712 38.5257 -69
    endloop
  endfacet
  facet normal -0.682381 -0.726651 0.0795885
    outer loop
      vertex 39.2143 47.402 75
      vertex 36.4484 34.2274 -69
      vertex 39.3974 47.23 75
    endloop
  endfacet
  facet normal -0.901957 -0.424429 0.0795888
    outer loop
      vertex 57.0929 22.8743 75
      vertex 53.9104 29.6375 75
      vertex 43.8153 24.0877 -69
    endloop
  endfacet
  facet normal -0.979171 0.186787 0.0795889
    outer loop
      vertex 59.6343 -15.0527 75
      vertex 61.0349 -7.7105 75
      vertex 49.6057 -6.26666 -69
    endloop
  endfacet
  facet normal -0.84165 0.534127 0.0795888
    outer loop
      vertex 49.7707 -36.1605 75
      vertex 53.7758 -29.8495 75
      vertex 40.4509 -29.3893 -69
    endloop
  endfacet
  facet normal -0.768069 0.635402 0.0795888
    outer loop
      vertex 45.0062 -41.9198 75
      vertex 49.7707 -36.1605 75
      vertex 40.4509 -29.3893 -69
    endloop
  endfacet
  facet normal -0.247903 0.96551 0.0795889
    outer loop
      vertex 15.4508 -47.5528 -69
      vertex 18.7675 -58.5715 75
      vertex 19.0107 -58.509 75
    endloop
  endfacet
  facet normal -0.247901 0.965511 0.0795889
    outer loop
      vertex 18.7675 -58.5715 75
      vertex 15.4508 -47.5528 -69
      vertex 9.36907 -49.1144 -69
    endloop
  endfacet
  facet normal -0.480223 0.873528 0.0795889
    outer loop
      vertex 26.7913 -42.2164 -69
      vertex 32.744 -52.0641 75
      vertex 32.9641 -51.9431 75
    endloop
  endfacet
  facet normal -0.480225 0.873527 0.0795889
    outer loop
      vertex 32.744 -52.0641 75
      vertex 26.7913 -42.2164 -69
      vertex 21.289 -45.2414 -69
    endloop
  endfacet
  facet normal -0.36695 0.92683 0.0795892
    outer loop
      vertex 21.289 -45.2414 -69
      vertex 19.0107 -58.509 75
      vertex 19.2442 -58.4165 75
    endloop
  endfacet
  facet normal -0.366957 0.926827 0.0795888
    outer loop
      vertex 19.0107 -58.509 75
      vertex 21.289 -45.2414 -69
      vertex 15.4508 -47.5528 -69
    endloop
  endfacet
  facet normal 0 0 1
    outer loop
      vertex 49.6057 6.26666 -69
      vertex 49.6057 -6.26666 -69
      vertex 50 0 -69
    endloop
  endfacet
  facet normal 0 0 1
    outer loop
      vertex 48.4292 12.4345 -69
      vertex 49.6057 -6.26666 -69
      vertex 49.6057 6.26666 -69
    endloop
  endfacet
  facet normal 0 0 1
    outer loop
      vertex 48.4292 12.4345 -69
      vertex 48.4292 -12.4345 -69
      vertex 49.6057 -6.26666 -69
    endloop
  endfacet
  facet normal 0 0 1
    outer loop
      vertex 46.4888 18.4062 -69
      vertex 48.4292 -12.4345 -69
      vertex 48.4292 12.4345 -69
    endloop
  endfacet
  facet normal 0 0 1
    outer loop
      vertex 46.4888 18.4062 -69
      vertex 46.4888 -18.4062 -69
      vertex 48.4292 -12.4345 -69
    endloop
  endfacet
  facet normal 0 0 1
    outer loop
      vertex 43.8153 24.0877 -69
      vertex 46.4888 -18.4062 -69
      vertex 46.4888 18.4062 -69
    endloop
  endfacet
  facet normal 0 0 1
    outer loop
      vertex 43.8153 24.0877 -69
      vertex 43.8153 -24.0877 -69
      vertex 46.4888 -18.4062 -69
    endloop
  endfacet
  facet normal 0 0 1
    outer loop
      vertex 40.4509 29.3893 -69
      vertex 43.8153 -24.0877 -69
      vertex 43.8153 24.0877 -69
    endloop
  endfacet
  facet normal 0 0 1
    outer loop
      vertex 40.4509 29.3893 -69
      vertex 40.4509 -29.3893 -69
      vertex 43.8153 -24.0877 -69
    endloop
  endfacet
  facet normal 0 0 1
    outer loop
      vertex 36.4484 34.2274 -69
      vertex 40.4509 -29.3893 -69
      vertex 40.4509 29.3893 -69
    endloop
  endfacet
  facet normal 0 0 1
    outer loop
      vertex 36.4484 34.2274 -69
      vertex 36.4484 -34.2274 -69
      vertex 40.4509 -29.3893 -69
    endloop
  endfacet
  facet normal 0 0 1
    outer loop
      vertex 31.8712 38.5257 -69
      vertex 36.4484 -34.2274 -69
      vertex 36.4484 34.2274 -69
    endloop
  endfacet
  facet normal 0 0 1
    outer loop
      vertex 31.8712 38.5257 -69
      vertex 31.8712 -38.5257 -69
      vertex 36.4484 -34.2274 -69
    endloop
  endfacet
  facet normal 0 0 1
    outer loop
      vertex 26.7913 42.2164 -69
      vertex 31.8712 -38.5257 -69
      vertex 31.8712 38.5257 -69
    endloop
  endfacet
  facet normal 0 0 1
    outer loop
      vertex 26.7913 42.2164 -69
      vertex 26.7913 -42.2164 -69
      vertex 31.8712 -38.5257 -69
    endloop
  endfacet
  facet normal 0 0 1
    outer loop
      vertex 21.289 45.2414 -69
      vertex 26.7913 -42.2164 -69
      vertex 26.7913 42.2164 -69
    endloop
  endfacet
  facet normal 0 0 1
    outer loop
      vertex 21.289 45.2414 -69
      vertex 21.289 -45.2414 -69
      vertex 26.7913 -42.2164 -69
    endloop
  endfacet
  facet normal 0 0 1
    outer loop
      vertex 15.4508 47.5528 -69
      vertex 21.289 -45.2414 -69
      vertex 21.289 45.2414 -69
    endloop
  endfacet
  facet normal 0 0 1
    outer loop
      vertex 15.4508 47.5528 -69
      vertex 15.4508 -47.5528 -69
      vertex 21.289 -45.2414 -69
    endloop
  endfacet
  facet normal 0 0 1
    outer loop
      vertex 9.36907 49.1144 -69
      vertex 15.4508 -47.5528 -69
      vertex 15.4508 47.5528 -69
    endloop
  endfacet
  facet normal 0 0 1
    outer loop
      vertex 9.36907 49.1144 -69
      vertex 9.36907 -49.1144 -69
      vertex 15.4508 -47.5528 -69
    endloop
  endfacet
  facet normal 0 0 1
    outer loop
      vertex 3.13953 49.9013 -69
      vertex 9.36907 -49.1144 -69
      vertex 9.36907 49.1144 -69
    endloop
  endfacet
  facet normal 0 0 1
    outer loop
      vertex 3.13953 49.9013 -69
      vertex 3.13953 -49.9013 -69
      vertex 9.36907 -49.1144 -69
    endloop
  endfacet
  facet normal -0 0 1
    outer loop
      vertex -3.13953 49.9013 -69
      vertex 3.13953 -49.9013 -69
      vertex 3.13953 49.9013 -69
    endloop
  endfacet
  facet normal 0 0 1
    outer loop
      vertex -3.13953 49.9013 -69
      vertex -3.13953 -49.9013 -69
      vertex 3.13953 -49.9013 -69
    endloop
  endfacet
  facet normal -0 0 1
    outer loop
      vertex -9.36907 49.1144 -69
      vertex -3.13953 -49.9013 -69
      vertex -3.13953 49.9013 -69
    endloop
  endfacet
  facet normal 0 0 1
    outer loop
      vertex -9.36907 49.1144 -69
      vertex -9.36907 -49.1144 -69
      vertex -3.13953 -49.9013 -69
    endloop
  endfacet
  facet normal -0 0 1
    outer loop
      vertex -15.4508 47.5528 -69
      vertex -9.36907 -49.1144 -69
      vertex -9.36907 49.1144 -69
    endloop
  endfacet
  facet normal 0 0 1
    outer loop
      vertex -15.4508 47.5528 -69
      vertex -15.4508 -47.5528 -69
      vertex -9.36907 -49.1144 -69
    endloop
  endfacet
  facet normal -0 0 1
    outer loop
      vertex -21.289 45.2414 -69
      vertex -15.4508 -47.5528 -69
      vertex -15.4508 47.5528 -69
    endloop
  endfacet
  facet normal 0 0 1
    outer loop
      vertex -21.289 45.2414 -69
      vertex -21.289 -45.2414 -69
      vertex -15.4508 -47.5528 -69
    endloop
  endfacet
  facet normal -0 0 1
    outer loop
      vertex -26.7913 42.2164 -69
      vertex -21.289 -45.2414 -69
      vertex -21.289 45.2414 -69
    endloop
  endfacet
  facet normal 0 0 1
    outer loop
      vertex -26.7913 42.2164 -69
      vertex -26.7913 -42.2164 -69
      vertex -21.289 -45.2414 -69
    endloop
  endfacet
  facet normal -0 0 1
    outer loop
      vertex -31.8712 38.5257 -69
      vertex -26.7913 -42.2164 -69
      vertex -26.7913 42.2164 -69
    endloop
  endfacet
  facet normal 0 0 1
    outer loop
      vertex -31.8712 38.5257 -69
      vertex -31.8712 -38.5257 -69
      vertex -26.7913 -42.2164 -69
    endloop
  endfacet
  facet normal -0 0 1
    outer loop
      vertex -36.4484 34.2274 -69
      vertex -31.8712 -38.5257 -69
      vertex -31.8712 38.5257 -69
    endloop
  endfacet
  facet normal 0 0 1
    outer loop
      vertex -36.4484 34.2274 -69
      vertex -36.4484 -34.2274 -69
      vertex -31.8712 -38.5257 -69
    endloop
  endfacet
  facet normal -0 0 1
    outer loop
      vertex -40.4509 29.3893 -69
      vertex -36.4484 -34.2274 -69
      vertex -36.4484 34.2274 -69
    endloop
  endfacet
  facet normal 0 0 1
    outer loop
      vertex -40.4509 29.3893 -69
      vertex -40.4509 -29.3893 -69
      vertex -36.4484 -34.2274 -69
    endloop
  endfacet
  facet normal -0 0 1
    outer loop
      vertex -43.8153 24.0877 -69
      vertex -40.4509 -29.3893 -69
      vertex -40.4509 29.3893 -69
    endloop
  endfacet
  facet normal 0 0 1
    outer loop
      vertex -43.8153 24.0877 -69
      vertex -43.8153 -24.0877 -69
      vertex -40.4509 -29.3893 -69
    endloop
  endfacet
  facet normal -0 0 1
    outer loop
      vertex -46.4888 18.4062 -69
      vertex -43.8153 -24.0877 -69
      vertex -43.8153 24.0877 -69
    endloop
  endfacet
  facet normal 0 0 1
    outer loop
      vertex -46.4888 18.4062 -69
      vertex -46.4888 -18.4062 -69
      vertex -43.8153 -24.0877 -69
    endloop
  endfacet
  facet normal -0 0 1
    outer loop
      vertex -48.4292 12.4345 -69
      vertex -46.4888 -18.4062 -69
      vertex -46.4888 18.4062 -69
    endloop
  endfacet
  facet normal 0 0 1
    outer loop
      vertex -48.4292 12.4345 -69
      vertex -48.4292 -12.4345 -69
      vertex -46.4888 -18.4062 -69
    endloop
  endfacet
  facet normal -0 0 1
    outer loop
      vertex -49.6057 6.26666 -69
      vertex -48.4292 -12.4345 -69
      vertex -48.4292 12.4345 -69
    endloop
  endfacet
  facet normal 0 0 1
    outer loop
      vertex -49.6057 6.26666 -69
      vertex -49.6057 -6.26666 -69
      vertex -48.4292 -12.4345 -69
    endloop
  endfacet
  facet normal 0 -0 1
    outer loop
      vertex -49.6057 -6.26666 -69
      vertex -49.6057 6.26666 -69
      vertex -50 0 -69
    endloop
  endfacet
  facet normal 0.979171 0.186787 0.0795889
    outer loop
      vertex -59.6343 -15.0527 75
      vertex -48.4292 -12.4345 -69
      vertex -49.6057 -6.26666 -69
    endloop
  endfacet
  facet normal 0.979169 0.186798 0.0795889
    outer loop
      vertex -48.4292 -12.4345 -69
      vertex -59.6343 -15.0527 75
      vertex -59.5872 -15.2994 75
    endloop
  endfacet
  facet normal 0.366957 0.926827 0.0795888
    outer loop
      vertex -21.289 -45.2414 -69
      vertex -19.0107 -58.509 75
      vertex -15.4508 -47.5528 -69
    endloop
  endfacet
  facet normal 0.36695 0.92683 0.0795892
    outer loop
      vertex -19.0107 -58.509 75
      vertex -21.289 -45.2414 -69
      vertex -19.2442 -58.4165 75
    endloop
  endfacet
  facet normal 0.366957 0.926827 0.0795889
    outer loop
      vertex -19.2442 -58.4165 75
      vertex -21.289 -45.2414 -69
      vertex -26.1939 -55.665 75
    endloop
  endfacet
  facet normal 0.682375 0.726656 0.0795889
    outer loop
      vertex -36.4484 -34.2274 -69
      vertex -39.2143 -47.402 75
      vertex -31.8712 -38.5257 -69
    endloop
  endfacet
  facet normal 0.682381 0.726651 0.0795885
    outer loop
      vertex -39.2143 -47.402 75
      vertex -36.4484 -34.2274 -69
      vertex -39.3974 -47.23 75
    endloop
  endfacet
  facet normal 0.901957 0.424429 0.0795888
    outer loop
      vertex -53.9104 -29.6375 75
      vertex -43.8153 -24.0877 -69
      vertex -57.0929 -22.8743 75
    endloop
  endfacet
  facet normal 0.768071 -0.635399 0.0795888
    outer loop
      vertex -45.0062 41.9198 75
      vertex -36.4484 34.2274 -69
      vertex -44.8461 42.1133 75
    endloop
  endfacet
  facet normal 0.768069 -0.635402 0.0795888
    outer loop
      vertex -36.4484 34.2274 -69
      vertex -45.0062 41.9198 75
      vertex -40.4509 29.3893 -69
    endloop
  endfacet
  facet normal 0.480225 -0.873527 0.0795889
    outer loop
      vertex -21.289 45.2414 -69
      vertex -26.1939 55.665 75
      vertex -32.744 52.0641 75
    endloop
  endfacet
  facet normal 0.682381 -0.726651 0.0795885
    outer loop
      vertex -36.4484 34.2274 -69
      vertex -39.2143 47.402 75
      vertex -39.3974 47.23 75
    endloop
  endfacet
  facet normal 0.682375 -0.726656 0.0795889
    outer loop
      vertex -39.2143 47.402 75
      vertex -36.4484 34.2274 -69
      vertex -31.8712 38.5257 -69
    endloop
  endfacet
  facet normal 0.366957 -0.926827 0.0795889
    outer loop
      vertex -21.289 45.2414 -69
      vertex -19.2442 58.4165 75
      vertex -26.1939 55.665 75
    endloop
  endfacet
  facet normal 0.36695 -0.92683 0.0795892
    outer loop
      vertex -21.289 45.2414 -69
      vertex -19.0107 58.509 75
      vertex -19.2442 58.4165 75
    endloop
  endfacet
  facet normal 0.366957 -0.926827 0.0795888
    outer loop
      vertex -19.0107 58.509 75
      vertex -21.289 45.2414 -69
      vertex -15.4508 47.5528 -69
    endloop
  endfacet
  facet normal 0.84165 -0.534127 0.0795888
    outer loop
      vertex -40.4509 29.3893 -69
      vertex -49.7707 36.1605 75
      vertex -53.7758 29.8495 75
    endloop
  endfacet
  facet normal 0.901957 -0.424429 0.0795888
    outer loop
      vertex -43.8153 24.0877 -69
      vertex -53.9104 29.6375 75
      vertex -57.0929 22.8743 75
    endloop
  endfacet
  facet normal 0.84165 -0.534126 0.0795889
    outer loop
      vertex -53.9104 29.6375 75
      vertex -40.4509 29.3893 -69
      vertex -53.7758 29.8495 75
    endloop
  endfacet
  facet normal 0.84165 -0.534127 0.0795888
    outer loop
      vertex -40.4509 29.3893 -69
      vertex -53.9104 29.6375 75
      vertex -43.8153 24.0877 -69
    endloop
  endfacet
  facet normal 0.994861 -0.0625889 0.0795888
    outer loop
      vertex -61.0507 7.45983 75
      vertex -49.6057 6.26666 -69
      vertex -61.0349 7.7105 75
    endloop
  endfacet
  facet normal 0.994861 -0.0625912 0.0795889
    outer loop
      vertex -49.6057 6.26666 -69
      vertex -61.0507 7.45983 75
      vertex -50 0 -69
    endloop
  endfacet
  facet normal 0.994861 -0.0625914 0.0795889
    outer loop
      vertex -50 0 -69
      vertex -61.0507 7.45983 75
      vertex -61.52 0 75
    endloop
  endfacet
  facet normal 0.994861 0.0625914 0.0795889
    outer loop
      vertex -61.0507 -7.45983 75
      vertex -50 0 -69
      vertex -61.52 0 75
    endloop
  endfacet
  facet normal -0.247901 -0.965511 0.0795889
    outer loop
      vertex 15.4508 47.5528 -69
      vertex 18.7675 58.5715 75
      vertex 9.36907 49.1144 -69
    endloop
  endfacet
  facet normal -0.247903 -0.96551 0.0795889
    outer loop
      vertex 18.7675 58.5715 75
      vertex 15.4508 47.5528 -69
      vertex 19.0107 58.509 75
    endloop
  endfacet
  facet normal 0 -0.996828 0.0795889
    outer loop
      vertex -3.13953 49.9013 -69
      vertex 3.86287 61.3986 75
      vertex -3.86287 61.3986 75
    endloop
  endfacet
  facet normal 0 -0.996828 0.0795889
    outer loop
      vertex 3.86287 61.3986 75
      vertex -3.13953 49.9013 -69
      vertex 3.13953 49.9013 -69
    endloop
  endfacet
  facet normal -0.366957 -0.926827 0.0795888
    outer loop
      vertex 21.289 45.2414 -69
      vertex 19.0107 58.509 75
      vertex 15.4508 47.5528 -69
    endloop
  endfacet
  facet normal -0.36695 -0.92683 0.0795892
    outer loop
      vertex 19.0107 58.509 75
      vertex 21.289 45.2414 -69
      vertex 19.2442 58.4165 75
    endloop
  endfacet
  facet normal -0.682375 -0.726656 0.0795888
    outer loop
      vertex 44.8461 42.1133 75
      vertex 39.3974 47.23 75
      vertex 36.4484 34.2274 -69
    endloop
  endfacet
  facet normal -0.90196 -0.424421 0.0795893
    outer loop
      vertex 43.8153 24.0877 -69
      vertex 57.1998 22.647 75
      vertex 57.0929 22.8743 75
    endloop
  endfacet
  facet normal -0.901957 -0.424428 0.0795889
    outer loop
      vertex 57.1998 22.647 75
      vertex 43.8153 24.0877 -69
      vertex 46.4888 18.4062 -69
    endloop
  endfacet
  facet normal -0.94804 -0.308037 0.0795889
    outer loop
      vertex 59.5096 15.5383 75
      vertex 57.1998 22.647 75
      vertex 46.4888 18.4062 -69
    endloop
  endfacet
  facet normal -0.979171 -0.186787 0.0795889
    outer loop
      vertex 61.0349 7.7105 75
      vertex 59.6343 15.0527 75
      vertex 49.6057 6.26666 -69
    endloop
  endfacet
  facet normal -0.979171 0.186787 0.0795889
    outer loop
      vertex 48.4292 -12.4345 -69
      vertex 59.6343 -15.0527 75
      vertex 49.6057 -6.26666 -69
    endloop
  endfacet
  facet normal -0.979169 0.186798 0.0795889
    outer loop
      vertex 59.6343 -15.0527 75
      vertex 48.4292 -12.4345 -69
      vertex 59.5872 -15.2994 75
    endloop
  endfacet
  facet normal -0.124936 0.988967 0.0795889
    outer loop
      vertex 3.13953 -49.9013 -69
      vertex 4.11205 -61.3671 75
      vertex 9.36907 -49.1144 -69
    endloop
  endfacet
  facet normal -0.124935 0.988968 0.0795889
    outer loop
      vertex 4.11205 -61.3671 75
      vertex 3.13953 -49.9013 -69
      vertex 3.86287 -61.3986 75
    endloop
  endfacet
  facet normal -0.247901 0.965511 0.0795889
    outer loop
      vertex 11.5277 -60.4303 75
      vertex 18.7675 -58.5715 75
      vertex 9.36907 -49.1144 -69
    endloop
  endfacet
  facet normal -0.585913 0.806456 0.0795888
    outer loop
      vertex 31.8712 -38.5257 -69
      vertex 39.0111 -47.5496 75
      vertex 39.2143 -47.402 75
    endloop
  endfacet
  facet normal -0.585921 0.806451 0.0795889
    outer loop
      vertex 39.0111 -47.5496 75
      vertex 31.8712 -38.5257 -69
      vertex 26.7913 -42.2164 -69
    endloop
  endfacet
  facet normal -0.480225 0.873527 0.0795889
    outer loop
      vertex 26.1939 -55.665 75
      vertex 32.744 -52.0641 75
      vertex 21.289 -45.2414 -69
    endloop
  endfacet
  facet normal -0.366957 0.926827 0.0795889
    outer loop
      vertex 26.1939 -55.665 75
      vertex 21.289 -45.2414 -69
      vertex 19.2442 -58.4165 75
    endloop
  endfacet
  facet normal 0.247901 0.965511 0.0795889
    outer loop
      vertex -11.5277 -60.4303 75
      vertex -9.36907 -49.1144 -69
      vertex -18.7675 -58.5715 75
    endloop
  endfacet
  facet normal 0.124936 0.988967 0.0795889
    outer loop
      vertex -4.11205 -61.3671 75
      vertex -9.36907 -49.1144 -69
      vertex -11.5277 -60.4303 75
    endloop
  endfacet
  facet normal 0.480225 0.873527 0.0795889
    outer loop
      vertex -26.1939 -55.665 75
      vertex -21.289 -45.2414 -69
      vertex -32.744 -52.0641 75
    endloop
  endfacet
  facet normal 0.480225 0.873527 0.0795889
    outer loop
      vertex -26.7913 -42.2164 -69
      vertex -32.744 -52.0641 75
      vertex -21.289 -45.2414 -69
    endloop
  endfacet
  facet normal 0.480223 0.873528 0.0795889
    outer loop
      vertex -32.744 -52.0641 75
      vertex -26.7913 -42.2164 -69
      vertex -32.9641 -51.9431 75
    endloop
  endfacet
  facet normal 0.768069 0.635402 0.0795888
    outer loop
      vertex -45.0062 -41.9198 75
      vertex -36.4484 -34.2274 -69
      vertex -40.4509 -29.3893 -69
    endloop
  endfacet
  facet normal 0.768071 0.635399 0.0795888
    outer loop
      vertex -36.4484 -34.2274 -69
      vertex -45.0062 -41.9198 75
      vertex -44.8461 -42.1133 75
    endloop
  endfacet
  facet normal 0.682375 0.726656 0.0795888
    outer loop
      vertex -39.3974 -47.23 75
      vertex -36.4484 -34.2274 -69
      vertex -44.8461 -42.1133 75
    endloop
  endfacet
  facet normal 0.585921 0.806451 0.0795889
    outer loop
      vertex -31.8712 -38.5257 -69
      vertex -39.0111 -47.5496 75
      vertex -26.7913 -42.2164 -69
    endloop
  endfacet
  facet normal 0.585913 0.806456 0.0795888
    outer loop
      vertex -39.0111 -47.5496 75
      vertex -31.8712 -38.5257 -69
      vertex -39.2143 -47.402 75
    endloop
  endfacet
  facet normal 0.948039 0.308038 0.0795888
    outer loop
      vertex -59.5096 -15.5383 75
      vertex -48.4292 -12.4345 -69
      vertex -59.5872 -15.2994 75
    endloop
  endfacet
  facet normal 0.94804 0.308037 0.0795889
    outer loop
      vertex -48.4292 -12.4345 -69
      vertex -59.5096 -15.5383 75
      vertex -46.4888 -18.4062 -69
    endloop
  endfacet
  facet normal 0.90196 0.424421 0.0795893
    outer loop
      vertex -43.8153 -24.0877 -69
      vertex -57.1998 -22.647 75
      vertex -57.0929 -22.8743 75
    endloop
  endfacet
  facet normal 0.901957 0.424428 0.0795889
    outer loop
      vertex -57.1998 -22.647 75
      vertex -43.8153 -24.0877 -69
      vertex -46.4888 -18.4062 -69
    endloop
  endfacet
  facet normal 0.247901 -0.965511 0.0795889
    outer loop
      vertex -9.36907 49.1144 -69
      vertex -11.5277 60.4303 75
      vertex -18.7675 58.5715 75
    endloop
  endfacet
  facet normal 0.124936 -0.988967 0.0795889
    outer loop
      vertex -9.36907 49.1144 -69
      vertex -4.11205 61.3671 75
      vertex -11.5277 60.4303 75
    endloop
  endfacet
  facet normal 0.585921 -0.80645 0.0795889
    outer loop
      vertex -26.7913 42.2164 -69
      vertex -32.9641 51.9431 75
      vertex -39.0111 47.5496 75
    endloop
  endfacet
  facet normal 0.480223 -0.873528 0.0795889
    outer loop
      vertex -26.7913 42.2164 -69
      vertex -32.744 52.0641 75
      vertex -32.9641 51.9431 75
    endloop
  endfacet
  facet normal 0.480225 -0.873527 0.0795889
    outer loop
      vertex -32.744 52.0641 75
      vertex -26.7913 42.2164 -69
      vertex -21.289 45.2414 -69
    endloop
  endfacet
  facet normal 0.948039 -0.308038 0.0795888
    outer loop
      vertex -59.5872 15.2994 75
      vertex -46.4888 18.4062 -69
      vertex -59.5096 15.5383 75
    endloop
  endfacet
  facet normal 0.94804 -0.308037 0.0795889
    outer loop
      vertex -46.4888 18.4062 -69
      vertex -59.5872 15.2994 75
      vertex -48.4292 12.4345 -69
    endloop
  endfacet
  facet normal -0.480225 -0.873527 0.0795889
    outer loop
      vertex 26.7913 42.2164 -69
      vertex 32.744 52.0641 75
      vertex 21.289 45.2414 -69
    endloop
  endfacet
  facet normal -0.480223 -0.873528 0.0795889
    outer loop
      vertex 32.744 52.0641 75
      vertex 26.7913 42.2164 -69
      vertex 32.9641 51.9431 75
    endloop
  endfacet
  facet normal -0.247901 -0.965511 0.0795889
    outer loop
      vertex 18.7675 58.5715 75
      vertex 11.5277 60.4303 75
      vertex 9.36907 49.1144 -69
    endloop
  endfacet
  facet normal -0.124936 -0.988967 0.0795889
    outer loop
      vertex 9.36907 49.1144 -69
      vertex 11.5277 60.4303 75
      vertex 4.11205 61.3671 75
    endloop
  endfacet
  facet normal -0.124935 -0.988968 0.0795889
    outer loop
      vertex 3.13953 49.9013 -69
      vertex 4.11205 61.3671 75
      vertex 3.86287 61.3986 75
    endloop
  endfacet
  facet normal -0.124936 -0.988967 0.0795889
    outer loop
      vertex 4.11205 61.3671 75
      vertex 3.13953 49.9013 -69
      vertex 9.36907 49.1144 -69
    endloop
  endfacet
  facet normal -0.768071 -0.635399 0.0795888
    outer loop
      vertex 36.4484 34.2274 -69
      vertex 45.0062 41.9198 75
      vertex 44.8461 42.1133 75
    endloop
  endfacet
  facet normal -0.768069 -0.635402 0.0795888
    outer loop
      vertex 45.0062 41.9198 75
      vertex 36.4484 34.2274 -69
      vertex 40.4509 29.3893 -69
    endloop
  endfacet
  facet normal -0.948039 -0.308038 0.0795888
    outer loop
      vertex 46.4888 18.4062 -69
      vertex 59.5872 15.2994 75
      vertex 59.5096 15.5383 75
    endloop
  endfacet
  facet normal -0.94804 -0.308037 0.0795889
    outer loop
      vertex 59.5872 15.2994 75
      vertex 46.4888 18.4062 -69
      vertex 48.4292 12.4345 -69
    endloop
  endfacet
  facet normal -0.979169 -0.186798 0.0795889
    outer loop
      vertex 48.4292 12.4345 -69
      vertex 59.6343 15.0527 75
      vertex 59.5872 15.2994 75
    endloop
  endfacet
  facet normal -0.979171 -0.186787 0.0795889
    outer loop
      vertex 59.6343 15.0527 75
      vertex 48.4292 12.4345 -69
      vertex 49.6057 6.26666 -69
    endloop
  endfacet
  facet normal 0.247901 0.965511 0.0795889
    outer loop
      vertex -15.4508 -47.5528 -69
      vertex -18.7675 -58.5715 75
      vertex -9.36907 -49.1144 -69
    endloop
  endfacet
  facet normal 0.247903 0.96551 0.0795889
    outer loop
      vertex -18.7675 -58.5715 75
      vertex -15.4508 -47.5528 -69
      vertex -19.0107 -58.509 75
    endloop
  endfacet
  facet normal 0.84165 0.534127 0.0795888
    outer loop
      vertex -49.7707 -36.1605 75
      vertex -40.4509 -29.3893 -69
      vertex -53.7758 -29.8495 75
    endloop
  endfacet
  facet normal 0.768069 0.635402 0.0795888
    outer loop
      vertex -45.0062 -41.9198 75
      vertex -40.4509 -29.3893 -69
      vertex -49.7707 -36.1605 75
    endloop
  endfacet
  facet normal 0.247903 -0.96551 0.0795889
    outer loop
      vertex -15.4508 47.5528 -69
      vertex -18.7675 58.5715 75
      vertex -19.0107 58.509 75
    endloop
  endfacet
  facet normal 0.247901 -0.965511 0.0795889
    outer loop
      vertex -18.7675 58.5715 75
      vertex -15.4508 47.5528 -69
      vertex -9.36907 49.1144 -69
    endloop
  endfacet
  facet normal 0.585913 -0.806456 0.0795888
    outer loop
      vertex -31.8712 38.5257 -69
      vertex -39.0111 47.5496 75
      vertex -39.2143 47.402 75
    endloop
  endfacet
  facet normal 0.585921 -0.806451 0.0795889
    outer loop
      vertex -39.0111 47.5496 75
      vertex -31.8712 38.5257 -69
      vertex -26.7913 42.2164 -69
    endloop
  endfacet
  facet normal 0.979169 -0.186798 0.0795889
    outer loop
      vertex -59.6343 15.0527 75
      vertex -48.4292 12.4345 -69
      vertex -59.5872 15.2994 75
    endloop
  endfacet
  facet normal 0.979171 -0.186787 0.0795889
    outer loop
      vertex -48.4292 12.4345 -69
      vertex -59.6343 15.0527 75
      vertex -49.6057 6.26666 -69
    endloop
  endfacet
  facet normal -0.366957 -0.926827 0.0795889
    outer loop
      vertex 21.289 45.2414 -69
      vertex 26.1939 55.665 75
      vertex 19.2442 58.4165 75
    endloop
  endfacet
  facet normal -0.480225 -0.873527 0.0795889
    outer loop
      vertex 32.744 52.0641 75
      vertex 26.1939 55.665 75
      vertex 21.289 45.2414 -69
    endloop
  endfacet
  facet normal -0.768069 -0.635402 0.0795888
    outer loop
      vertex 49.7707 36.1605 75
      vertex 45.0062 41.9198 75
      vertex 40.4509 29.3893 -69
    endloop
  endfacet
  facet normal 0.84165 0.534127 0.0795888
    outer loop
      vertex -53.9104 -29.6375 75
      vertex -40.4509 -29.3893 -69
      vertex -43.8153 -24.0877 -69
    endloop
  endfacet
  facet normal 0.84165 0.534126 0.0795889
    outer loop
      vertex -40.4509 -29.3893 -69
      vertex -53.9104 -29.6375 75
      vertex -53.7758 -29.8495 75
    endloop
  endfacet
  facet normal -0.84165 -0.534127 0.0795888
    outer loop
      vertex 53.7758 29.8495 75
      vertex 49.7707 36.1605 75
      vertex 40.4509 29.3893 -69
    endloop
  endfacet
  facet normal -0.84165 -0.534126 0.0795889
    outer loop
      vertex 40.4509 29.3893 -69
      vertex 53.9104 29.6375 75
      vertex 53.7758 29.8495 75
    endloop
  endfacet
  facet normal -0.84165 -0.534127 0.0795888
    outer loop
      vertex 53.9104 29.6375 75
      vertex 40.4509 29.3893 -69
      vertex 43.8153 24.0877 -69
    endloop
  endfacet
endsolid OpenSCAD_Model
